<?xml version="1.0" encoding="UTF-8"?> <svg xmlns="http://www.w3.org/2000/svg" width="690" height="460" fill="none"> <path fill-rule="evenodd" clip-rule="evenodd" d="M188.503 167.643c32.888 0 59.709-26.777 59.709-59.613 0-32.835-26.822-59.616-59.709-59.616s-59.709 26.777-59.709 59.612 26.836 59.617 59.709 59.617z" fill="#fff"></path> <path fill-rule="evenodd" clip-rule="evenodd" d="M232.195 64.407c-24.126-24.088-63.244-24.088-87.368 0-24.124 24.088-24.127 63.144 0 87.228 24.126 24.083 63.246 24.087 87.368 0 24.123-24.088 24.127-63.144 0-87.228zm-29.496 29.465a20.087 20.087 0 0 0-28.379 0c-7.837 7.808-7.837 20.492 0 28.316a20.094 20.094 0 0 0 28.379 0c7.819-7.824 7.819-20.508 0-28.316zm15.751-15.744c-16.533-16.507-43.353-16.507-59.894 0-16.541 16.506-16.533 43.283 0 59.79 16.532 16.508 43.354 16.523 59.894 0 16.539-16.522 16.533-43.268 0-59.79zm-8.193 8.18c-12.008-11.986-31.494-11.986-43.5 0-12.007 11.987-12.007 31.442 0 43.429 12.006 11.987 31.492 11.987 43.5 0s12.006-31.425 0-43.428zm15.122-15.097c-20.364-20.33-53.382-20.33-73.744 0-20.363 20.33-20.379 53.294 0 73.64 20.379 20.346 53.38 20.33 73.744 0 20.364-20.33 20.378-53.311 0-73.64z" fill="#E11B18"></path> <path fill-rule="evenodd" clip-rule="evenodd" d="M143.17 149.921c.534.583 1.087 1.15 1.648 1.717a52.895 52.895 0 0 0 2.597 2.446l6.815-6.804a51.62 51.62 0 0 1-2.597-2.429 49.467 49.467 0 0 1-1.648-1.734l-6.815 6.804zm43.643-43.575-14.082 14.061c.494.624 1.025 1.22 1.589 1.783a20.149 20.149 0 0 0 2.748 2.284l13.964-13.931a2.973 2.973 0 0 0-2.115-5.07 2.979 2.979 0 0 0-2.104.874v-.001zm-21.676 21.642-8.209 8.202c.519.599 1.07 1.166 1.637 1.733.845.859 1.72 1.646 2.63 2.414l8.225-8.229a30.278 30.278 0 0 1-2.661-2.364 35.119 35.119 0 0 1-1.622-1.749v-.007z" fill="#D62027"></path> <path fill-rule="evenodd" clip-rule="evenodd" d="m191.032 106.346-60.617-60.519-4.219 4.196 60.617 60.52a2.979 2.979 0 0 0 5.087-2.092 2.976 2.976 0 0 0-.868-2.104v-.001z" fill="#E3BE78"></path> <path fill-rule="evenodd" clip-rule="evenodd" d="M130.415 45.828a2.978 2.978 0 0 0-5.086 2.097 2.966 2.966 0 0 0 1.841 2.747 2.98 2.98 0 0 0 4.114-2.747 2.97 2.97 0 0 0-.869-2.097z" fill="#CFA44E"></path> <path fill-rule="evenodd" clip-rule="evenodd" d="M133.352 48.76 150.73 66.09l5.484-13.67-16.697-18.986-6.165 15.325zM129.15 52.955l17.361 17.348-13.694 5.492-19.032-16.685 15.365-6.155z" fill="#FDC600"></path> <path fill-rule="evenodd" clip-rule="evenodd" d="M681.226 210.165a7.97 7.97 0 0 1 5.607 2.335 7.948 7.948 0 0 1 2.328 5.603V343.4a7.939 7.939 0 0 1-2.33 5.595 7.963 7.963 0 0 1-5.605 2.327H472.165a7.962 7.962 0 0 1-5.613-2.322 7.937 7.937 0 0 1-2.336-5.6V218.103a7.946 7.946 0 0 1 2.333-5.608 7.969 7.969 0 0 1 5.616-2.33h209.061z" fill="#BBBDBF"></path> <path fill-rule="evenodd" clip-rule="evenodd" d="M678.857 211.672H474.518a8.827 8.827 0 0 0-6.208 2.579 8.798 8.798 0 0 0-2.583 6.198v120.602a8.795 8.795 0 0 0 2.583 6.198 8.828 8.828 0 0 0 6.208 2.58h204.339a8.828 8.828 0 0 0 6.208-2.58 8.795 8.795 0 0 0 2.583-6.198v-120.6a8.795 8.795 0 0 0-2.583-6.198 8.828 8.828 0 0 0-6.208-2.58v-.001z" fill="#161414"></path> <path fill-rule="evenodd" clip-rule="evenodd" d="M464.216 223.756v113.991h6.132a4.232 4.232 0 0 0 2.979-1.237 4.216 4.216 0 0 0 1.239-2.975V227.968a4.233 4.233 0 0 0-4.218-4.212h-6.132zM689.161 337.747V223.756h-6.119c-1.12 0-2.195.444-2.989 1.233a4.222 4.222 0 0 0-1.246 2.979v105.567a4.224 4.224 0 0 0 1.246 2.98 4.241 4.241 0 0 0 2.989 1.232h6.119z" fill="#4E4D4D"></path> <path fill-rule="evenodd" clip-rule="evenodd" d="M484.757 217.73h183.879a2.742 2.742 0 0 1 2.747 2.743v120.569a2.74 2.74 0 0 1-.804 1.939 2.75 2.75 0 0 1-1.943.804H484.757a2.765 2.765 0 0 1-2.76-2.743V220.473a2.765 2.765 0 0 1 2.76-2.743z" fill="#C6C7C9"></path> <path fill-rule="evenodd" clip-rule="evenodd" d="M469.326 264.69a1.407 1.407 0 0 0-1.396 1.41v29.303a1.405 1.405 0 0 0 1.396 1.41 1.415 1.415 0 0 0 1.412-1.41V266.1a1.41 1.41 0 0 0-1.412-1.41z" fill="#161414"></path> <path d="M663.022 217.73H531.744v126.044h131.278V217.73z" fill="#E9ECEE"></path> <path d="M663.022 217.73H531.744v19.73h131.278v-19.73z" fill="#962390"></path> <path d="M640.517 241.639h-97.092v1.313h97.092v-1.313zM640.517 246.888h-97.092v27.636h97.092v-27.636zM640.517 278.475h-97.092v59.142h97.092v-59.142z" fill="#fff"></path> <path d="M593.725 251.78H546.51v3.775h47.215v-3.775z" fill="#E9179C"></path> <path fill-rule="evenodd" clip-rule="evenodd" d="M546.51 257.368h90.048v2.057H546.51v-2.057zm0 3.645h90.048v2.057H546.51v-2.057zm0 3.596h90.048v2.057H546.51v-2.057zm0 3.58h67.544v2.057H546.51v-2.057z" fill="#D1D2D4"></path> <path d="M636.591 282.006h-89.255v42.96h89.255v-42.96z" fill="#E11B18"></path> <path d="M636.591 324.966h-89.255v9.023h89.255v-9.023z" fill="#E9ECEE"></path> <path d="M597.586 330.36h-47.784v2.058h47.784v-2.058zM633.264 326.716h-83.462v2.058h83.462v-2.058z" fill="#D1D2D4"></path> <path fill-rule="evenodd" clip-rule="evenodd" d="M591.971 290.042a13.48 13.48 0 0 1 7.474 2.275 13.452 13.452 0 0 1 4.949 6.036 13.418 13.418 0 0 1-2.931 14.641 13.471 13.471 0 0 1-14.669 2.904 13.452 13.452 0 0 1-6.038-4.95 13.422 13.422 0 0 1 1.683-16.977 13.457 13.457 0 0 1 9.532-3.929zm0 1.409a12.049 12.049 0 0 1 11.127 7.44 12.03 12.03 0 0 1-2.623 13.112 12.072 12.072 0 0 1-18.544-1.831 12.021 12.021 0 0 1 1.504-15.203 12.061 12.061 0 0 1 8.536-3.518z" fill="#fff"></path> <path fill-rule="evenodd" clip-rule="evenodd" d="m599.679 303.487-5.988 3.451-5.986 3.449v-13.801l5.986 3.451 5.988 3.45z" fill="#fff"></path> <path fill-rule="evenodd" clip-rule="evenodd" d="m12.49 163.366 78.693-23.213c9.204-2.706 18.957 2.591 21.677 11.776l54.371 183.696c2.725 9.201-2.58 18.936-11.78 21.641l-78.692 23.23c-9.204 2.705-18.967-2.592-21.677-11.777L.715 185.015c-2.725-9.189 2.58-18.927 11.78-21.642l-.004-.007z" fill="#404042"></path> <path fill-rule="evenodd" clip-rule="evenodd" d="m17.586 171.575 73.795-21.767c8.631-2.543 17.782 2.43 20.331 11.047l50.606 170.947c2.547 8.618-2.434 17.755-11.065 20.298l-73.796 21.771c-8.633 2.543-17.783-2.414-20.331-11.031L6.52 191.873c-2.548-8.617 2.435-17.737 11.066-20.298z" fill="#010101"></path> <path fill-rule="evenodd" clip-rule="evenodd" d="m19.663 173.28 70.894-20.906c8.292-2.445 17.085 2.316 19.536 10.595l49.713 167.95c2.451 8.278-2.335 17.057-10.627 19.502l-70.884 20.914c-8.29 2.446-17.085-2.331-19.534-10.611L9.036 192.767c-2.45-8.277 2.336-17.04 10.627-19.487z" fill="#161414"></path> <path fill-rule="evenodd" clip-rule="evenodd" d="m13.513 193.821 93.391-27.555a1.964 1.964 0 0 1 2.434 1.329l46.02 155.411a1.989 1.989 0 0 1-1.336 2.451l-93.39 27.554a1.972 1.972 0 0 1-2.435-1.328l-46.02-155.429a1.96 1.96 0 0 1 1.33-2.429l.006-.004z" fill="#EAEBEE"></path> <path fill-rule="evenodd" clip-rule="evenodd" d="m13.513 193.82 93.391-27.554a1.96 1.96 0 0 1 2.434 1.329l2.855 9.654-97.155 28.656-2.856-9.656a1.959 1.959 0 0 1 1.33-2.429h.001z" fill="#5A1C73"></path> <path fill-rule="evenodd" clip-rule="evenodd" d="M89.251 157.649a3.753 3.753 0 0 0-2.68 3.194 3.745 3.745 0 0 0 1.932 3.695 3.766 3.766 0 0 0 4.157-.37 3.746 3.746 0 0 0 1.248-3.977 3.767 3.767 0 0 0-4.657-2.542z" fill="#313235"></path> <path d="m77.57 357.266-1.511.437.211.697-1.526-.355-1.511-.373 1.07-1.118 1.072-1.134.226.73 1.493-.454a3.367 3.367 0 0 1 3.551 1.109c.276.342.481.736.604 1.158a3.308 3.308 0 0 1-.26 2.526h-.017a3.296 3.296 0 0 1-1.98 1.62l-2.628.761-.454-1.555 2.628-.778a1.692 1.692 0 0 0 1.006-.823c.219-.395.272-.862.147-1.296a1.72 1.72 0 0 0-.825-1.004 1.713 1.713 0 0 0-1.298-.147l.002-.001zM106.24 347.127l6.166-1.815.373 1.249-6.166 1.813-.373-1.247zm1.461 4.937 6.165-1.814.374 1.248-6.167 1.815-.372-1.249zm-.731-2.478 6.166-1.814.373 1.264-6.166 1.813-.373-1.263zM140.88 342.284l3.652-1.086-.763-2.575-3.651 1.069.762 2.592zm4.624-.049-4.867 1.425-.6.178-.179-.599-1.119-3.791-.179-.599.6-.177 4.869-1.443.6-.178.179.599 1.119 3.807.178.6-.601.178z" fill="#333332"></path> <path d="m145.472 339.302.098-.031-.763-2.592-3.651 1.085.05.129-1.217.356-.212-.728-.179-.616.601-.178 4.867-1.425.601-.178.178.599 1.121 3.791.178.599-.602.177-.712.211-.358-1.199z" fill="#333332"></path> <path fill-rule="evenodd" clip-rule="evenodd" d="M89.458 158.409a2.964 2.964 0 0 0-.542 5.416 2.98 2.98 0 0 0 3.277-.258 2.973 2.973 0 0 0 1.119-2.008 2.965 2.965 0 0 0-3.854-3.15z" fill="#464849"></path> <path fill-rule="evenodd" clip-rule="evenodd" d="m30.858 208.918 75.252-22.209a2.075 2.075 0 0 1 1.572.165 2.063 2.063 0 0 1 .992 1.228l7.61 25.708a2.068 2.068 0 0 1-1.396 2.559l-75.252 22.192a2.072 2.072 0 0 1-1.571-.165 2.059 2.059 0 0 1-.992-1.228l-4.9-16.539-2.562-.616-3.943-.96 2.79-2.931 1.817-1.912-.81-2.743a2.048 2.048 0 0 1 .165-1.568 2.056 2.056 0 0 1 1.23-.991l-.002.01zM40.464 241.349l75.251-22.194a2.071 2.071 0 0 1 2.563 1.393l7.611 25.708a2.068 2.068 0 0 1-1.396 2.559l-75.252 22.194a2.077 2.077 0 0 1-2.564-1.394l-7.609-25.692a2.075 2.075 0 0 1 1.396-2.574zM50.069 273.794l75.252-22.192a2.074 2.074 0 0 1 2.564 1.393l7.609 25.694a2.078 2.078 0 0 1-1.396 2.575l-75.252 22.193a2.073 2.073 0 0 1-2.564-1.394l-7.609-25.706a2.064 2.064 0 0 1 1.396-2.559v-.004z" fill="#fff"></path> <path fill-rule="evenodd" clip-rule="evenodd" d="m35.986 213.486 13.207-3.888a.671.671 0 0 1 .843.453l4.688 15.827a.686.686 0 0 1-.47.858l-13.187 3.887c-.087.027-.18.036-.27.027a.696.696 0 0 1-.467-.255.681.681 0 0 1-.124-.241l-4.689-15.81a.716.716 0 0 1 .471-.858h-.002zM45.59 245.932l13.207-3.888c.085-.027.175-.036.264-.027a.666.666 0 0 1 .58.481l4.69 15.827a.702.702 0 0 1-.472.857l-13.207 3.888a.669.669 0 0 1-.725-.228.666.666 0 0 1-.118-.241l-4.69-15.81a.694.694 0 0 1 .471-.859zM55.196 278.379l13.187-3.888a.69.69 0 0 1 .86.454l4.691 15.826a.686.686 0 0 1-.47.842l-13.208 3.905a.683.683 0 0 1-.843-.471l-4.688-15.809a.684.684 0 0 1 .47-.859z" fill="#D5D9E0"></path> <path fill-rule="evenodd" clip-rule="evenodd" d="m53.573 225.845-1.59-3.887c-.26-.696-.958-.971-2.093-.822-.941.065-1.639-.162-2.077-.697 0 0-.162.016-.471.033a4.55 4.55 0 0 1-.373-1.646c.055-.286.159-.56.308-.809.179-.114.227-.34.146-.697-.015-.34-.177-.502-.486-.454 0-.745-.114-1.344-.358-1.798a.549.549 0 0 0-.486-.291c-.286.01-.57-.028-.843-.114a1.016 1.016 0 0 0-1.022-.211c-.584.081-.99.275-1.237.549a.455.455 0 0 1-.145-.412c-.138.24-.179.524-.114.793-.24.069-.47.168-.687.292.34.048.502.065.502.065-.438.411-.549.939-.324 1.619.179.412.26.616.26.616-.293.259-.293.583.032.973.146.29.358.437.6.452.714.549 1.12 1.184 1.236 1.912-.26.145-.389.226-.389.226-.421.779-.94 1.313-1.557 1.638-1.413.631-2.03 1.684-1.882 3.154l.616 3.175 5.646-1.669-.86-4.454-.309-.454.342-1.085.825.745.016.534 1.752 4.196 5.022-1.472zM63.178 258.292l-1.59-3.888c-.259-.697-.956-.971-2.093-.823-.94.064-1.638-.162-2.077-.697 0 0-.162.017-.47.033a4.519 4.519 0 0 1-.373-1.653 2.5 2.5 0 0 1 .308-.81c.178-.113.228-.34.147-.696-.017-.341-.195-.503-.488-.47 0-.745-.113-1.328-.356-1.783a.57.57 0 0 0-.487-.292 2.436 2.436 0 0 1-.844-.114 1.063 1.063 0 0 0-1.022-.226c-.584.097-.99.274-1.249.566a.494.494 0 0 1-.13-.421 1.144 1.144 0 0 0-.114.811c-.24.069-.47.167-.687.292.325.048.503.064.503.064-.438.388-.55.94-.325 1.604.18.421.26.632.26.632-.291.259-.291.583.033.971.146.292.34.437.6.454.698.548 1.12 1.182 1.237 1.912-.26.145-.412.21-.412.21-.406.777-.925 1.329-1.542 1.652-1.412.631-2.027 1.669-1.882 3.155l.617 3.175 5.646-1.668-.86-4.471-.307-.438.34-1.086.824.746.017.519 1.762 4.21 5.014-1.47zM72.784 290.738l-1.59-3.887c-.26-.697-.958-.971-2.093-.823-.941.065-1.64-.163-2.078-.697 0 0-.162.015-.486.015a4.671 4.671 0 0 1-.357-1.634c.047-.289.152-.565.31-.811.176-.114.226-.34.145-.713-.017-.34-.195-.486-.503-.453.015-.746-.098-1.329-.34-1.783a.575.575 0 0 0-.488-.292 2.46 2.46 0 0 1-.844-.114 1.06 1.06 0 0 0-1.022-.226c-.584.097-.989.274-1.249.567a.582.582 0 0 1-.147-.422c-.129.291-.178.568-.097.795-.24.084-.473.187-.697.307.34.049.52.064.52.064-.439.39-.55.94-.326 1.605.179.421.26.632.26.632-.308.258-.291.582.033.96.145.309.34.454.6.471.698.548 1.12 1.182 1.236 1.91-.26.147-.412.211-.412.211-.405.778-.924 1.328-1.541 1.646-1.41.615-2.028 1.668-1.882 3.142l.617 3.19 5.646-1.667-.86-4.471-.308-.437.34-1.086.825.745.017.518 1.752 4.212 5.019-1.474z" fill="#fff"></path> <path fill-rule="evenodd" clip-rule="evenodd" d="m53.006 209.451 26.316-7.758.731 2.462-26.318 7.776-.73-2.48zM62.61 241.898l26.317-7.758.73 2.461-26.317 7.776-.73-2.479z" fill="#B4AEB0"></path> <path d="m98.53 266.598-26.317 7.758.728 2.462 26.317-7.758-.728-2.462z" fill="#B4AEB0"></path> <path fill-rule="evenodd" clip-rule="evenodd" d="m54.481 214.441 52.553-15.502-.355-1.247-52.57 15.519.372 1.23zM64.088 246.888l52.553-15.519-.358-1.231-52.57 15.503.375 1.247zM73.693 279.335l52.553-15.518-.357-1.232-52.57 15.502.374 1.248zM55.148 216.71l52.569-15.519-.374-1.232-52.553 15.503.358 1.248zM64.753 249.156l52.569-15.52-.374-1.23-52.57 15.502.375 1.248zM74.358 281.585l52.553-15.502-.357-1.23-52.57 15.502.374 1.23zM55.812 218.977l26.885-7.937-.357-1.23-26.885 7.92.357 1.247zM65.418 251.407l26.884-7.92-.357-1.232-26.885 7.921.358 1.231zM75.022 283.854l26.885-7.922-.357-1.246-26.885 7.936.357 1.232zM58.961 225.337l16.42-4.842a1.206 1.206 0 0 0 .812-1.491l-.714-2.43a1.21 1.21 0 0 0-1.493-.823l-16.42 4.859a1.195 1.195 0 0 0-.81 1.491l.713 2.43a1.2 1.2 0 0 0 1.492.806z" fill="#B4AEB0"></path> <path fill-rule="evenodd" clip-rule="evenodd" d="m59.785 306.614 75.253-22.21a2.071 2.071 0 0 1 2.563 1.393l7.61 25.708a2.08 2.08 0 0 1-1.395 2.559l-75.253 22.21a2.087 2.087 0 0 1-2.58-1.393l-7.592-25.708a2.048 2.048 0 0 1 .165-1.568 2.057 2.057 0 0 1 1.23-.991z" fill="#fff"></path> <path fill-rule="evenodd" clip-rule="evenodd" d="m64.899 311.193 13.206-3.904a.702.702 0 0 1 .86.47l4.671 15.811a.687.687 0 0 1-.455.858l-13.207 3.887a.694.694 0 0 1-.86-.452l-4.67-15.827a.671.671 0 0 1 .455-.843z" fill="#D5D9E0"></path> <path fill-rule="evenodd" clip-rule="evenodd" d="m82.502 323.537-1.605-3.871c-.244-.714-.942-.988-2.094-.823-.941.064-1.622-.179-2.077-.697 0 0-.146 0-.47.016a4.416 4.416 0 0 1-.357-1.636c.047-.286.146-.561.293-.81.177-.114.243-.357.162-.712-.033-.342-.195-.487-.504-.454 0-.745-.113-1.344-.341-1.783a.564.564 0 0 0-.503-.309c-.28.019-.56-.019-.824-.114a1.08 1.08 0 0 0-1.039-.209c-.567.081-.989.274-1.236.566a.605.605 0 0 1-.146-.421 1.096 1.096 0 0 0-.114.794 2.579 2.579 0 0 0-.687.307l.505.05c-.439.411-.536.939-.326 1.619.179.412.275.616.275.616-.308.259-.293.583.016.971.162.292.357.454.6.471.715.535 1.12 1.165 1.237 1.895-.26.145-.39.226-.39.226-.422.778-.941 1.329-1.558 1.637-1.396.632-2.028 1.684-1.865 3.154l.6 3.192 5.662-1.668-.876-4.471-.291-.438.324-1.097.824.745.016.535 1.77 4.195 5.02-1.476z" fill="#fff"></path> <path d="m108.241 299.417-26.334 7.758.732 2.478 26.334-7.758-.732-2.478z" fill="#B4AEB0"></path> <path fill-rule="evenodd" clip-rule="evenodd" d="m83.395 312.137 52.569-15.502-.373-1.232-52.553 15.502.357 1.232zM84.077 314.405l52.553-15.503-.374-1.247-52.553 15.519.374 1.231zM84.742 316.672l26.885-7.936-.374-1.232-26.885 7.937.374 1.231z" fill="#B4AEB0"></path> <path d="M445.28 44.596H235.084v103.543H445.28V44.596z" fill="#fff"></path> <path fill-rule="evenodd" clip-rule="evenodd" d="M519.835 390.103H160.416c-1.46 0-3.65 1.149-4.933 2.575-7.48 8.358-15.592 17.398-24.418 27.246-9.655 10.772-20.234 22.581-31.883 35.573-2.222 2.469-2.482 4.503-.52 4.503H581.54c1.963 0 1.849-2.041-.374-4.519-11.651-13.008-22.213-24.785-31.85-35.54-8.826-9.834-16.939-18.872-24.419-27.231-1.298-1.442-3.618-2.606-5.062-2.606v-.001z" fill="#2F2F2F"></path> <path fill-rule="evenodd" clip-rule="evenodd" d="m109.549 437.289 49.276-54.963h362.697l49.276 54.963H109.549z" fill="#B5B6B9"></path> <path fill-rule="evenodd" clip-rule="evenodd" d="M165.916 148.14h348.532a7.092 7.092 0 0 1 4.997 2.073 7.074 7.074 0 0 1 2.078 4.989v227.12h-33.931v1.265h-294.84v-1.265H158.83v-227.12a7.088 7.088 0 0 1 2.087-4.991 7.106 7.106 0 0 1 5.004-2.071h-.005z" fill="#010101"></path> <path d="M570.796 437.291H109.549v7.872h461.247v-7.872z" fill="#96989A"></path> <path fill-rule="evenodd" clip-rule="evenodd" d="M109.549 445.164h461.249v1.279a2.334 2.334 0 0 1-2.325 2.312H111.87a2.333 2.333 0 0 1-2.321-2.316v-1.275z" fill="#404042"></path> <path fill-rule="evenodd" clip-rule="evenodd" d="M172.033 164.37H508.32a1.946 1.946 0 0 1 1.932 1.928v198.858a1.931 1.931 0 0 1-1.932 1.911H172.033a1.923 1.923 0 0 1-1.915-1.911V166.298a1.93 1.93 0 0 1 1.915-1.928z" fill="#6D6E71"></path> <path fill-rule="evenodd" clip-rule="evenodd" d="M288.464 437.289h103.434v1.539a1.371 1.371 0 0 1-1.373 1.362H289.843a1.371 1.371 0 0 1-1.373-1.362l-.006-1.539z" fill="#AFB1B5"></path> <path fill-rule="evenodd" clip-rule="evenodd" d="M478.557 356.748H201.79a2.075 2.075 0 0 1-2.061-2.073V178.738a2.057 2.057 0 0 1 2.061-2.057h276.767a2.06 2.06 0 0 1 2.061 2.057V354.67a2.077 2.077 0 0 1-2.061 2.072v.006z" fill="#404042"></path> <path fill-rule="evenodd" clip-rule="evenodd" d="M457.822 187.989a2.1 2.1 0 0 0 1.163-.352 2.084 2.084 0 0 0 .891-2.146 2.097 2.097 0 0 0-1.645-1.642 2.097 2.097 0 0 0-2.149.889c-.23.343-.353.747-.353 1.161.002.553.224 1.084.616 1.475s.923.612 1.477.615zM464.118 187.989a2.09 2.09 0 0 0 1.48-3.568 2.093 2.093 0 0 0-3.574 1.478 2.096 2.096 0 0 0 2.094 2.09zM470.397 187.989a2.09 2.09 0 0 0 1.48-3.568 2.093 2.093 0 0 0-3.574 1.478 2.095 2.095 0 0 0 2.094 2.09z" fill="#B7E2E2"></path> <path fill-rule="evenodd" clip-rule="evenodd" d="M168.008 387.138h16.875c1.623 0 2.726.259 2.483.584-.244.325-.503.664-.763 1.019-.243.309-1.753.568-3.375.568h-17.069c-1.622 0-2.61-.259-2.335-.568.293-.355.584-.695.893-1.035.26-.309 1.67-.568 3.297-.568h-.006zm117.827 32.641h109.472c1.67 0 3.392 1.328 3.797 2.964.373 1.57.762 3.158 1.167 4.763.422 1.716-.664 3.155-2.417 3.155H283.305c-1.752 0-2.84-1.443-2.418-3.155.39-1.604.78-3.192 1.169-4.763.405-1.636 2.109-2.964 3.779-2.964zm217.434-25.076h15.899c1.64 0 3.23.259 3.506.599l2.839 3.273c.292.356-.824.647-2.498.647h-16.242c-1.687 0-3.278-.291-3.537-.647-.844-1.098-1.671-2.188-2.499-3.273-.243-.34.893-.599 2.532-.599zm-13.857-4.909h25.551c1.639 0 3.182.26 3.458.583.891 1.037 1.801 2.074 2.709 3.127.275.34-.824.616-2.499.616h-26.087c-1.639 0-3.159-.274-3.408-.616-.746-1.053-1.492-2.09-2.221-3.127-.228-.323.891-.583 2.497-.583zm6.636-2.656h17.021c1.606 0 3.245.259 3.521.584.276.325.584.695.891 1.035.275.325-.924.568-2.547.568-5.793 0-11.487.015-17.199 0-1.638 0-3.147-.259-3.39-.568-.26-.355-.549-.696-.812-1.035-.262-.339.91-.584 2.515-.584zm-6.798 12.943h34.494c1.672 0 3.311.292 3.618.648.974 1.133 1.98 2.267 2.97 3.45.325.358-.824.665-2.548.665h-35.256c-1.704 0-3.326-.307-3.572-.665a355.337 355.337 0 0 0-2.335-3.45c-.243-.356.961-.648 2.628-.648h.001zm-11.471-5.395c5.613 0 11.265 0 16.971.017 1.672 0 3.23.259 3.473.599.811 1.085 1.622 2.171 2.449 3.273.26.356-.891.632-2.61.632h-17.33c-1.704 0-3.262-.274-3.488-.632a718.306 718.306 0 0 0-2.094-3.273c-.21-.34.962-.616 2.629-.616zm-13.289-4.892h16.599c1.606 0 3.099.26 3.327.583a249.254 249.254 0 0 0 2.19 3.127c.226.34-.925.616-2.564.616-5.614 0-11.277-.016-16.939-.016-1.639 0-3.149-.26-3.342-.6-.617-1.053-1.237-2.09-1.851-3.127-.177-.323.974-.583 2.58-.583zm6.264-2.656h16.988c1.574 0 3.066.259 3.297.584.259.339.519.686.762 1.035.245.309-.875.568-2.481.568h-17.122c-1.639 0-3.116-.259-3.311-.568-.21-.355-.438-.696-.648-1.035-.21-.339.941-.584 2.515-.584zm8.355 18.498h49.358c1.72 0 3.407.309 3.709.686 1.039 1.199 2.094 2.415 3.149 3.629.34.39-.845.697-2.611.697-16.825 0-33.667 0-50.427.016-1.768 0-3.435-.323-3.683-.713-.746-1.214-1.492-2.43-2.271-3.644-.228-.356 1.054-.665 2.773-.665l.003-.006zm-16.03-5.555h17.446c1.671 0 3.245.292 3.488.648.748 1.133 1.51 2.283 2.288 3.45.244.358-.973.665-2.693.665h-17.82c-1.72 0-3.297-.307-3.504-.665a575.583 575.583 0 0 0-1.899-3.466c-.195-.34 1.024-.632 2.694-.632zm-10.805-5.395h16.954c1.672 0 3.197.275 3.408.616.687 1.085 1.363 2.171 2.061 3.273.211.356-.989.632-2.66.632h-17.362c-1.672 0-3.197-.274-3.375-.632-.568-1.098-1.136-2.204-1.704-3.273-.162-.34 1.039-.616 2.678-.616zm-12.672-4.892h16.565c1.607 0 3.067.26 3.261.568.6 1.052 1.201 2.089 1.801 3.142.195.34-.989.6-2.595.6h-16.939c-1.639 0-3.1-.26-3.262-.6a685.666 685.666 0 0 0-1.46-3.142c-.162-.308 1.037-.568 2.629-.568zm5.954-2.656h16.955c1.574 0 3.034.259 3.229.584.195.325.422.686.633 1.035.194.309-.961.568-2.548.568h-17.133c-1.591 0-3.034-.259-3.196-.584-.163-.325-.358-.686-.52-1.019-.162-.333 1.006-.584 2.58-.584zm72.656 27.181h17.636c1.786 0 3.537.341 3.894.73.26.307.52.616.779.907.357.411-.843.746-2.661.746h-17.815c-1.8 0-3.536-.342-3.847-.746-.226-.291-.47-.6-.698-.907-.307-.389.926-.73 2.711-.73h.001zm-28.638-2.834h17.357c1.768 0 3.473.325 3.764.713.212.274.438.583.65.875.309.388-.925.728-2.71.728h-17.551c-1.753 0-3.425-.324-3.667-.728-.195-.292-.39-.6-.585-.875-.243-.388 1.007-.713 2.748-.713h-.006zm1.867 2.834h17.584c1.786 0 3.504.341 3.797.73.226.307.453.616.686.907.308.411-.941.746-2.747.746h-17.779c-1.769 0-3.456-.342-3.732-.746-.179-.291-.372-.6-.567-.907-.26-.389 1.005-.73 2.758-.73zm-26.706 0h17.583c1.786 0 3.472.341 3.716.73.194.307.389.616.567.907.26.411-1.022.746-2.823.746h-17.762c-1.817 0-3.472-.342-3.699-.746-.146-.291-.308-.6-.471-.89-.211-.412 1.088-.747 2.884-.747h.005zm-29.044-2.899c6.085-.016 12.185 0 18.318 0 1.769 0 3.375.307 3.586.697.649 1.279 1.297 2.559 1.963 3.84.212.411-1.099.746-2.92.746h-18.74c-1.801 0-3.424-.341-3.586-.746l-1.558-3.84c-.162-.39 1.218-.697 2.937-.697zm16.583-5.784h17.88c1.72 0 3.309.309 3.536.666.762 1.213 1.493 2.43 2.224 3.644.227.389-1.023.713-2.791.713h-18.286c-1.768 0-3.359-.324-3.554-.713-.6-1.214-1.2-2.431-1.834-3.629-.177-.372 1.088-.686 2.825-.686v.005zm-15.236-5.555h17.309c1.721 0 3.261.292 3.434.632.633 1.149 1.25 2.3 1.883 3.466.194.358-1.056.665-2.808.665h-17.693c-1.753 0-3.26-.307-3.424-.665-.502-1.166-1.005-2.317-1.493-3.466-.144-.34 1.072-.632 2.792-.632zm-10.287-5.395h17.004c1.639 0 3.131.275 3.297.616.55 1.069 1.099 2.171 1.655 3.273.179.356-1.055.632-2.725.632h-17.301c-1.703 0-3.228-.274-3.374-.632a224.984 224.984 0 0 0-1.298-3.292c-.13-.324 1.153-.599 2.748-.599l-.006.002zm-12.023-4.905c5.501 0 11.023.005 16.566.016 1.639 0 3.066.259 3.213.568.47 1.037.94 2.089 1.428 3.142.145.34-.991.599-2.661.599h-16.988c-1.672 0-3.115-.274-3.229-.599-.358-1.053-.715-2.105-1.087-3.142-.114-.324 1.12-.584 2.758-.584zm5.598-2.641h16.958c1.574 0 3.001.26 3.159.585.158.325.326.685.503 1.019.177.333-1.037.584-2.628.584h-17.132c-1.622 0-3.034-.259-3.159-.584-.125-.325-.26-.686-.39-1.019-.131-.334 1.086-.585 2.693-.585h-.004zm-20.27 24.28h26.403c1.769 0 3.342.307 3.505.697.487 1.279.989 2.559 1.492 3.84.162.411-1.2.746-3.001.746h-27.016c-1.816 0-3.39-.325-3.488-.746-.307-1.28-.632-2.559-.941-3.84-.097-.39 1.282-.697 3.051-.697h-.005zm25.414-5.784h17.879c1.721 0 3.277.309 3.456.686.584 1.199 1.152 2.415 1.736 3.629.195.39-1.099.713-2.823.713-6.116 0-12.234-.016-18.335 0-1.768 0-3.326-.323-3.471-.696-.455-1.235-.91-2.447-1.374-3.646-.146-.371 1.168-.686 2.937-.686h-.005zm-14.684-5.555h17.507c1.686 0 3.18.292 3.342.632.47 1.149.961 2.3 1.444 3.466.147.358-1.136.665-2.856.665h-17.881c-1.718 0-3.228-.307-3.341-.665a874.036 874.036 0 0 0-1.071-3.466c-.114-.357 1.184-.632 2.856-.632zm-9.541-5.395h17.004c1.639 0 3.083.275 3.213.6.421 1.085.825 2.194 1.266 3.291.129.357-1.136.633-2.808.633h-17.361c-1.687 0-3.131-.275-3.229-.633-.307-1.097-.6-2.204-.908-3.291-.081-.324 1.185-.6 2.823-.6zm-11.439-4.905h16.598c1.607 0 3.003.26 3.117.584.34 1.037.696 2.089 1.053 3.142.098.324-1.151.599-2.79.599h-16.932c-1.639 0-3.035-.274-3.116-.599-.226-1.053-.47-2.105-.713-3.142-.066-.324 1.184-.584 2.79-.584h-.007zm5.258-2.641h16.987c1.574 0 2.97.26 3.083.585.112.325.259.685.39 1.019.13.333-1.099.584-2.71.584h-17.172c-1.591 0-2.969-.259-3.05-.584-.081-.325-.178-.686-.261-1.019-.082-.334 1.153-.585 2.727-.585h.006zm3.521 18.499h17.88c1.72 0 3.245.309 3.374.686.471 1.199.909 2.415 1.347 3.645.129.373-1.2.697-2.97.697h-18.285c-1.753 0-3.297-.324-3.374-.697a194.832 194.832 0 0 0-.942-3.645c-.114-.372 1.25-.686 2.97-.686zm-13.97-5.558h17.446c1.671 0 3.146.274 3.245.632.341 1.149.687 2.3 1.037 3.466.114.358-1.215.665-2.937.665h-17.818c-1.671 0-3.147-.307-3.213-.665-.227-1.166-.437-2.317-.649-3.466-.081-.357 1.25-.632 2.885-.632h.004zm-8.811-5.395h16.956c1.639 0 3.066.275 3.147.6.291 1.085.567 2.194.86 3.291.098.357-1.201.633-2.872.633h-17.33c-1.672 0-3.099-.275-3.147-.633-.162-1.097-.341-2.204-.503-3.291-.049-.324 1.249-.6 2.885-.6h.004zm-10.887-4.905h16.614c1.558 0 2.922.26 3.002.584.211 1.037.438 2.089.665 3.142.066.324-1.216.599-2.807.599h-16.953c-1.639 0-3.002-.274-3.034-.616a215.711 215.711 0 0 1-.325-3.125c-.033-.324 1.249-.584 2.84-.584h-.002zm4.946-2.641h16.923c1.607 0 2.97.26 3.049.585.08.325.162.685.245 1.019.082.333-1.169.584-2.792.584H370.19c-1.59 0-2.936-.259-2.985-.584-.05-.325-.081-.686-.129-1.019-.049-.334 1.215-.585 2.79-.585h-.003zm1.948 18.499h17.847c1.72 0 3.195.309 3.297.686.308 1.199.615 2.415.908 3.645.081.373-1.298.697-3.051.697h-18.286c-1.768 0-3.261-.324-3.309-.697-.147-1.234-.309-2.446-.455-3.645-.048-.372 1.33-.686 3.051-.686h-.002zm-13.29-5.556h17.394c1.72 0 3.148.275 3.212.633.212 1.149.405 2.3.617 3.465.065.358-1.298.666-3.051.666h-17.779c-1.753 0-3.18-.308-3.196-.666-.081-1.182-.164-2.316-.244-3.465-.016-.357 1.33-.633 3.05-.633h-.003zm-8.225-5.394h16.987c1.639 0 3.035.274 3.083.6.147 1.084.292 2.194.454 3.291.048.357-1.281.632-2.953.632H350.51c-1.688 0-3.066-.274-3.084-.632l-.096-3.291c-.017-.324 1.329-.6 2.968-.6h-.002zm-10.253-4.908h16.568c1.637 0 2.968.26 3.001.584.098 1.037.194 2.072.291 3.125.033.341-1.281.616-2.952.616-5.664 0-11.293-.016-16.923-.016-1.671 0-3.003-.259-3.003-.6.017-1.053.05-2.088.066-3.125 0-.324 1.315-.584 2.952-.584zm4.56-2.641h16.989c1.574 0 2.904.26 2.953.585.05.325.081.685.114 1.019.033.333-1.236.584-2.839.584h-17.172c-1.589 0-2.903-.259-2.903-.584 0-.325-.016-.686-.016-1.019 0-.334 1.298-.585 2.871-.585h.003zm.373 18.499h17.881c1.72 0 3.18.309 3.212.686.147 1.199.274 2.415.421 3.645.05.389-1.373.697-3.099.697h-18.284c-1.769 0-3.213-.308-3.213-.697 0-1.234-.017-2.446-.065-3.645 0-.372 1.428-.686 3.147-.686zm-12.606-5.556h17.425c1.671 0 3.083.275 3.1.633l.193 3.465c.017.358-1.373.666-3.099.666h-17.814c-1.72 0-3.116-.308-3.099-.666.064-1.182.13-2.316.195-3.465.015-.357 1.411-.633 3.099-.633zm-7.594-5.397h17.004c1.639 0 2.985.275 3.001.6l.05 3.291c.016.357-1.363.633-3.035.633h-17.361c-1.67 0-3.022-.293-2.985-.633.098-1.097.194-2.204.293-3.291.031-.324 1.394-.6 3.033-.6zm-9.653-4.905h16.597c1.607 0 2.904.26 2.904.584l-.096 3.125c0 .341-1.348.6-2.986.6h-16.955c-1.622 0-2.937-.259-2.885-.6.146-1.053.291-2.088.437-3.125.033-.324 1.396-.584 2.987-.584h-.003zm4.25-2.641h16.988c1.574 0 2.872.26 2.872.585v1.019c0 .325-1.315.584-2.904.584h-17.172c-1.607 0-2.884-.259-2.839-.584.045-.325.065-.686.113-1.019.048-.334 1.364-.585 2.937-.585h.005zm-1.249 18.499h17.896c1.721 0 3.115.309 3.132.686.016 1.199.016 2.414 0 3.645 0 .389-1.445.697-3.213.697h-18.286c-1.801 0-3.212-.308-3.159-.697.145-1.234.274-2.446.421-3.645.05-.372 1.494-.686 3.213-.686h-.004zm-11.926-5.572c5.776.016 11.602.016 17.427.016 1.687 0 3.049.275 3.022.633-.065 1.149-.146 2.283-.227 3.465-.016.358-1.443.666-3.159.666h-17.826c-1.72 0-3.082-.308-3.022-.666.21-1.182.405-2.316.6-3.465.065-.357 1.492-.649 3.179-.649h.006zm-6.895-5.394c5.646 0 11.293.016 16.955.016 1.686 0 3.001.274 2.969.6-.114 1.084-.226 2.194-.34 3.291-.033.34-1.444.632-3.149.632H298.41c-1.703 0-2.985-.292-2.904-.632.227-1.097.455-2.204.687-3.291.081-.341 1.444-.616 3.116-.616h-.006zm-9.086-4.892h16.598c1.59 0 2.872.26 2.823.584-.163 1.037-.308 2.072-.47 3.125-.05.341-1.428.6-3.066.6h-16.956c-1.623 0-2.904-.274-2.807-.6.26-1.053.535-2.088.811-3.125.081-.324 1.46-.584 3.067-.584zm3.926-2.641h16.956c1.573 0 2.838.26 2.807.585-.032.325-.098.685-.131 1.019-.033.333-1.427.584-2.985.584-5.712-.016-11.423-.022-17.133-.016-1.639 0-2.885-.243-2.808-.568.077-.325.162-.686.245-1.019.082-.334 1.442-.585 3.049-.585zm-32.402 24.283h128.487c1.77 0 3.297.307 3.392.697.291 1.279.584 2.559.891 3.84.098.421-1.313.746-3.13.746H259.892c-1.801 0-3.159-.325-3.022-.73.454-1.296.925-2.575 1.374-3.84.146-.389 1.72-.713 3.488-.713h.009zm29.579-5.784h17.848c1.768 0 3.147.309 3.099.686a206.368 206.368 0 0 0-.47 3.645c-.049.389-1.543.697-3.344.697h-18.221c-1.801 0-3.159-.308-3.082-.697.292-1.234.585-2.446.843-3.645.066-.372 1.575-.686 3.327-.686zm-11.264-5.572h17.397c1.72 0 3.051.292 2.985.649-.21 1.149-.422 2.283-.649 3.465-.064.358-1.524.666-3.297.666h-17.763c-1.768 0-3.083-.308-2.969-.666.341-1.182.687-2.316 1.022-3.465.098-.357 1.558-.649 3.278-.649h-.004zm-6.263-5.394h16.987c1.639 0 2.938.274 2.855.616-.243 1.084-.486 2.194-.729 3.291-.081.34-1.525.632-3.197.632h-17.356c-1.671 0-2.953-.292-2.839-.632.374-1.118.729-2.204 1.087-3.291.114-.341 1.557-.616 3.196-.616h-.004zm-8.499-4.892h16.599c1.607 0 2.839.26 2.759.584-.274 1.037-.568 2.072-.86 3.125-.082.324-1.493.6-3.132.6h-16.955c-1.623 0-2.872-.274-2.748-.6.405-1.053.795-2.088 1.201-3.142.114-.307 1.525-.567 3.13-.567h.006zm3.587-2.641h16.987c1.574 0 2.807.26 2.726.585-.082.325-.163.685-.26 1.019-.098.333-1.444.568-3.05.568h-17.171c-1.591 0-2.807-.243-2.694-.568.113-.325.243-.686.374-1.019.13-.334 1.511-.585 3.082-.585h.006zm-41.602 24.283h24.874c1.768 0 3.147.324 2.985.713-.471 1.263-.962 2.543-1.427 3.84-.162.412-1.77.73-3.62.73h-25.459c-1.851 0-3.16-.325-2.952-.73.665-1.296 1.313-2.575 1.963-3.84.21-.389 1.816-.713 3.633-.713h.003zm37.204-5.784h17.881c1.72 0 3.049.309 2.97.686a176.5 176.5 0 0 1-.877 3.645c-.097.389-1.623.697-3.375.697H262.78c-1.753 0-3.083-.308-2.953-.697.438-1.234.876-2.446 1.266-3.645.129-.372 1.671-.686 3.39-.686zm-10.546-5.572h17.393c1.688 0 2.97.292 2.856.649-.341 1.149-.698 2.283-1.055 3.465-.113.373-1.622.666-3.342.666h-17.782c-1.705 0-2.953-.308-2.808-.666.487-1.165.974-2.316 1.446-3.465.145-.357 1.648-.649 3.296-.649h-.004zm-5.581-5.394h16.923c1.639 0 2.885.274 2.775.616-.374 1.084-.748 2.171-1.136 3.291-.114.34-1.591.632-3.262.632H246.36c-1.672 0-2.921-.292-2.759-.632.505-1.118 1.007-2.219 1.494-3.291.145-.341 1.622-.616 3.261-.616zm-7.95-4.892h16.646c1.557 0 2.773.26 2.644.567a210.56 210.56 0 0 1-1.236 3.142c-.129.324-1.573.6-3.16.6h-16.987c-1.639 0-2.84-.274-2.678-.6.52-1.053 1.055-2.105 1.575-3.142.162-.323 1.605-.567 3.196-.567zm3.245-2.641h16.954c1.608 0 2.808.26 2.694.585-.114.325-.259.685-.389 1.019-.129.333-1.526.568-3.159.568h-17.123c-1.606 0-2.79-.26-2.628-.568.162-.339.324-.686.504-1.019.145-.325 1.573-.585 3.147-.585zm-43.256 24.283h17.408c1.769 0 3.051.324 2.856.713-.687 1.263-1.346 2.543-2.028 3.84-.211.412-1.882.73-3.683.73h-17.815c-1.801 0-3.083-.325-2.838-.73.81-1.295 1.621-2.575 2.432-3.84.244-.389 1.899-.713 3.668-.713zm37.287-5.787h17.88c1.689 0 2.987.309 2.856.686a293.897 293.897 0 0 1-1.314 3.646c-.146.388-1.72.696-3.473.696h-18.303c-1.753 0-3.051-.308-2.873-.696.6-1.235 1.168-2.447 1.753-3.646.177-.371 1.751-.686 3.471-.686h.003zm-9.946-5.572h17.502c1.671 0 2.937.292 2.791.649-.504 1.149-.99 2.3-1.493 3.466-.162.358-1.704.665-3.407.665h-17.894c-1.72 0-2.969-.307-2.775-.665.633-1.166 1.25-2.317 1.867-3.466.193-.357 1.72-.649 3.407-.649h.002zm-4.916-5.394h16.956c1.672 0 2.884.274 2.725.616a123.58 123.58 0 0 0-1.492 3.291c-.147.357-1.705.633-3.424.633h-17.309c-1.72 0-2.921-.293-2.726-.633a198.66 198.66 0 0 1 1.899-3.291c.195-.34 1.687-.616 3.374-.616h-.003zm-7.319-4.889h16.597c1.589 0 2.775.244 2.61.567-.536 1.037-1.07 2.089-1.606 3.142-.178.324-1.655.6-3.297.6h-16.934c-1.638 0-2.806-.274-2.61-.6.665-1.053 1.314-2.105 1.963-3.142.194-.323 1.671-.567 3.278-.567h-.001zm2.884-2.641h16.988c1.574 0 2.747.26 2.596.585-.178.338-.357.685-.519 1.019-.162.308-1.606.568-3.197.568h-17.171c-1.59 0-2.759-.26-2.564-.568.227-.356.422-.696.632-1.019.211-.324 1.656-.585 3.23-.585h.005zm-44.522 24.283h17.409c1.819 0 3.101.324 2.856.713-.824 1.263-1.67 2.559-2.514 3.84-.274.421-1.996.73-3.846.73h-17.78c-1.801 0-3.05-.325-2.747-.73.961-1.279 1.963-2.559 2.905-3.822.291-.412 1.995-.73 3.709-.73l.008-.001zm36.929-5.784h17.88c1.768 0 3.022.309 2.856.686-.569 1.199-1.169 2.415-1.77 3.645-.177.389-1.785.697-3.601.697h-18.285c-1.801 0-3.049-.308-2.823-.697a237.542 237.542 0 0 0 2.159-3.645c.211-.372 1.817-.686 3.585-.686h-.001zm-9.232-5.572h17.426c1.687 0 2.92.292 2.709.649-.632 1.149-1.249 2.3-1.897 3.465-.212.358-1.786.666-3.506.666h-17.813c-1.719 0-2.936-.308-2.676-.686.762-1.167 1.525-2.317 2.271-3.451.244-.357 1.817-.649 3.489-.649l-.003.006zm-4.265-5.397h17.004c1.637 0 2.823.274 2.628.616-.649 1.07-1.282 2.171-1.947 3.291-.195.34-1.736.633-3.425.633h-17.358c-1.672 0-2.839-.292-2.596-.649.762-1.097 1.541-2.203 2.287-3.272.243-.341 1.769-.616 3.408-.616l-.001-.003zm-6.718-4.907c5.517 0 11.049.015 16.599.015 1.604 0 2.758.244 2.547.568-.65 1.037-1.331 2.073-1.996 3.142-.212.323-1.72.599-3.359.599-5.646-.016-11.325 0-16.939 0-1.638 0-2.774-.274-2.531-.616.779-1.052 1.558-2.088 2.336-3.125.243-.324 1.751-.583 3.342-.583h.001zm2.58-2.625h16.988c1.589 0 2.725.259 2.515.584-.21.325-.423.664-.633 1.019-.212.309-1.672.568-3.278.568h-17.172c-1.589 0-2.709-.259-2.482-.568.26-.355.519-.695.762-1.019.244-.324 1.72-.584 3.297-.584h.003zm-44.783 24.282h16.501c1.768 0 2.969.324 2.677.73-.974 1.263-1.931 2.542-2.92 3.822-.309.412-2.046.73-3.847.73h-16.887c-1.817 0-3.022-.325-2.661-.73 1.099-1.28 2.208-2.559 3.297-3.822.341-.412 2.077-.73 3.847-.73h-.007zm4.9-5.784h48.594c1.688 0 2.905.309 2.694.686-.715 1.199-1.461 2.415-2.206 3.646-.245.388-1.915.696-3.652.696H149.01c-1.753 0-2.937-.308-2.596-.696 1.055-1.215 2.108-2.447 3.147-3.646.309-.371 1.996-.686 3.716-.686h-.003zm4.691-5.569h34.901c1.687 0 2.872.292 2.629.649-.764 1.134-1.543 2.283-2.32 3.45-.261.373-1.867.686-3.587.686H153.91c-1.705 0-2.856-.307-2.548-.686 1.007-1.167 1.996-2.301 2.986-3.45.308-.357 1.93-.649 3.617-.649zm4.285-5.409c8.776.015 17.652.015 26.526.015 1.608 0 2.792.274 2.565.616a266.42 266.42 0 0 0-2.335 3.272c-.243.357-1.834.649-3.505.649h-27.098c-1.72 0-2.838-.292-2.546-.649.961-1.097 1.914-2.203 2.855-3.292.292-.323 1.866-.614 3.538-.614v.003zm3.521-4.893h16.499c1.624 0 2.748.26 2.499.583-.777 1.037-1.573 2.074-2.368 3.126-.243.34-1.801.616-3.473.616h-16.825c-1.671 0-2.678-.274-2.385-.616.908-1.052 1.817-2.089 2.709-3.126.275-.323 1.705-.583 3.344-.583z" fill="#7E7E81"></path> <path fill-rule="evenodd" clip-rule="evenodd" d="M564.924 32.285c1.236-.454 2.385-.843 3.521-1.248-4.575 2.625-1.022 24.001 8.145 48.468 9.021 24.039 20.167 42.327 25.505 42.084-.941.357-1.865.713-2.854 1.07-5.388 1.96-17.411-16.686-26.869-41.649-9.458-24.962-12.801-46.768-7.448-48.725z" fill="#E7E7E7"></path> <path fill-rule="evenodd" clip-rule="evenodd" d="M568.737 30.908c5.046-1.864 16.76 16.927 26.121 41.954 9.362 24.996 12.885 46.769 7.838 48.598-5.047 1.83-16.728-16.945-26.101-41.955-9.373-25.011-12.883-46.768-7.852-48.597h-.006z" fill="#D2D3D4"></path> <path fill-rule="evenodd" clip-rule="evenodd" d="M569.5 32.317c4.77-1.733 15.871 16.652 24.792 41.058 8.92 24.406 12.298 45.6 7.528 47.333-4.737 1.734-15.835-16.651-24.759-41.064-8.924-24.412-12.299-45.6-7.556-47.333l-.005.006z" fill="#A8AAAD"></path> <path fill-rule="evenodd" clip-rule="evenodd" d="m574.27 71.616 7.941-2.904a.397.397 0 0 1 .471.21l5.694 15.601a.376.376 0 0 1-.211.47l-7.934 2.866a205.904 205.904 0 0 1-3.159-8.213c-.991-2.705-1.948-5.41-2.791-8.034l-.011.004z" fill="#BDBEC0"></path> <path fill-rule="evenodd" clip-rule="evenodd" d="M582.545 68.586c1.298-.47 3.667 2.787 5.305 7.29 1.639 4.502 1.947 8.52.634 8.99-1.282.487-3.683-2.786-5.306-7.29-1.655-4.47-1.948-8.503-.633-8.99z" fill="#D2D3D4"></path> <path fill-rule="evenodd" clip-rule="evenodd" d="M563.237 32.9c.535-.194 1.086-.389 1.589-.567-5.208 2.22-1.866 23.893 7.546 48.677 9.377 24.72 21.254 43.252 26.706 41.694-.504.195-1.023.373-1.526.568-5.386 1.96-17.409-16.702-26.868-41.632-7.302-19.229-10.952-36.593-9.784-44.45.357-2.348 1.12-3.84 2.335-4.293l.002.002z" fill="#F05213"></path> <path fill-rule="evenodd" clip-rule="evenodd" d="M515.08 84.672s41.91-16.097 45.674-46.022c-.583 8.408 3.067 24.866 9.93 42.993 6.539 17.236 14.327 31.491 20.265 37.99-2.007-2.095-18.079-16.607-62.255-.489-5.825.761-11.78-10.546-13.5-14.791-1.898-4.697-5.452-16.003-.114-19.68zm76.08 35.197-.016-.016.016.016z" fill="#E7E7E7"></path> <path fill-rule="evenodd" clip-rule="evenodd" d="M584.135 69.963c1.2-.421 3.213 2.09 4.511 5.623 1.298 3.533 1.374 6.786.177 7.209-1.196.422-3.212-2.074-4.526-5.623-1.282-3.532-1.363-6.771-.162-7.209z" fill="#B96828"></path> <path fill-rule="evenodd" clip-rule="evenodd" d="M584.134 69.963c1.201-.421 3.213 2.09 4.512 5.623 1.298 3.533 1.373 6.786.177 7.209-.015 0-.015 0-.015.015-1.055-1.328-2.223-3.53-3.181-6.122-.957-2.593-1.476-5.04-1.524-6.707 0-.017.031-.017.031-.017z" fill="#F05213"></path> <path fill-rule="evenodd" clip-rule="evenodd" d="M508.168 87.377c3.585-1.49 6.749-2.754 9.557-3.806-1.656.712-2.646 1.097-2.646 1.097-5.339 3.677-1.786 14.984.114 19.681 1.72 4.252 7.675 15.551 13.499 14.79.146-.064.26-.097.406-.146a240.798 240.798 0 0 1-8.21 3.143c-4.576 1.684-11.127-4.747-14.635-14.369-3.521-9.59-2.597-18.547 1.915-20.394v.004z" fill="#BABEC2"></path> <path fill-rule="evenodd" clip-rule="evenodd" d="m473.772 102.815.146-.081c.278-.154.565-.291.86-.412.049-.007.098-.018.145-.032l33.003-14.815c-4.3 2.073-5.144 10.869-1.672 20.298 3.504 9.622 10.06 16.046 14.635 14.369l-33.327 11.613a8.132 8.132 0 0 0-.439.178c-.21.081-.405.137-.616.195-4.917 1.165-11.294-4.326-14.57-12.717-3.16-8.084-2.289-16.02 1.834-18.58v-.016h.001z" fill="#E70092"></path> <path fill-rule="evenodd" clip-rule="evenodd" d="m471.987 104.097.162-.064.438-.243c-3.083 3.24-3.473 10.367-.648 17.624 2.774 7.144 7.83 12.181 12.314 12.797-4.9 1.151-11.178-4.081-14.327-12.117-3.022-7.758-2.061-15.454 2.061-17.98v-.017zm46.355 18.208a.545.545 0 0 0 .325-.097l-.308.129-.017-.032z" fill="#A8AAAD"></path> <path fill-rule="evenodd" clip-rule="evenodd" d="m476.822 129.559.048.081-.048-.081zm-2.304.161c-1.98-.842-4.202-3.66-5.55-7.418-1.236-3.322-1.477-6.561-.81-8.569.064 2.606.664 5.475 1.768 8.358 1.2 3.017 2.791 5.589 4.592 7.629z" fill="#E70092"></path> <path fill-rule="evenodd" clip-rule="evenodd" d="m495.529 130.969 22.164-7.695s2.904 6.917 7.756 9.152c-2.97 5.783-3.959 8.294-8.226 14.287l-3.149-1.976-18.545-13.768z" fill="#651561"></path> <path fill-rule="evenodd" clip-rule="evenodd" d="m525.449 132.427 17.409 21.074 9.313 1.96.357 3.451-11.951 11.014c-4.609-2.138-16.242-17.607-23.354-23.212 4.267-5.994 5.256-8.504 8.226-14.287z" fill="#F05213"></path> <path fill-rule="evenodd" clip-rule="evenodd" d="m605.39 0-14.019 17.9 4.771 1.571-8.13 11.048 14.571-12.554-6.312-2.057L605.39 0zM660.198 122.431l-28.361-3.223 2.773-5.637-17.019-2.478 24.046-1.945-3.716 7.436 22.277 5.847zM670.81 31.848 625.25 47.69l6.683 8.262-27.143 10.383 40.383-5.686-8.907-10.885 34.544-17.916z" fill="#fff"></path> <path fill-rule="evenodd" clip-rule="evenodd" d="M473.74 195.895H206.609a2.128 2.128 0 0 0-2.125 2.121v143.976a2.128 2.128 0 0 0 2.125 2.118H473.74a2.135 2.135 0 0 0 2.125-2.122V198.016a2.128 2.128 0 0 0-2.125-2.121z" fill="#651561"></path> <path d="M457.254 195.895H286.323v148.219h170.931V195.895z" fill="#F5F5F5"></path> <path d="M286.323 195.895h-63.23v148.219h63.23V195.895z" fill="#fff"></path> <path d="M280.254 208.107h-51.093v6.643h51.093v-6.643zM280.254 224.453h-51.093v6.642h51.093v-6.642zM280.254 234.82h-51.093v6.641h51.093v-6.641zM280.254 245.187h-51.093v6.642h51.093v-6.642zM280.254 255.555h-51.093v6.642h51.093v-6.642zM338.242 224.453h-45.218v6.642h45.218v-6.642zM452.371 248.896H338.065v4.795h114.306v-4.795zM452.371 257.531H338.065v4.795h114.306v-4.795zM452.371 266.181H338.065v4.795h114.306v-4.795zM452.371 274.814H338.065v4.795h114.306v-4.795zM426.93 283.466H293.024v4.795H426.93v-4.795zM452.371 292.1H293.024v4.794h159.347V292.1zM452.371 300.733H293.024v4.795h159.347v-4.795zM390.212 309.383h-97.188v4.795h97.188v-4.795zM452.629 235.613H293.024v1.846h159.605v-1.846zM332.742 248.896h-39.718v30.713h39.718v-30.713z" fill="#5A1C73"></path> <path fill-rule="evenodd" clip-rule="evenodd" d="M132.152 222.897c32.597 0 59.173-26.534 59.173-59.077s-26.576-59.077-59.173-59.077-59.179 26.533-59.179 59.077 26.593 59.077 59.173 59.077h.006z" fill="#fff"></path> <path fill-rule="evenodd" clip-rule="evenodd" d="M131.599 218.037c29.612 0 53.755-24.104 53.755-53.666 0-29.563-24.143-53.651-53.755-53.651-29.611 0-53.737 24.099-53.737 53.651 0 29.551 24.143 53.666 53.737 53.666z" fill="#fff"></path> <path fill-rule="evenodd" clip-rule="evenodd" d="M116.202 161.925a2127.34 2127.34 0 0 1-.114-9.234c-2.871-.405-4.174 1.161-3.909 4.699.615 2.59 1.963 4.098 4.023 4.535zM147.988 161.925c.081-6.155.113-9.234.113-9.234 2.873-.405 4.176 1.161 3.911 4.699-.617 2.59-1.963 4.098-4.024 4.535z" fill="#F8CB7F"></path> <path fill-rule="evenodd" clip-rule="evenodd" d="M148.1 155.656a24307.297 24307.297 0 0 0-32.007 2.899c-1.59-4-2.666-7.898-3.229-11.694-.504-5.363.572-8.992 3.229-10.886 2.547-4.925 6.944-9.326 13.483-8.165 4.981-1.571 10.741.421 12.947 3.92 13.532.583 8.681 17.155 5.581 23.926h-.004z" fill="#5D3716"></path> <path fill-rule="evenodd" clip-rule="evenodd" d="M132.087 176.083c-8.792 0-15.999-7.194-15.999-15.973v-12.408c0-8.796 7.204-15.972 15.999-15.972 8.809 0 16.013 7.176 16.013 15.972v12.408c0 8.778-7.204 15.973-16.013 15.973z" fill="#FFD48C"></path> <path fill-rule="evenodd" clip-rule="evenodd" d="M139.049 174.495a15.905 15.905 0 0 1-6.961 1.588 15.679 15.679 0 0 1-7.789-2.042 32.24 32.24 0 0 1-.632 4.844c2.531 1.361 5.208 2.657 8 3.92a1739.41 1739.41 0 0 0 7.999-4.26 19.257 19.257 0 0 1-.617-4.05z" fill="#F0C273"></path> <path d="M119.983 151.898a.222.222 0 0 1-.158-.017.218.218 0 0 1 .027-.395 13.019 13.019 0 0 1 4.171-.599c1.464.043 2.914.305 4.3.777a.213.213 0 0 1 .106.336.204.204 0 0 1-.151.075.222.222 0 0 1-.084-.014 14.342 14.342 0 0 0-4.186-.746 12.15 12.15 0 0 0-4.024.584l-.001-.001z" fill="#985E25"></path> <path fill-rule="evenodd" clip-rule="evenodd" d="m123.812 176.844-22.553 9.464-1.59 21.236A53.81 53.81 0 0 0 131.6 218.04a53.812 53.812 0 0 0 31.932-10.496l-1.575-21.236-22.569-9.464s.098.664.244 1.944l-7.886 3.498-8.177-3.337c.145-1.393.243-2.105.243-2.105z" fill="#5A1C73"></path> <path d="M144.92 151.492a.224.224 0 0 1 .146.274.217.217 0 0 1-.258.137c-1.3-.419-2.66-.616-4.025-.584-1.43.04-2.846.291-4.202.746a.191.191 0 0 1-.082.013.188.188 0 0 1-.08-.022.191.191 0 0 1-.098-.128.196.196 0 0 1 .012-.159.2.2 0 0 1 .125-.1 14.759 14.759 0 0 1 4.317-.778c1.407-.028 2.81.175 4.152.6l-.007.001z" fill="#985E25"></path> <path fill-rule="evenodd" clip-rule="evenodd" d="M135.461 130.061c-7.545-1.182-13.353.854-17.426 6.107 4.671 7.193 11.718 10.648 21.142 10.368-1.039-.583-1.655-1.296-1.849-2.139 6.749.373 10.751 3.122 12.006 8.246 1.282-11.906-3.343-19.433-13.875-22.582h.002z" fill="#5D3716"></path> <path fill-rule="evenodd" clip-rule="evenodd" d="M539.289 243.389c27.988 0 50.817-22.776 50.817-50.719s-22.829-50.735-50.817-50.735-50.801 22.792-50.801 50.735c0 27.943 22.828 50.719 50.801 50.719z" fill="#fff"></path> <path fill-rule="evenodd" clip-rule="evenodd" d="M538.818 239.209c25.425 0 46.144-20.685 46.144-46.069 0-25.383-20.719-46.07-46.144-46.07-25.425 0-46.145 20.702-46.145 46.07 0 25.369 20.72 46.069 46.145 46.069z" fill="#fff"></path> <path fill-rule="evenodd" clip-rule="evenodd" d="M525.659 184.36c-.064-5.442-.097-8.164-.098-8.165-2.53-.356-3.683 1.021-3.456 4.148.549 2.283 1.736 3.629 3.554 4.017zM553.73 184.36l.096-8.165c2.532-.356 3.683 1.021 3.456 4.148-.549 2.283-1.736 3.629-3.552 4.017z" fill="#F8CB7F"></path> <path fill-rule="evenodd" clip-rule="evenodd" d="M553.826 178.82c-18.836 1.701-28.258 2.549-28.264 2.543-1.394-3.531-2.346-6.97-2.856-10.318-.437-4.73.504-7.938 2.856-9.6 2.239-4.342 6.133-8.246 11.91-7.209 4.396-1.371 9.491.372 11.423 3.45 11.941.534 7.657 15.161 4.931 21.14v-.006z" fill="#651561"></path> <path fill-rule="evenodd" clip-rule="evenodd" d="M539.695 196.849c-7.773 0-14.133-6.349-14.133-14.109v-10.95c0-7.76 6.36-14.11 14.133-14.11 7.772 0 14.131 6.35 14.131 14.11v10.95c0 7.76-6.359 14.109-14.131 14.109z" fill="#FFD48C"></path> <path fill-rule="evenodd" clip-rule="evenodd" d="M524.961 166.396c5.16 2.011 10.661 2.254 16.503.728 6.147 3.889 11.572 4.364 16.273 1.425-3.051-1.408-4.884-3.19-5.534-5.361-2.106-3.353-4.659-5.016-7.658-4.99-8.7-2.56-15.098-.124-19.194 7.306l-.39.892z" fill="#6B1B67"></path> <path fill-rule="evenodd" clip-rule="evenodd" d="M545.808 195.439a13.979 13.979 0 0 1-6.133 1.408 14.008 14.008 0 0 1-6.896-1.798c-.113 1.702-.824 4.876-1.07 6.01 2.223 1.199 5.094 2.026 7.577 3.127 4.706-2.494 7.821-3.84 7.821-3.84-.325-1.199-1.25-3.703-1.299-4.909v.002z" fill="#F0C273"></path> <path d="M529.001 175.498a.181.181 0 0 1-.226-.128.169.169 0 0 1 .052-.193.164.164 0 0 1 .062-.034 10.954 10.954 0 0 1 3.683-.535c1.293.036 2.573.267 3.797.686a.204.204 0 0 1 .129.243.197.197 0 0 1-.099.106.196.196 0 0 1-.145.008 12.046 12.046 0 0 0-3.699-.665 10.74 10.74 0 0 0-3.554.518v-.006zM551.019 175.14a.172.172 0 0 1 .139.154.181.181 0 0 1-.009.073.217.217 0 0 1-.036.067.184.184 0 0 1-.059.048.183.183 0 0 1-.073.022.22.22 0 0 1-.076-.008 10.56 10.56 0 0 0-3.537-.519c-1.26.028-2.509.252-3.699.665a.19.19 0 1 1-.13-.356 12.903 12.903 0 0 1 3.814-.686 10.856 10.856 0 0 1 3.666.535v.005z" fill="#985E25"></path> <path fill-rule="evenodd" clip-rule="evenodd" d="M519.201 235.808c-2.661-1.215-5.565-3.061-8.744-5.539 1.151-9.931 2.302-19.537 3.634-25.595 0 0 5.22-1.831 17.296-7.321 3.434 6.72 12.704 5.409 16.03.08 12.33 6.301 17.409 8.149 17.409 8.149.86 5.28 2.028 14.334 3.311 23.957a45.339 45.339 0 0 1-8.714 5.815l-1.639-11.29.455 11.874c-12.547 5.604-25.067 5.787-37.562.549l.962-13.219-2.438 12.54z" fill="#F05213"></path> <path fill-rule="evenodd" clip-rule="evenodd" d="m558.011 229.879.228 6.059c-12.546 5.604-25.067 5.787-37.561.549l.471-6.61 36.862.002z" fill="#E11B18"></path> <path fill-rule="evenodd" clip-rule="evenodd" d="M557.249 216.595a57.031 57.031 0 0 0-.048-.582c.138 2.252.26 4.525.389 6.819.129 2.293.275 4.663.422 7.046h-36.863c.194-2.704.389-5.361.568-8.001.195-2.606.388-5.184.568-7.71h34.835c.05.792.081 1.603.129 2.428z" fill="#FDC600"></path> <path fill-rule="evenodd" clip-rule="evenodd" d="M529.311 198.292c.665-.309 1.362-.616 2.077-.939 3.434 6.72 12.704 5.409 16.03.08.632.324 1.25.648 1.865.94-3.585 7.905-15.868 8.601-19.972-.081z" fill="#E11B18"></path> <path fill-rule="evenodd" clip-rule="evenodd" d="m245.744 61.638 60.909.096-.032 14.013-60.91-.081.033-14.028z" fill="#E5E6E7"></path> <path fill-rule="evenodd" clip-rule="evenodd" d="m245.744 55.724 38.842.05-.016 4.017-38.826-.065v-4.002z" fill="#5A1C73"></path> <path fill-rule="evenodd" clip-rule="evenodd" d="m311.91 61.734 122.808.08-.033 14.03-122.823-.081.048-14.03zM245.711 84.85l60.909.082-.081 48.401-60.893-.081.065-48.401zM311.862 84.932l60.908.097-.081 48.402-60.892-.081.065-48.418z" fill="#E5E6E7"></path> <path fill-rule="evenodd" clip-rule="evenodd" d="m408.125 110.494-25.329 8.05a26.534 26.534 0 0 0 9.632 13.353 26.605 26.605 0 0 0 15.664 5.116c14.684.033 26.61-11.825 26.625-26.485a26.534 26.534 0 0 0-4.844-15.326 26.6 26.6 0 0 0-12.808-9.734l-8.94 25.026z" fill="#F05213"></path> <path fill-rule="evenodd" clip-rule="evenodd" d="m406.193 110.153-17.458-20.039a26.579 26.579 0 0 0-9.134 19.99 26.165 26.165 0 0 0 1.265 8.084l25.327-8.035z" fill="#E11B18"></path> <path fill-rule="evenodd" clip-rule="evenodd" d="m407.265 109.925.961-26.533c-.325 0-.617-.016-.926-.016a26.736 26.736 0 0 0-17.473 6.512l17.438 20.037z" fill="#FDC600"></path> <path fill-rule="evenodd" clip-rule="evenodd" d="m407.978 107.869 8.929-24.995a26.276 26.276 0 0 0-7.981-1.523l-.948 26.518z" fill="#F05213"></path> <path d="m249.166 96.578-.031 33.337 53.835.081v1.248l-54.469-.066h-.631v-.631l.048-33.969h1.248z" fill="#A7AAAC"></path> <path d="m248.225 125.591 3.18-1.572.326-.162.291.195 1.703 1.037 2.678-3.241.407-.502.486.421 3.163 2.721 5.646-8.099.422-.615.536.534 2.451 2.446 10.967-8.974.422-.356.405.389 6.053 5.734 10.741-24.201.308-.728.65.485 1.703 1.313 1.784-2.06.958.828-2.191 2.495-.389.452-.455-.371-1.557-1.183-10.773 24.298-.357.81-.65-.615-6.294-5.962-10.97 8.975-.453.356-.39-.406-2.32-2.3-5.613 8.051-.407.568-.519-.454-3.195-2.754-2.613 3.175-.357.421-.454-.291-1.883-1.15-2.888 1.425-.552-1.133z" fill="#F29C00"></path> <path d="m248.177 122.95 4.819-2.916.438-.275.356.405 3.49 3.953 3.78-8.457.033-.097.081-.08 5.808-6.335.227-.226.309.033 2.628.29 10.433-14.044.649-.858.438.972 5.631 12.294 10.999-8.828.293-.226.34.129 4.316 1.685-.454 1.166-3.991-1.539-11.358 9.104-.617.502-.34-.728-5.517-12.07-10.027 13.478-.211.292-.356-.032-2.679-.308-5.532 6.025-4.121 9.25-.405.891-.65-.728-3.796-4.293-4.349 2.64-.665-1.069z" fill="#E11B18"></path> <path d="m315.69 96.66-.048 33.353 53.85.065-.015 1.263-54.468-.08h-.633v-.632l.049-33.97h1.265z" fill="#A7AAAC"></path> <path d="m314.814 125.655 3.197-1.036.21-.081.211.097 1.834.745 2.742-2.203.324-.259.374.21 3.276 1.864 5.712-5.411.358-.34.421.274 2.532 1.669 11.08-5.977.326-.178.308.193 6.181 3.889 10.742-16.037.307-.469.504.259 1.817.923 1.866-1.41.763 1.005-2.175 1.652-.324.227-.341-.178-1.687-.842-10.774 16.068-.34.502-.52-.323-6.376-4.001-11.082 5.993-.34.179-.309-.212-2.434-1.603-5.679 5.378-.341.324-.405-.227-3.309-1.895-2.694 2.154-.276.243-.357-.145-1.963-.794-2.969.956-.39-1.183z" fill="#FDC600"></path> <path d="m314.683 123.258 4.804-3.094.47-.292.357.421 3.473 4.164 3.78-8.959.033-.081.065-.081 5.824-6.721.212-.26.339.048 2.613.308 10.432-14.903.65-.923.453 1.037 5.615 13.04 11-9.347.293-.26.357.146 4.315 1.782-.486 1.167-3.959-1.636-11.342 9.654-.648.551-.341-.778-5.517-12.797-10.011 14.303-.211.309-.373-.049-2.661-.324-5.532 6.398-4.138 9.817-.39.956-.665-.794-3.797-4.536-4.331 2.786-.683-1.052z" fill="#651561"></path> <path fill-rule="evenodd" clip-rule="evenodd" d="M454.025 88.706c19.617 0 35.599-15.956 35.599-35.541 0-19.585-15.982-35.54-35.599-35.54-19.616 0-35.597 15.977-35.597 35.54s15.999 35.54 35.597 35.54z" fill="#fff"></path> <path fill-rule="evenodd" clip-rule="evenodd" d="M453.701 85.79c17.799 0 32.337-14.515 32.337-32.285 0-17.77-14.538-32.284-32.337-32.284-17.799 0-32.336 14.498-32.336 32.284s14.52 32.285 32.336 32.285z" fill="#fff"></path> <path fill-rule="evenodd" clip-rule="evenodd" d="M443.593 47.657c-.049-4.049-.081-6.075-.081-6.075-1.882-.259-2.727.761-2.565 3.094.412 1.701 1.283 2.69 2.646 2.98zM464.458 47.657c.049-4.049.065-6.075.065-6.075 1.882-.259 2.748.761 2.58 3.094-.405 1.701-1.298 2.69-2.645 2.98z" fill="#F8CB7F"></path> <path fill-rule="evenodd" clip-rule="evenodd" d="m464.523 43.543-21.011 1.895a35.854 35.854 0 0 1-2.126-7.68c-.325-3.516.384-5.897 2.126-7.145 1.671-3.223 4.56-6.138 8.859-5.36 3.261-1.021 7.057.273 8.486 2.575 8.89.388 5.71 11.257 3.666 15.712v.003z" fill="#552F0E"></path> <path fill-rule="evenodd" clip-rule="evenodd" d="M454.025 56.956a10.564 10.564 0 0 1-7.423-3.087 10.528 10.528 0 0 1-3.09-7.41V38.31c0-5.76 4.737-10.48 10.513-10.48a10.534 10.534 0 0 1 7.415 3.078 10.498 10.498 0 0 1 3.083 7.402v8.148c0 5.76-4.721 10.498-10.498 10.498z" fill="#FFD48C"></path> <path fill-rule="evenodd" clip-rule="evenodd" d="M443.074 34.31c3.829 1.49 7.917 1.668 12.266.534 4.576 2.9 8.599 3.24 12.104 1.052-2.271-1.035-3.652-2.364-4.122-3.984-1.556-2.494-3.455-3.729-5.695-3.703-6.457-1.896-11.21-.081-14.261 5.443l-.292.657z" fill="#5D3716"></path> <path fill-rule="evenodd" clip-rule="evenodd" d="M458.585 55.903c-1.421.69-2.98 1.05-4.56 1.053-1.796 0-3.562-.463-5.127-1.344a22.61 22.61 0 0 1-.405 3.175 78.966 78.966 0 0 0 5.256 2.574l5.239-2.785a13.957 13.957 0 0 1-.405-2.673h.002z" fill="#F0C273"></path> <path fill-rule="evenodd" clip-rule="evenodd" d="M446.773 85.033c-.243-11.161.331-19.908 1.72-26.242l5.256 2.574 5.239-2.79.862 26.616a32.114 32.114 0 0 1-6.15.583 31.537 31.537 0 0 1-6.928-.745l.001.004z" fill="#fff"></path> <path d="M446.075 41.064a.136.136 0 1 1-.081-.259 8.261 8.261 0 0 1 2.726-.404c.966.035 1.923.21 2.839.518a.137.137 0 0 1 .078.072.137.137 0 0 1 .003.106.137.137 0 0 1-.178.081 9.257 9.257 0 0 0-2.748-.487 7.703 7.703 0 0 0-2.644.373h.005z" fill="#985E25"></path> <path fill-rule="evenodd" clip-rule="evenodd" d="m458.812 58.073 14.814 6.203 1.023 13.803a32.1 32.1 0 0 1-15.3 7.209c.861-17.511-.536-27.215-.536-27.215h-.001zM448.589 58.073l-14.812 6.203-1.027 13.818a32.281 32.281 0 0 0 15.317 7.194c-.876-17.511.518-27.215.518-27.215h.004z" fill="#010101"></path> <path d="M462.446 40.805a.136.136 0 0 1 .105.122.135.135 0 0 1-.035.103.141.141 0 0 1-.151.035 7.703 7.703 0 0 0-2.644-.374 9.263 9.263 0 0 0-2.748.487.137.137 0 0 1-.178-.08.138.138 0 0 1 .081-.178 10.062 10.062 0 0 1 2.839-.52 8.258 8.258 0 0 1 2.726.405h.005z" fill="#985E25"></path> <path fill-rule="evenodd" clip-rule="evenodd" d="M441.385 67.939a633.883 633.883 0 0 1 4.544 16.912c.825.193 1.649.356 2.498.502-.453-11.825-.431-20.68.066-26.566.162-.941.243-1.427.243-1.427a6984.243 6984.243 0 0 1-7.951 4.78 315.755 315.755 0 0 0 3.521 2.56c-1.947 2.169-2.921 3.239-2.921 3.239zM466.064 67.939a640.619 640.619 0 0 0-4.542 16.895c-.812.195-1.649.373-2.499.502.458-11.808.436-20.658-.065-26.55-.162-.94-.243-1.426-.243-1.426 5.305 3.191 7.961 4.785 7.968 4.78-2.354 1.716-3.521 2.56-3.521 2.56a420.96 420.96 0 0 0 2.904 3.239h-.002z" fill="#5A1C73"></path> <path fill-rule="evenodd" clip-rule="evenodd" d="m451.754 85.719 1.039-21.577s-.293-.226-.893-.664c0 0 .275-.875.812-2.606.648-.048.973-.08.973-.08s.324.032.99.08c.534 1.734.795 2.606.795 2.606-.585.438-.893.664-.893.664l1.039 21.577a38.48 38.48 0 0 1-3.862 0z" fill="#781F82"></path> </svg> 