<?xml version="1.0" encoding="UTF-8"?> <svg xmlns="http://www.w3.org/2000/svg" width="1811" height="521" viewBox="0 0 1811 521" fill="none"> <path fill-rule="evenodd" clip-rule="evenodd" d="M890.587 3.39559C889.679 4.49079 889.623 7.70479 890.389 14.8622C891.984 29.7654 893.583 45.6285 894.987 60.4858C896.503 76.5323 896.602 76.8265 900.508 76.8265C906.028 76.8265 906.258 75.4349 903.95 56.0457C902.783 46.2482 901.221 31.1839 900.478 22.57C898.729 2.27691 895.963 -3.08275 890.587 3.39559ZM985.252 17.8155C984.24 18.5852 982.35 23.2412 981.052 28.1634C979.754 33.0857 975.703 47.5683 972.049 60.346C964.592 86.4316 964.27 88.7641 967.925 90.1793C972.167 91.8215 973.95 88.5079 979.326 68.9957C982.123 58.8436 985.933 45.2515 987.793 38.791C992.749 21.5777 992.993 19.7229 990.538 17.9274C987.997 16.0693 987.56 16.0603 985.252 17.8155ZM1516.64 20.8852C1507.86 21.9793 1492.3 26.3769 1492.3 27.7674C1492.3 28.2932 1491.41 28.7228 1490.32 28.7228C1479.53 28.7228 1447.49 52.1874 1408.81 88.4184C1371.55 123.318 1348.95 135.501 1286.12 154.558C1277.19 157.267 1275.77 157.419 1270.95 156.182C1265.34 154.745 1259.6 155.751 1228.34 163.649C1211.66 167.866 1212.72 168.622 1208.76 149.75C1202.93 122.016 1190.51 115.265 1158.94 122.666C1153.09 124.035 1147.26 125.401 1145.97 125.7C1143.84 126.193 1143.43 125.345 1141.49 116.428C1136.01 91.1805 1112.38 84.3072 1106.85 106.349C1106.07 109.438 1104.51 110.07 1091.26 112.634C1087.57 113.348 1082.03 114.605 1078.95 115.426C1075.88 116.248 1067.32 118.266 1059.94 119.911C1045.91 123.036 1032.53 126.134 1011.85 131.044C992.702 135.591 989.472 138.907 990.451 153.011L991.041 161.515L979.623 164.011C936.752 173.38 925.902 176.316 920.441 180.025C904.405 190.914 913.39 207.421 934.034 205C939.361 204.375 954.927 200.883 987.155 193.083C992.041 191.901 996.458 190.933 996.971 190.933C998.405 190.933 1000.01 195.974 1002.34 207.811C1003.51 213.753 1005.25 221.574 1006.2 225.191C1010.1 240.054 1019.1 280.338 1019.1 282.905C1019.1 286.215 1018.49 286.427 992.256 292.127C945.027 302.387 932.417 310.57 943.513 323.758C950.595 332.173 958.812 331.684 1004.65 320.115C1010.54 318.627 1018.09 317.091 1021.43 316.701L1027.49 315.991L1028.89 321.916C1030.54 328.923 1034.33 333.305 1040.27 335.088C1045.47 336.643 1046.9 336.362 1116.43 320.188C1122.89 318.685 1133.67 316.187 1140.38 314.638L1152.59 311.821L1156.76 315.586C1170.95 328.412 1191.89 308.759 1181.58 292.281C1180.61 290.735 1180.11 288.745 1179.42 283.678C1178.79 279.037 1179.58 278.692 1198.65 275.313C1222.08 271.162 1234.04 256.485 1228.44 238.777C1227.81 236.766 1227.31 233.863 1227.35 232.325C1227.38 230.787 1226.54 226.395 1225.48 222.564C1223.13 214.048 1223.58 212.676 1229.04 211.725C1231.4 211.315 1235.85 210.283 1238.92 209.433C1242 208.583 1248.54 207.069 1253.46 206.068C1273.99 201.896 1276.61 200.924 1282.57 195.289C1286.64 191.436 1289.72 189.601 1293.76 188.608C1308.12 185.082 1340.74 173.496 1357.5 165.968C1388.01 152.264 1399.95 143.677 1441.99 105.162C1493.51 57.9755 1521.09 46.3937 1549.87 59.8638C1557.33 63.3553 1561.89 67.566 1585.71 92.9748C1614.63 123.828 1646.22 146.138 1680.79 160.123C1686.33 162.363 1691.87 164.649 1693.1 165.204C1699.62 168.144 1731.33 175.233 1738.06 175.256C1740.63 175.265 1745.92 175.984 1749.8 176.855C1756.72 178.407 1775.69 179.167 1798.53 178.808L1810 178.628L1810 173.873L1810 169.119L1780.63 169.049C1748.78 168.974 1743.53 168.41 1718.58 162.391C1666.43 149.807 1625.81 124.266 1583.4 77.3859C1539.24 28.5762 1506.1 33.635 1433.64 100.242C1384.22 145.671 1367.29 155.582 1304.72 175.721C1289.44 180.638 1290.24 180.644 1289.29 175.59C1288.86 173.304 1287.82 170.106 1286.99 168.484C1285.38 165.382 1286.46 162.966 1289.45 162.966C1291.42 162.966 1329.02 150.349 1337.92 146.701C1370.82 133.221 1385.68 122.815 1426.9 84.3967C1454.37 58.7932 1471.37 46.6666 1494.54 36.1475C1528.24 20.8438 1561.9 29.6535 1590.9 61.3718C1622.44 95.8655 1634.6 106.138 1665.13 124.093C1684.94 135.744 1721.21 148.537 1738.96 150.139C1741.43 150.362 1748.47 151.094 1754.63 151.769C1760.78 152.443 1775.63 152.847 1787.63 152.667L1809.44 152.338L1809.77 147.863L1810.1 143.389L1787.4 143.751C1732.42 144.63 1694.05 133.373 1649.47 103.29C1632.82 92.053 1621.03 80.9993 1595.84 53.0018C1572.55 27.1029 1547.68 17.019 1516.64 20.8852ZM0 28.5203V34.0388L7.55099 37.999C11.7046 40.176 20.136 43.9594 26.2886 46.406C36.9115 50.6301 43.2263 52.5688 89.4932 65.8085C227.733 105.368 265.097 150.45 251.605 261.411C242.749 334.234 253.104 360.631 297.859 379.33C306.528 382.951 326.213 385.587 344.465 385.568C374.743 385.537 398.659 380.944 446.347 366.002C451.577 364.363 458.373 362.314 461.449 361.45C464.526 360.584 469.811 358.896 473.195 357.698C482.145 354.528 514.037 345.261 518.473 344.541C522.126 343.949 522.295 344.081 523.058 348.151C523.494 350.474 524.521 353.669 525.341 355.25C527.254 358.937 526.937 359.174 516.264 362.048C505.773 364.873 492.304 368.871 478.229 373.337C472.692 375.094 460.61 378.862 451.381 381.71C442.152 384.559 431.581 387.833 427.889 388.986C379.039 404.252 313.638 406.449 289.055 393.651C287.891 393.045 282.982 390.605 278.147 388.228C254.28 376.496 240.447 357.627 233.562 327.413C231.54 318.546 232.206 284.98 234.781 265.885C243.317 202.597 239.403 179.657 214.851 149.063C191.642 120.142 155.689 101.766 79.9845 80.1256C40.8357 68.9342 17.5809 61.0865 5.6459 55.0389L0 52.1773V57.2147C0 64.6384 16.4175 71.6235 69.9166 86.9619C112.669 99.2183 126.69 103.823 145.426 111.758C198.109 134.069 227.316 168.137 230.049 210.463C230.63 219.46 230.411 222.204 225.947 261.97C220.469 310.766 223.388 339.441 236.032 360.995C256.68 396.195 295.457 412.869 352.244 410.967C387.191 409.797 402.572 406.662 457.534 389.504C525.625 368.248 532.109 366.555 542.644 367.29C548.004 367.665 553.518 367.278 558.214 366.2C562.213 365.281 572.281 363.017 580.587 361.169C588.893 359.321 596.515 357.482 597.525 357.081C599.063 356.471 599.769 358.134 601.881 367.334C603.267 373.373 604.839 380.158 605.376 382.412C609.931 401.56 625.684 407.784 652.869 401.175L668.205 397.447L669.924 400.185C682.268 419.864 684.276 419.89 763.489 401.343C768.411 400.191 777.316 398.123 783.278 396.747L794.117 394.245L798.791 398.246C814.793 411.943 828.639 397.165 822.882 372.53C821.326 365.866 817.764 350.347 814.969 338.041C812.172 325.735 808.638 310.381 807.116 303.921C800.258 274.834 790.421 232.043 788.6 223.375C781.201 188.172 780.556 186.257 774.172 180.489C765.244 172.423 755.056 175.189 749.427 187.208C747.494 191.336 746.634 192.006 741.942 193.043C739.026 193.687 730.097 195.766 722.098 197.661C714.1 199.557 703.78 201.845 699.166 202.745C694.551 203.647 689.897 204.884 688.824 205.495C687.75 206.107 682.967 207.173 678.196 207.866C673.425 208.558 668.941 209.583 668.234 210.141C667.526 210.7 663.81 211.664 659.975 212.281C650.151 213.863 637.659 221.601 637.632 226.119C637.628 226.764 636.812 228.801 635.819 230.647C634.826 232.493 633.949 236.069 633.868 238.595C633.708 243.686 633.035 244.056 618.622 246.994C615.238 247.683 611.966 248.61 611.35 249.051C610.735 249.492 607.271 250.492 603.652 251.271C589.115 254.401 577.708 274.276 583.823 285.816C584.933 287.91 588.79 309.516 588.166 310.14C587.748 310.557 572.387 314.403 555.234 318.386C537.494 322.504 534.239 323.772 529.594 328.382C526.285 331.667 523.297 333.278 517.383 334.967C513.076 336.197 498.477 340.565 484.941 344.673C471.405 348.779 458.065 352.811 455.297 353.631C452.528 354.45 440.95 357.981 429.567 361.475C411.426 367.045 393.844 371.4 376.99 374.499C317.507 385.438 268.246 365.248 260.049 326.57C257.414 314.129 259.121 254.296 262.258 249.218C263.781 246.75 265.129 213.676 264.109 203.766C256.944 134.125 208.254 90.9746 101.239 59.4242C92.1142 56.7337 86.4281 55.1452 65.4419 49.4219C40.046 42.4972 17.3337 33.7088 4.75433 25.9395L0 23.0029V28.5203ZM800.542 27.452C798.825 29.3493 798.811 29.827 800.37 32.7658C801.312 34.5411 805.628 43.5454 809.96 52.7747C831.193 98.0022 832.437 99.8246 837.052 92.4468C838.171 90.658 838.383 91.1603 821.43 55.5714C817.18 46.6498 812.259 36.2046 810.493 32.3585C807.004 24.7593 804.222 23.3866 800.542 27.452ZM724.546 78.8312C721.185 82.5453 722.305 83.9795 747.957 108.821C774.195 134.229 775.79 135.456 778.237 132.11C780.755 128.666 780.337 128.142 754.525 102.451C727.797 75.8499 727.473 75.596 724.546 78.8312ZM1127.45 105.738C1129.56 107.997 1130.97 111.481 1132.33 117.764C1133.37 122.628 1135.54 132.146 1137.13 138.914C1138.73 145.682 1141.07 156.254 1142.33 162.406C1143.6 168.559 1145.02 174.097 1145.5 174.712C1145.98 175.327 1146.97 179.606 1147.69 184.221C1148.9 191.886 1151.13 201.086 1155.02 214.426C1155.83 217.194 1157.08 222.48 1157.81 226.172C1158.53 229.864 1159.82 235.401 1160.67 238.477C1161.53 241.554 1162.76 247.595 1163.41 251.902C1164.06 256.209 1165.8 264.515 1167.26 270.36C1168.73 276.205 1170.28 283.202 1170.71 285.908C1171.14 288.614 1172.19 292.499 1173.05 294.542C1176.28 302.279 1173.65 310.633 1167.98 310.633C1162.49 310.633 1160.21 307.615 1157.81 297.209C1156.61 291.979 1154.3 281.911 1152.69 274.835C1151.07 267.759 1148.26 255.677 1146.44 247.986C1144.62 240.295 1141.91 228.213 1140.43 221.138C1138.94 214.062 1136.72 204.793 1135.49 200.539C1134.27 196.286 1132.97 190.748 1132.61 188.234C1132.25 185.719 1131.25 180.893 1130.4 177.509C1129.54 174.125 1127.83 166.825 1126.58 161.288C1125.33 155.75 1123.29 146.941 1122.03 141.711C1115.05 112.537 1114.68 108.757 1118.41 104.514C1120.9 101.678 1124.06 102.104 1127.45 105.738ZM1108.55 123.634C1109.19 125.998 1110.18 130.402 1110.77 133.422C1111.35 136.443 1113.88 147.724 1116.38 158.491C1118.88 169.258 1121.74 181.592 1122.73 185.899C1123.72 190.206 1125.06 194.988 1125.69 196.527C1126.33 198.065 1126.74 200.027 1126.59 200.887C1126.44 201.747 1127.61 207.788 1129.18 214.312C1133.52 232.319 1139.84 259.413 1142.91 273.157C1144.42 279.925 1146.1 287.476 1146.66 289.937C1147.21 292.398 1148.17 296.12 1148.79 298.207C1150.23 303.035 1149.91 303.469 1144.22 304.377C1141.64 304.791 1133.2 306.626 1125.46 308.456C1117.72 310.285 1106.86 312.832 1101.33 314.117C1079.12 319.264 1068.44 321.761 1059.14 323.975C1038.41 328.908 1039.58 330.208 1031.47 293.293C1030.25 287.756 1027.99 277.688 1026.43 270.92C1022.25 252.762 1021.3 254.516 1037.28 250.891C1060.76 245.564 1075.43 242.187 1079.79 241.108C1084.65 239.905 1085.09 237.745 1082.42 228.333C1081.55 225.298 1080 218.883 1078.97 214.076C1076.47 202.431 1077.75 202.384 1021.43 216.184C1014.42 217.9 1013.98 217.76 1013.16 213.6C1012.83 211.901 1011.04 203.966 1009.18 195.967C998.723 150.966 998.565 150.179 999.357 147.023C1000.26 143.435 1002.54 142.513 1020.78 138.362C1029.4 136.404 1041.48 133.628 1047.63 132.194C1053.78 130.761 1065.86 127.971 1074.48 125.994C1083.09 124.017 1092.66 121.744 1095.73 120.942C1105.57 118.378 1107.23 118.726 1108.55 123.634ZM1184.84 129.433C1192.11 131.453 1196.27 137.493 1199.14 150.196C1200.52 156.296 1202.58 164.308 1203.72 168C1204.86 171.692 1206.8 179.998 1208.05 186.458C1212.15 207.809 1216.19 225.262 1220.66 240.899C1222.41 247.007 1220.58 253.326 1215.41 259.049C1211.3 263.592 1209.36 264.363 1191.23 268.66C1175.81 272.311 1175.72 272.307 1175.7 267.843C1175.7 265.843 1174.92 261.439 1173.98 258.055C1169.79 243.041 1167.96 235.752 1166.69 228.969C1165.94 224.969 1164.98 221.194 1164.55 220.578C1164.12 219.963 1163.17 215.684 1162.43 211.07C1160.86 201.17 1155.8 178.155 1154.33 174.137C1153.76 172.59 1153.07 169.569 1152.8 167.425C1152.54 165.28 1151.05 157.988 1149.51 151.22C1145.68 134.453 1145.38 135.599 1154.18 133.294C1172.81 128.416 1178.56 127.691 1184.84 129.433ZM1183.27 159.699C1180.88 161.091 1180.82 162.563 1182.99 166.729C1183.91 168.492 1184.68 171.261 1184.69 172.882C1184.71 174.504 1185.71 180.11 1186.93 185.34C1188.14 190.57 1190.65 201.636 1192.49 209.931C1197.44 232.154 1197.59 232.519 1201.83 232.108C1207.18 231.589 1205.94 221.817 1195.32 180.865C1193.8 175.02 1192.25 168.224 1191.86 165.763C1190.78 158.806 1188.07 156.899 1183.27 159.699ZM1166.25 164.477C1163.92 166.176 1164.25 171.862 1167.28 182.464C1168.18 185.584 1169.63 191.157 1170.52 194.849C1171.41 198.54 1173.38 206.343 1174.9 212.188C1176.43 218.033 1178.03 224.954 1178.47 227.567C1178.91 230.18 1180.2 233.452 1181.34 234.838L1183.41 237.359L1185.77 235.037C1187.99 232.848 1188.04 232.432 1186.54 227.766C1185.67 225.043 1184.32 219.04 1183.54 214.426C1182.77 209.811 1181 201.001 1179.62 194.849C1178.23 188.696 1176.77 181.648 1176.36 179.187C1174.37 167.126 1170.44 161.412 1166.25 164.477ZM1273.08 166.9C1281.67 171.345 1282.21 185.692 1273.96 190.646C1270.67 192.626 1257.3 196.282 1246.19 198.24C1244.04 198.62 1240.77 199.603 1238.92 200.424C1237.08 201.245 1232.23 202.265 1228.16 202.693L1220.76 203.468L1219.35 195.802C1218.57 191.586 1217.52 187.608 1217.01 186.962C1216.5 186.316 1215.76 183.748 1215.36 181.253C1214.5 175.85 1213.86 176.207 1231.09 172.384C1237.86 170.883 1247.42 168.697 1252.35 167.526C1263.47 164.881 1268.86 164.719 1273.08 166.9ZM994.651 175.843C995.62 181.601 996.447 181.126 978.273 185.237C969.659 187.184 957.577 190.012 951.425 191.52C931.525 196.398 921.78 196.571 921.78 192.048C921.78 189.766 929.114 184.837 934.085 183.778C935.623 183.45 944.936 181.328 954.781 179.062C996.501 169.459 993.616 169.692 994.651 175.843ZM768.942 187.423C771.588 190.346 772.216 192.629 780.355 228.969C781.25 232.968 784.267 246.057 787.058 258.055C789.849 270.053 793.399 285.407 794.946 292.175C796.493 298.943 798.94 309.514 800.385 315.667C810.647 359.363 815.49 381.743 815.499 385.497C815.539 404.458 801.506 392.978 797.143 370.483C795.625 362.659 792.065 346.718 791.521 345.313C791.165 344.39 789.664 338.097 788.189 331.329C785.687 319.85 782.715 306.802 777.365 283.784C774.901 273.192 771.512 258.284 766.424 235.681C764.555 227.375 761.746 215.05 760.181 208.293C755.625 188.619 760.189 177.749 768.942 187.423ZM750.774 209.477C751.779 213.736 754.199 224.27 756.151 232.884C758.105 241.498 760.906 253.58 762.376 259.733C765.058 270.958 768.593 286.349 773.039 306.158C774.351 312.003 776.6 321.82 778.037 327.973C779.475 334.126 781.485 342.935 782.504 347.55C783.524 352.165 784.796 357.45 785.332 359.296C787.634 367.236 791.177 384.559 790.614 385.121C789.874 385.862 780.506 388.219 766.845 391.102C761.307 392.271 748.974 395.052 739.438 397.282C729.901 399.513 718.826 402.056 714.827 402.932C710.828 403.809 705.797 405.046 703.648 405.683C691.445 409.297 680.512 403.601 676.888 391.738C676.325 389.892 674.285 381.334 672.356 372.72C670.426 364.107 668.131 354.29 667.253 350.906C666.376 347.522 664.653 339.971 663.422 334.126C662.191 328.28 658.641 312.675 655.532 299.446C652.423 286.218 649.307 272.626 648.605 269.242C647.905 265.857 646.985 262.837 646.563 262.529C646.14 262.222 645.503 259.705 645.149 256.936C644.794 254.167 643.952 248.736 643.277 244.866C640.995 231.774 648.267 222.749 662.809 220.627C665.885 220.177 668.945 219.364 669.607 218.819C670.271 218.274 674.527 217.302 679.068 216.657C683.608 216.014 687.596 215.123 687.931 214.676C688.703 213.648 690.996 213.027 695.25 212.696C698.974 212.405 710.696 209.963 724.336 206.635C751.435 200.024 748.468 199.705 750.774 209.477ZM1071.5 223.781C1073.36 233.353 1074.85 232.339 1050.99 237.811C1039.91 240.35 1028.84 242.901 1026.38 243.479C1021.04 244.737 1020.96 244.663 1018.67 236.627C1015.83 226.655 1015.18 227.307 1031.69 223.433C1039.84 221.52 1050.54 218.988 1055.46 217.806C1069.29 214.488 1069.72 214.649 1071.5 223.781ZM636.632 257.216C637.356 259.83 639.083 267.508 640.469 274.276C641.855 281.044 645.838 298.915 649.318 313.989C652.798 329.064 656.625 345.676 657.821 350.906C659.018 356.136 661.433 366.628 663.189 374.221L666.382 388.026L664.036 388.978C645.7 396.418 626.734 396.398 619.614 388.933C615.289 384.398 615.464 384.959 607.474 349.787C605.587 341.481 603.245 331.413 602.269 327.413C599.195 314.814 598.631 312.453 597.327 306.718C596.627 303.641 595.337 298.607 594.461 295.531C590.614 282.026 591.562 271.408 597.195 264.951C599.865 261.889 614.791 255.52 617.392 256.332C618.377 256.639 622.201 255.94 625.893 254.778C635.139 251.867 635.152 251.87 636.632 257.216ZM625.38 288.208C623.563 289.357 624.54 295.558 630.41 320.142C632.026 326.91 634.524 337.815 635.961 344.375C639.219 359.245 640.204 361.217 644.146 360.762C648.152 360.299 648.627 355.013 645.655 343.941C644.454 339.465 641.595 327.497 639.302 317.345C632.084 285.383 631.564 284.296 625.38 288.208ZM607.68 292.241C605.707 293.623 605.423 294.421 606.312 296.082C606.929 297.237 607.446 299.347 607.461 300.771C607.474 302.196 609.51 311.92 611.986 322.379C614.46 332.839 617.533 346.18 618.814 352.025C621.319 363.458 622.286 365.449 625.334 365.449C630.996 365.449 630.794 361.329 623.651 331.329C622.187 325.176 619.63 314.353 617.97 307.277C613.794 289.484 613.088 288.453 607.68 292.241ZM1023.36 300.739L1023.69 305.949L1012.73 308.395C1006.7 309.74 996.982 311.999 991.137 313.415C961.481 320.598 958.404 321.077 953.925 319.206C944.842 315.41 952.177 311.056 977.734 305.073C988.49 302.555 1002.07 299.284 1007.92 297.804C1022.3 294.161 1022.94 294.283 1023.36 300.739ZM592.102 324.625C592.633 327.081 594.056 333.057 595.262 337.903C597.801 348.103 597.99 347.709 589.727 349.429C575.221 352.45 557.44 356.572 554.411 357.617C542.615 361.689 532.485 355.384 532.485 343.971C532.485 335.638 537.216 331.876 551.849 328.577C556.887 327.441 565.793 325.444 571.638 324.138C577.483 322.832 583.524 321.321 585.062 320.78C589.705 319.146 591.078 319.896 592.102 324.625ZM1039.28 391.143C1035.97 394.45 1035.02 393.228 1061.03 419.145C1089.66 447.677 1095.17 451.191 1095.17 440.9C1095.17 435.402 1042.18 388.235 1039.28 391.143ZM983.916 428.481C980.989 430.621 980.392 428.651 997.069 471.966C1007.31 498.554 1007.32 498.573 1010.62 498.573C1015.48 498.573 1016.41 495.827 1013.75 489.289C1011.18 482.978 998.085 448.804 993.726 437.045C990.253 427.68 987.864 425.593 983.916 428.481ZM844.176 435.019C843.254 436.441 841.916 440.122 841.201 443.198C840.488 446.274 838.717 452.567 837.268 457.182C824.124 499.052 823.003 505.677 829.167 505.077C833.164 504.688 832.942 505.257 843.94 467.25C846.166 459.559 849.085 449.58 850.427 445.074C852.229 439.024 852.56 436.392 851.692 435.006C849.85 432.066 846.085 432.073 844.176 435.019ZM916.369 445.867C914.775 446.868 914.496 502.899 916.027 514.794C916.688 519.931 917.01 520.418 919.98 520.757C924.718 521.297 925.12 519.723 924.509 503.048C924.205 494.742 923.805 478.761 923.62 467.536C923.436 456.311 923.072 446.935 922.812 446.7C921.517 445.531 917.691 445.036 916.369 445.867Z" fill="#661661"></path> </svg> 