<?xml version="1.0" encoding="UTF-8"?> <svg xmlns="http://www.w3.org/2000/svg" width="514" height="361" viewBox="0 0 514 361" fill="none"><path opacity="0.05" fill-rule="evenodd" clip-rule="evenodd" d="M182.883 0.98858C179.896 1.19827 175.564 1.80874 173.255 2.3467C161.482 5.0884 159.345 5.63224 155.328 6.9149C148.834 8.98735 135.922 14.4041 123.408 20.304C110.65 26.3195 104.075 28.9514 95.0002 31.6765C83.7206 35.063 79.9466 35.7979 67.8454 36.9659L55.9961 38.1104L55.69 42.3317C55.0698 50.8626 60.724 59.461 68.661 62.0606C70.5599 62.6819 72.3185 63.7206 72.5684 64.3683C72.9278 65.3011 58.52 103.218 54.6215 111.6C54.1199 112.678 50.9403 120.615 47.5544 129.238C44.1684 137.861 40.818 146.239 40.1071 147.856C39.3971 149.473 36.3489 157.124 33.3332 164.859C30.3175 172.594 27.2357 180.311 26.4833 182.007C25.7309 183.703 23.0272 190.383 20.4757 196.85C17.9231 203.317 15.4693 209.491 15.022 210.568C14.5747 211.646 13.9605 213.3 13.6564 214.243C13.2278 215.575 12.0004 215.958 8.15828 215.958C3.98237 215.958 2.96332 216.336 1.60657 218.391L0 220.825L1.68064 228.435C7.43942 254.506 30.7066 277.495 57.4772 283.563C60.4643 284.24 64.1968 285.179 65.7708 285.652C85.3548 291.519 122.708 280.797 139.979 264.351C148.042 256.675 158.197 241.394 158.197 236.941C158.197 236.164 158.589 234.763 159.068 233.827C160.08 231.849 162.146 223.463 162.146 221.333C162.146 218.401 158.382 215.958 153.862 215.958H149.527L147.443 211.559C146.298 209.14 145.36 206.775 145.36 206.304C145.36 205.248 139.835 191.606 138.461 189.27C137.911 188.334 137.46 187.116 137.46 186.564C137.46 186.012 136.598 183.691 135.546 181.406C133.119 176.142 107.837 113.393 107.837 112.634C107.837 112.324 106.904 109.98 105.763 107.425C104.624 104.872 103.335 101.9 102.902 100.822C102.468 99.7439 101.469 97.3187 100.681 95.4324C87.2082 63.1699 87.2803 63.7676 96.7578 62.6466C99.8643 62.2791 103.961 61.5883 105.862 61.1101C189.032 40.2132 208.369 40.7531 236.902 64.7739C240.403 67.7214 243.417 69.982 243.601 69.7988C243.784 69.6155 245.314 67.74 247.002 65.6303L250.07 61.7961L247.828 59.4061C233.99 44.6579 211.907 35.4833 188.807 34.8866C174.853 34.526 169.719 35.0267 153.259 38.3505C149.186 39.1726 144.521 40.0359 142.891 40.2691C141.262 40.5023 139.04 41.0735 137.954 41.539C136.868 42.0044 134.646 42.5875 133.017 42.8354C131.388 43.0823 123.918 44.8657 116.416 46.796C91.2459 53.277 72.3798 54.7017 71.5039 50.1874C71.2689 48.9792 72.2317 48.4364 75.4438 47.967C92.0299 45.5408 112.722 38.4769 134.992 27.6384C150.058 20.305 161.192 16.5491 177.774 13.2038C201.061 8.50623 235.974 16.8548 250.686 30.6378C255.025 34.7033 257.259 34.379 266.374 28.3606C300.562 5.78608 335.422 6.21135 384.322 29.801C401.097 37.8929 421.737 45.4585 427.041 45.4585C431.102 46.4154 438.575 46.7556 441.731 49.2957L444.062 51.1722L441.1 51.9904C432.472 54.3715 410.203 50.7685 376.422 41.5253C374.521 41.0059 368.078 39.6645 362.104 38.5445C356.13 37.4254 349.379 36.0977 347.102 35.594C323.932 30.4752 293.857 37.6871 273.274 53.2976C254.838 67.2795 237.355 97.4578 231.267 125.809C230.63 128.773 229.731 132.741 229.27 134.628C225.991 148.038 225.236 181.689 227.74 202.949C230.118 223.157 231.769 230.701 237.768 248.784C244.182 268.117 244.593 268.497 249.009 259.141L251.319 254.248L248.273 244.656C239.154 215.934 234.773 175.519 238.225 151.965C241.147 132.032 242.97 124.336 248.366 109.151C264.223 64.5378 299.895 40.4445 341.102 46.5158C355.696 48.6666 381.485 54.1687 398.146 58.6859C402.574 59.8873 422.995 64.0762 424.42 64.0762C425.514 64.0762 424.433 67.8449 420.984 76.0484C418.88 81.0507 414.605 91.5374 411.481 99.352C400.654 126.443 390.437 153.958 378.713 180.682C376.834 184.966 376.72 185.245 370.483 201.015C367.658 208.156 365.284 214.025 365.207 214.059C365.13 214.092 363.067 214.346 360.623 214.621C349.227 215.907 350.461 232.091 363.44 251.555C402.271 309.786 504.49 291.034 513.188 224.084L513.851 218.981L514 215.6C513.851 212.671 510.71 213.134 508.74 213.508C505.444 214.133 499.853 213.499 499.853 211.22C495.409 200.77 490.034 186.165 485.921 177.018C484.894 174.733 484.054 172.611 484.054 172.3C484.054 171.867 471.107 139.067 466.284 127.279C465.842 126.201 462.05 116.72 457.857 106.211C453.663 95.7019 449.658 85.7806 448.956 84.1638C448.255 82.547 446.929 79.2399 446.01 76.8147C445.091 74.3895 443.663 70.8933 442.837 69.0452C441.13 65.2335 442.016 62.7936 445.283 62.3085C451.44 61.3933 457.899 52.3138 458.999 43.0255L459.603 37.9281L449.364 37.349C437.915 36.7023 434.204 35.9517 417.895 30.9876C405.521 27.222 403.53 26.4116 385.501 17.8004C370.879 10.8162 355.825 6.57823 340.38 2.03607C320.736 -3.74326 283.681 3.29228 263.257 16.6784C256.944 20.8165 257.333 20.8459 249.079 15.5957C230.791 3.9635 209.018 -0.841837 182.883 0.98858ZM81.5887 80.3491C82.4478 80.6764 83.1508 81.4133 83.1508 81.9875C83.1508 83.1947 87.2339 93.5795 90.6643 101.096C91.9628 103.941 93.0253 106.703 93.0253 107.233C93.0253 107.763 93.4795 108.964 94.0344 109.899C94.9992 111.526 109.422 147.105 114.264 159.804C115.537 163.142 117.229 167.331 118.024 169.113C118.819 170.895 120.222 174.337 121.141 176.763C122.059 179.188 123.405 182.495 124.133 184.112C124.86 185.728 127.079 191.24 129.067 196.36C131.055 201.48 133.341 207.119 134.147 208.893C134.955 210.665 135.469 212.87 135.29 213.792L134.965 215.468L80.9152 215.722L26.8664 215.974V214.013C26.8664 211.907 33.5159 194.525 34.9121 192.98C35.3752 192.467 35.7534 191.123 35.7534 189.991C35.7534 188.859 36.1326 187.515 36.5967 187.002C37.0598 186.491 41.3404 176.15 46.1078 164.024C50.8752 151.898 55.1617 141.558 55.6327 141.046C56.1037 140.534 56.4898 139.389 56.4898 138.502C56.4898 137.614 57.1237 135.609 57.8989 134.044C59.1618 131.494 73.2566 96.1791 77.709 84.4088C78.6767 81.8483 79.595 79.7543 79.7481 79.7543C79.9011 79.7543 80.7296 80.0218 81.5887 80.3491ZM439.22 91.5129C441.676 97.7107 444.062 103.663 444.522 104.741C444.982 105.819 446.104 108.685 447.014 111.111C447.923 113.536 449.255 116.843 449.973 118.46C452.039 123.112 460.355 144.276 460.355 144.881C460.355 145.182 461.186 147.297 462.204 149.582C465.388 156.739 475.17 181.136 475.169 181.918C475.168 182.327 476.1 184.752 477.24 187.307C480.577 194.781 482.495 199.47 486.041 208.836C488.499 215.324 491.501 214.974 434.032 214.906C371.645 214.834 376.211 216.059 383.093 201.248C384.725 197.738 386.757 192.887 387.609 190.469C388.462 188.051 390.684 182.323 392.547 177.742C394.411 173.161 402.669 152.657 410.9 132.178C419.13 111.698 426.248 94.0606 426.716 92.9827C429.642 86.2539 430.587 83.9149 431.2 81.9032C432.518 77.5731 434.761 80.2619 439.22 91.5129ZM268.043 91.7579C267.5 92.432 266.127 94.8102 264.993 97.0443L262.931 101.106L265.178 106.843C267.462 112.678 270.34 122.756 273.251 135.118C281.285 169.24 274.746 229.332 259.564 260.889C241.371 298.703 219.984 315.247 185.845 317.915C155.593 320.28 141.02 331.091 138.717 352.877C137.774 361.802 125.733 360.98 257.45 360.98H374.236L374.835 359.43C376.834 354.261 374.15 341.969 369.655 335.705C361.574 324.443 350.099 319.564 327.732 317.879C304.015 316.093 288.286 308.164 273.426 290.502L270.656 287.209L268.982 289.49C268.062 290.745 266.485 293.018 265.477 294.541L263.645 297.311L270.414 303.976C287.878 321.168 307.956 329.624 331.314 329.624C335.434 329.624 340.05 330.12 341.568 330.726C343.087 331.332 345.219 332.169 346.305 332.586C354.835 335.859 358.835 338.892 361.566 344.154C364.346 349.509 370.264 349.222 257.03 349.222C190.445 349.222 152.173 348.876 151.796 348.27C150.288 345.85 161.127 333.543 164.767 333.543C165.513 333.543 166.895 333.156 167.838 332.684C171.999 330.598 177.123 329.624 183.94 329.624C233.796 329.623 273.468 284.885 284.737 215.958C292.156 170.575 288.053 130.263 272.34 94.2076C270.648 90.3233 269.658 89.7589 268.043 91.7579ZM147.69 230.344C146.869 248.857 118.459 271.046 90.8104 274.768C57.3963 279.268 18.6509 256.979 14.4374 230.834L13.7749 226.723L80.8017 226.975L147.829 227.226L147.69 230.344ZM499.853 229.31C499.853 230.726 498.478 234.583 496.798 237.884C471.591 287.392 391.377 286.221 368.435 236.01C363.78 225.822 357.397 226.736 433.17 226.736H499.853V229.31Z" fill="#15477F"></path></svg> 