<?xml version="1.0" encoding="UTF-8"?> <svg xmlns="http://www.w3.org/2000/svg" width="128" height="90" viewBox="0 0 128 90" fill="none"><path fill-rule="evenodd" clip-rule="evenodd" d="M45.5428 0.24646C44.799 0.298739 43.7202 0.450933 43.1453 0.585049C40.2134 1.26858 39.6813 1.40416 38.6809 1.72394C37.0637 2.24061 33.8483 3.59106 30.7319 5.06194C27.5549 6.56164 25.9175 7.21781 23.6576 7.89718C20.8487 8.74146 19.9089 8.92468 16.8954 9.21587L13.9445 9.5012L13.8683 10.5536C13.7139 12.6804 15.1219 14.8241 17.0985 15.4722C17.5713 15.6271 18.0093 15.886 18.0715 16.0475C18.161 16.2801 14.5731 25.7329 13.6023 27.8228C13.4773 28.0916 12.6855 30.0703 11.8423 32.2201C10.9991 34.3698 10.1648 36.4585 9.98775 36.8616C9.81095 37.2647 9.05186 39.1721 8.30088 41.1006C7.54989 43.029 6.78244 44.9528 6.59506 45.3757C6.40768 45.7985 5.73441 47.4639 5.099 49.0762C4.46335 50.6885 3.85228 52.2276 3.74089 52.4963C3.6295 52.765 3.47655 53.1774 3.40081 53.4124C3.29409 53.7444 2.98843 53.8399 2.03163 53.8399C0.991718 53.8399 0.737948 53.9342 0.40008 54.4465L0 55.0533L0.418524 56.9505C1.85262 63.4503 7.64678 69.1816 14.3134 70.6943C15.0572 70.8631 15.9868 71.0974 16.3787 71.2151C21.2557 72.6779 30.5576 70.0049 34.8587 65.9047C36.8664 63.9909 39.3953 60.1814 39.3953 59.0711C39.3953 58.8774 39.4929 58.5281 39.6122 58.2948C39.8642 57.8018 40.3789 55.7109 40.3789 55.1801C40.3789 54.4489 39.4415 53.8399 38.3158 53.8399H37.2363L36.7174 52.7433C36.4322 52.1401 36.1986 51.5506 36.1986 51.4331C36.1986 51.1698 34.8228 47.7688 34.4805 47.1864C34.3435 46.9531 34.2314 46.6494 34.2314 46.5119C34.2314 46.3741 34.0167 45.7956 33.7546 45.2259C33.1501 43.9136 26.8543 28.2696 26.8543 28.0806C26.8543 28.0031 26.622 27.4188 26.3379 26.7819C26.0542 26.1453 25.7333 25.4043 25.6253 25.1356C25.5174 24.8669 25.2685 24.2623 25.0723 23.792C21.7172 15.7487 21.7352 15.8977 24.0953 15.6183C24.8689 15.5267 25.8892 15.3544 26.3625 15.2352C47.074 10.0255 51.8895 10.1601 58.9951 16.1486C59.867 16.8835 60.6175 17.447 60.6632 17.4014C60.7087 17.3557 61.0899 16.8881 61.5101 16.3621L62.2741 15.4062L61.7159 14.8104C58.2699 11.1336 52.7706 8.84626 47.0182 8.69748C43.5431 8.60758 42.2647 8.73242 38.1658 9.56106C37.1514 9.76602 35.9896 9.98124 35.5838 10.0394C35.1781 10.0975 34.6248 10.2399 34.3543 10.356C34.0838 10.472 33.5305 10.6174 33.1248 10.6792C32.7191 10.7407 30.8588 11.1853 28.9907 11.6666C22.7227 13.2823 18.0245 13.6375 17.8064 12.5121C17.7479 12.2109 17.9876 12.0755 18.7876 11.9585C22.918 11.3537 28.0708 9.59257 33.6166 6.89046C37.3686 5.06218 40.1411 4.12581 44.2705 3.2918C50.0696 2.12067 58.7639 4.20203 62.4276 7.63824C63.5081 8.6518 64.0646 8.57094 66.3345 7.0705C74.848 1.44251 83.5293 1.54854 95.7066 7.42961C99.8842 9.44697 105.024 11.3331 106.345 11.3331C107.356 11.5717 109.217 11.6565 110.003 12.2898L110.584 12.7576L109.846 12.9616C107.697 13.5552 102.152 12.657 93.7394 10.3526C93.266 10.2231 91.6615 9.88865 90.1738 9.60943C88.6861 9.33044 87.0049 8.99943 86.4378 8.87386C80.668 7.59768 73.1784 9.39567 68.0526 13.2875C63.4616 16.7733 59.1079 24.297 57.5917 31.3651C57.4331 32.104 57.2093 33.0934 57.0945 33.5637C56.2778 36.9071 56.09 45.2965 56.7133 50.5967C57.3057 55.6347 57.7169 57.5155 59.2107 62.0237C60.8081 66.8435 60.9104 66.9383 62.01 64.6058L62.5852 63.3858L61.8268 60.9947C59.556 53.834 58.4649 43.7582 59.3246 37.8859C60.0522 32.9166 60.5061 30.9979 61.85 27.2121C65.7986 16.0898 74.6821 10.0831 84.9437 11.5967C88.5779 12.133 95.0001 13.5047 99.1492 14.6308C100.252 14.9303 105.337 15.9747 105.692 15.9747C105.965 15.9747 105.695 16.9142 104.836 18.9594C104.313 20.2066 103.248 22.821 102.47 24.7692C99.7737 31.5232 97.2293 38.3828 94.3099 45.0454C93.8419 46.1134 93.8136 46.1831 92.2603 50.1144C91.5567 51.8948 90.9656 53.3581 90.9464 53.3665C90.9272 53.3748 90.4136 53.438 89.805 53.5067C86.967 53.8272 87.2744 57.8621 90.5065 62.7145C100.176 77.232 125.632 72.557 127.798 55.8658L127.963 54.5935L128 53.7507C127.963 53.0204 127.181 53.1358 126.69 53.2291C125.869 53.385 124.477 53.227 124.477 52.6587C123.37 50.0534 122.032 46.4124 121.008 44.132C120.752 43.5623 120.543 43.0332 120.543 42.9557C120.543 42.8477 117.319 34.6706 116.117 31.7315C116.007 31.4628 115.063 29.0993 114.019 26.4792C112.974 23.8592 111.977 21.3857 111.802 20.9827C111.628 20.5796 111.297 19.7551 111.069 19.1505C110.84 18.5459 110.484 17.6742 110.278 17.2135C109.853 16.2632 110.074 15.6549 110.888 15.534C112.421 15.3058 114.029 13.0422 114.303 10.7266L114.454 9.45577L111.904 9.31139C109.053 9.15016 108.129 8.96303 104.067 7.72545C100.986 6.78664 100.49 6.58461 96.0002 4.43777C92.3589 2.69655 88.6101 1.64 84.764 0.507608C79.872 -0.933224 70.6444 0.82079 65.5582 4.15806C63.9861 5.1897 64.083 5.19703 62.0275 3.88812C57.4732 0.988131 52.0511 -0.209876 45.5428 0.24646ZM20.3178 20.0316C20.5317 20.1132 20.7068 20.2969 20.7068 20.4401C20.7068 20.7411 21.7236 23.3301 22.5779 25.204C22.9012 25.9132 23.1658 26.6019 23.1658 26.734C23.1658 26.8662 23.2789 27.1654 23.4171 27.3987C23.6574 27.8043 27.249 36.6745 28.4549 39.8403C28.7719 40.6726 29.1931 41.7169 29.3913 42.161C29.5892 42.6054 29.9384 43.4636 30.1674 44.0682C30.3961 44.6728 30.7312 45.4973 30.9124 45.9004C31.0934 46.3035 31.6462 47.6776 32.1412 48.9541C32.6362 50.2305 33.2055 51.6364 33.4064 52.0785C33.6075 52.5205 33.7354 53.0701 33.6909 53.3L33.61 53.7177L20.1501 53.781L6.69047 53.844V53.355C6.69047 52.83 8.34637 48.4965 8.69407 48.1112C8.8094 47.9835 8.90358 47.6483 8.90358 47.3662C8.90358 47.084 8.998 46.7488 9.11358 46.6211C9.2289 46.4935 10.2949 43.9155 11.4821 40.8924C12.6693 37.8693 13.7368 35.2916 13.8541 35.1638C13.9713 35.0363 14.0675 34.7507 14.0675 34.5296C14.0675 34.3083 14.2254 33.8082 14.4184 33.4181C14.7329 32.7824 18.2429 23.9782 19.3517 21.0437C19.5926 20.4054 19.8213 19.8834 19.8594 19.8834C19.8976 19.8834 20.1039 19.95 20.3178 20.0316ZM109.378 22.8149C109.989 24.36 110.584 25.8441 110.698 26.1128C110.813 26.3815 111.092 27.0961 111.319 27.7007C111.545 28.3053 111.877 29.1298 112.056 29.5329C112.57 30.6928 114.641 35.969 114.641 36.1199C114.641 36.1949 114.848 36.7221 115.101 37.2918C115.894 39.0761 118.33 45.1585 118.33 45.3534C118.33 45.4556 118.562 46.0602 118.846 46.697C119.677 48.5603 120.154 49.7294 121.038 52.0644C121.65 53.6818 122.397 53.5946 108.086 53.5778C92.5497 53.5597 93.6868 53.865 95.4007 50.1726C95.8069 49.2975 96.313 48.0883 96.5252 47.4854C96.7376 46.8825 97.2909 45.4546 97.7549 44.3125C98.2192 43.1704 100.276 38.0586 102.325 32.953C104.375 27.8473 106.147 23.45 106.264 23.1813C106.992 21.5037 107.228 20.9206 107.38 20.4191C107.709 19.3396 108.267 20.0099 109.378 22.8149ZM66.75 22.8759C66.6148 23.044 66.273 23.6369 65.9904 24.1939L65.477 25.2065L66.0364 26.6368C66.6054 28.0916 67.322 30.6041 68.0469 33.6858C70.0476 42.1928 68.4192 57.1742 64.6385 65.0416C60.108 74.4688 54.782 78.5935 46.2805 79.2587C38.7468 79.8481 35.1178 82.5434 34.5444 87.975C34.3096 90.2 31.3111 89.995 64.112 89.995H93.1949L93.3442 89.6086C93.8419 88.3199 93.1736 85.2555 92.0542 83.6938C90.0418 80.8861 87.1841 79.6698 81.6143 79.2496C75.708 78.8043 71.791 76.8275 68.0904 72.4244L67.4007 71.6033L66.9839 72.172C66.7547 72.4849 66.362 73.0515 66.1109 73.4313L65.6548 74.1219L67.3404 75.7834C71.6894 80.0695 76.6893 82.1777 82.5061 82.1777C83.5323 82.1777 84.6816 82.3013 85.0598 82.4525C85.438 82.6035 85.9689 82.8121 86.2394 82.9162C88.3635 83.7321 89.3596 84.4882 90.0398 85.8001C90.732 87.1351 92.2059 87.0635 64.0075 87.0635C47.4259 87.0635 37.8953 86.9773 37.8014 86.8263C37.4259 86.2229 40.1251 83.1549 41.0315 83.1549C41.2172 83.1549 41.5614 83.0584 41.7963 82.9406C42.8325 82.4205 44.1085 82.1777 45.8062 82.1777C58.2215 82.1775 68.101 71.0241 70.9072 53.8399C72.7549 42.5255 71.733 32.4756 67.8202 23.4867C67.3987 22.5183 67.1521 22.3776 66.75 22.8759ZM36.7789 57.4266C36.5743 62.042 29.4995 67.5737 22.6143 68.5018C14.2932 69.6236 4.64458 64.0667 3.59532 57.5487L3.43032 56.5237L20.1218 56.5865L36.8133 56.6492L36.7789 57.4266ZM124.477 57.1686C124.477 57.5216 124.135 58.4834 123.716 59.3062C117.439 71.649 97.4635 71.3571 91.7503 58.8391C90.5911 56.2992 89.0016 56.5271 107.871 56.5271H124.477V57.1686Z" fill="white"></path></svg> 