<?xml version="1.0" encoding="UTF-8"?> <svg xmlns="http://www.w3.org/2000/svg" width="400" height="400" viewBox="0 0 400 400" fill="none"><rect width="400" height="400" fill="#EEEEEE"></rect><path fill-rule="evenodd" clip-rule="evenodd" d="M295.76 69.5136L294.027 69.9222L275.056 88.9072L256.084 107.892L255.513 109.801C255.155 110.994 254.941 116.575 254.941 124.685V137.66L253.285 139.257L251.629 140.855L247.552 137.489C232.046 124.689 212.543 116.2 192.641 113.588L186.402 112.768L175.955 113.006C90.9418 114.936 40.999 210.73 88.2359 281.258C143.236 363.376 267.519 336.713 285.881 238.855L286.791 234.009L286.775 221.257L286.759 208.505L285.859 203.66C282.229 184.134 274.481 167.113 262.64 152.652L259.089 148.317L260.682 146.659L262.275 145.001H275.238C283.377 145.001 288.914 144.787 290.117 144.426L292.033 143.852L311.157 124.661L330.28 105.47L330.64 102.486L331 99.503L329.651 98.1508L328.301 96.7991L315.954 96.544L303.607 96.289L303.352 83.9595L303.097 71.6305L301.862 70.315L300.626 69L299.059 69.052C298.197 69.0811 296.712 69.2887 295.76 69.5136ZM293.16 96.0569V104.242L294.411 105.493L295.662 106.746H303.839C308.336 106.746 312.015 106.916 312.015 107.125C312.015 107.333 305.998 113.531 298.642 120.897L285.269 134.29H275.456H265.643V124.474V114.659L279.016 101.266C286.371 93.8998 292.563 87.8728 292.775 87.8728C292.987 87.8728 293.16 91.5555 293.16 96.0569ZM192.517 124.378C209.762 126.653 226.78 134.056 240.764 145.365L244.315 148.238L234.596 157.966L224.877 167.695L224.18 167.187C223.796 166.908 221.675 165.361 219.465 163.749C211.722 158.101 201.073 153.614 191.057 151.779L186.402 150.926L178.248 150.943L170.095 150.961L164.903 152.065C137.127 157.971 116.265 178.271 109.906 205.578L108.63 211.056L108.355 218.707L108.08 226.358L108.868 231.459C113.722 262.904 137.151 286.355 168.566 291.214L173.662 292.002L181.306 291.727L188.95 291.452L194.433 290.172C222.067 283.725 243.072 261.657 248.133 233.754L249.012 228.908V221.257V213.606L248.088 208.76C246.127 198.477 241.819 188.233 236.206 180.511C234.599 178.299 233.055 176.176 232.776 175.792L232.269 175.094L241.989 165.366L251.708 155.637L254.577 159.192C304.394 220.908 265.17 312.398 186.056 319.018L178.576 319.643L171.448 319.032C122.043 314.797 85.3098 278.092 81.0894 228.744L80.4652 221.439L81.0904 213.952C85.8739 156.676 135.421 116.845 192.517 124.378ZM191.243 162.809C200.003 164.773 216.722 173.106 216.722 175.509C216.722 175.708 212.48 180.113 207.295 185.297L197.867 194.724L196.721 194.007C193.799 192.179 190.409 190.777 186.546 189.799L182.341 188.734L176.982 189.008L171.624 189.282L167.886 190.569C162.606 192.387 159.064 194.685 155.07 198.883L151.608 202.524L149.775 206.279C145.009 216.05 145.126 227.424 150.092 237.011L152.236 241.15L155.618 244.5L159 247.85L163.077 249.973C172.596 254.93 183.942 255.03 193.791 250.244L197.613 248.387L201.743 244.259L205.874 240.13L207.682 236.304C212.386 226.348 212.218 215.146 207.224 205.633L205.342 202.047L214.846 192.534L224.35 183.021L225.848 184.797C232.165 192.282 236.963 204.301 238.232 215.818L238.813 221.091L238.212 226.863C235.581 252.122 217.521 273.1 192.921 279.471L187.93 280.763L181.511 281.047C151.276 282.386 124.636 260.717 119.623 230.708L118.742 225.437L119.023 218.756L119.304 212.076L120.597 207.08C128.705 175.771 160.416 155.9 191.243 162.809ZM184.653 200.388C186.175 200.832 187.963 201.543 188.625 201.968L189.831 202.74L181.364 211.267L172.897 219.795V221.444C172.897 225.104 174.588 226.592 178.764 226.606L180.808 226.613L188.929 218.473L197.049 210.332L197.711 210.883C198.836 211.817 200.415 217.879 200.415 221.257C200.415 240.627 177.116 250.291 163.433 236.596C147.714 220.861 163.358 194.167 184.653 200.388Z" fill="#15477F"></path></svg> 