<?xml version="1.0" encoding="UTF-8"?> <svg xmlns="http://www.w3.org/2000/svg" width="400" height="400" viewBox="0 0 400 400" fill="none"><rect width="400" height="400" fill="#EEEEEE"></rect><path fill-rule="evenodd" clip-rule="evenodd" d="M280.303 114.04C263.424 120.485 260.987 122.787 261.816 131.506L262.214 135.685H258.157C255.926 135.685 248.886 133.631 242.513 131.12L230.927 126.554L219.081 126.53L207.236 126.505L200.969 129.589L194.702 132.673L188.585 129.939C185.22 128.435 179.51 126.675 175.895 126.027L169.324 124.848L161.896 125.914C157.811 126.5 151.858 127.481 148.668 128.093C145.477 128.704 141.047 129.205 138.823 129.205H134.78L134.164 126.745C133.826 125.393 132.197 123.006 130.548 121.444L127.546 118.601L115.085 114.724C91.6193 107.422 94.052 104.54 75.8247 161.227C57.7115 217.557 57.3777 215 83.9272 223.231L95.2301 226.734L99.8112 225.082C102.331 224.173 104.393 223.626 104.393 223.866C104.393 224.107 102.888 227.295 101.047 230.95L97.7016 237.597L98.1388 243.658C98.7957 252.762 105.862 259.88 114.246 259.88H116.957V264.47C116.959 277.059 129.073 285.784 140.124 281.153L144.01 279.526L146.547 283.375C147.942 285.492 150.78 288.152 152.853 289.286L156.622 291.348L162.545 290.866L168.468 290.386L171.349 295.049C178.159 306.072 190.725 307.058 198.824 297.206L201.913 293.446L206.62 295.073C216.63 298.532 229.293 288.705 226.859 279.368L226.345 277.399L230.027 276.8C238.101 275.486 245.465 267.329 245.465 259.698V256.958L250.66 257.458L255.854 257.959L260.26 255.704C265.845 252.848 269.299 248.006 269.962 242.108L270.48 237.495L274.934 237.953L279.387 238.412L283.102 236.358C287.85 233.732 291.061 227.542 291.157 220.831C291.236 215.405 292.21 214.046 293.378 217.734C295.758 225.256 303.526 225.859 319.75 219.786L331.652 215.33L334.326 212.143L337 208.957L336.967 204.449L336.933 199.943L321.083 157.324L305.232 114.706L301.573 112.236C296.588 108.872 293.055 109.171 280.303 114.04ZM298.637 119.756C299.935 121.814 322.409 181.624 328.451 199.099L330.4 204.735L328.584 206.957C324.634 211.793 303.021 218.246 300.594 215.314C298.851 213.207 269.156 132.284 269.156 129.641C269.156 123.545 295.466 114.724 298.637 119.756ZM114.097 122.237L125.916 126.069L126.612 128.848L127.306 131.627L121.31 150.125C118.013 160.3 111.829 179.474 107.569 192.736L99.8241 216.848L97.3688 217.969L94.9135 219.091L82.9504 215.093C75.4036 212.572 70.5964 210.365 69.9309 209.117L68.8745 207.138L82.4798 164.663C89.9631 141.3 96.8174 121.335 97.7134 120.296C99.9027 117.757 100.493 117.827 114.097 122.237ZM182.198 135.211C188.54 137.389 189.357 135.707 175.318 149.38C151.31 172.764 150.166 178.409 167.668 187.133L171.698 189.143L180.314 189.093L188.929 189.044L201.851 184.406L214.774 179.769L220.158 179.714L225.543 179.66L246.816 190.881C258.517 197.053 271.183 204.36 274.963 207.118L281.837 212.133L283.163 216.166L284.491 220.198L283.227 224.43C282.408 227.17 281.009 229.097 279.253 229.9L276.543 231.137L273.218 229.879C271.391 229.187 260.016 223.231 247.942 216.643C234.486 209.3 225.069 204.796 223.612 205.003L221.235 205.342V207.923V210.506L230.389 215.546C235.423 218.318 244.209 223.154 249.914 226.292C260.699 232.226 262.695 234.457 262.695 240.575V243.847L259.547 247.004L256.4 250.161H252.901H249.403L229.21 239.363C216.567 232.603 208.361 228.818 207.26 229.241L205.504 229.917L205.831 232.745L206.159 235.573L219.581 242.757C239.499 253.418 243.951 262.064 232.564 267.969C227.471 270.61 225.234 269.981 209.389 261.453C201.097 256.989 193.344 253.473 192.159 253.639C189.201 254.053 188.774 258.19 191.492 260.099L193.639 261.608H189.996H186.353L185.666 257.529C184.186 248.745 176.808 242.241 168.324 242.241H163.608L162.512 238.158C160.484 230.604 151.598 224.468 144.251 225.549L141.197 226L140.554 222.78C138.34 211.674 123.998 205.374 114.354 211.27L110.855 213.411L110.896 209.916C110.917 207.995 115.947 190.871 122.072 171.864L133.209 137.305L141.146 136.505C145.512 136.064 152.718 134.986 157.161 134.109C166.366 132.292 174.781 132.662 182.198 135.211ZM240.424 138.522L253.152 143.245H259.27H265.387L277.284 175.374C289.534 208.457 290.044 210.919 283.327 204.555C277.227 198.774 273.717 196.647 249.345 183.957L226.62 172.124L220.158 172.203L213.697 172.283L199.697 177.189L185.698 182.096L180.385 182.109C174.638 182.124 167.373 179.204 164.081 175.555L162.1 173.361L178.206 157.48C204.961 131.1 213.449 128.513 240.424 138.522ZM130.681 220.005C136.6 227.058 124.829 252.321 115.625 252.321C102.554 252.321 103.377 231.556 116.941 219.112L119.59 216.682H123.742H127.893L130.681 220.005ZM153.136 236.225C154.18 237.506 155.352 239.825 155.741 241.381L156.449 244.206L149.535 257.539C139.369 277.147 129.256 281.356 124.806 267.834L123.502 263.871L129.141 252.966C136.93 237.903 138.789 235.015 141.419 233.892C144.907 232.402 151.01 233.618 153.136 236.225ZM175.142 252.536C176.444 253.755 177.805 256.103 178.167 257.754L178.824 260.756L174.38 269.62C171.935 274.496 168.779 279.645 167.366 281.062L164.797 283.639H160.896H156.995L153.847 280.483C149.533 276.156 149.823 273.265 155.719 261.817L160.738 252.07L164.064 250.593C168.034 248.831 171.91 249.51 175.142 252.536ZM217.356 275.645C220.909 280.174 219.506 285.77 214.272 287.944L211.358 289.155L208.446 287.824L205.534 286.493L206.357 283.176C207.753 277.556 207.18 272.944 204.661 269.529L202.251 266.258L208.672 269.509C212.203 271.298 216.112 274.059 217.356 275.645ZM196.592 271.401C203.687 276.063 195.181 296.599 186.153 296.599H182.84L179.747 293.497C178.047 291.792 176.312 289.024 175.892 287.347L175.128 284.297L178.26 278.299L181.39 272.3L185.16 270.385C189.189 268.337 192.358 268.619 196.592 271.401Z" fill="#15477F"></path></svg> 