<?xml version="1.0" encoding="UTF-8"?> <svg xmlns="http://www.w3.org/2000/svg" width="400" height="400" viewBox="0 0 400 400" fill="none"><rect width="400" height="400" fill="#EEEEEE"></rect><path fill-rule="evenodd" clip-rule="evenodd" d="M75 120.898V166.797H95.5882H116.176V160.449V154.102H119.361C121.121 154.102 126.057 155.854 130.39 158.018C134.891 160.265 140.533 162.248 143.627 162.67L149.02 163.405L149.28 190.003L149.541 216.602H237.271H325V162.402V108.203H286.014H247.028L235.278 96.4082C221.642 82.7187 217.735 79.7793 209.509 77.0186L203.493 75H172.283H141.073L132.964 78.9062L124.854 82.8125H120.516H116.176V78.9062V75H95.5882H75V120.898ZM108.333 120.898V158.008H95.5882H82.8431V120.898V83.7891H95.5882H108.333V120.898ZM210.873 86.6826L216.667 89.5771L225.961 98.8896L235.255 108.203H218.149H201.042L195.878 103.124L190.716 98.0449L187.771 100.854L184.825 103.665L200.501 119.534L216.176 135.402V139.211V143.019L213.971 144.997C208.195 150.176 205.115 148.687 189.853 133.339L177.745 121.162L172.98 124.355C164.869 129.793 156.333 129.944 148.183 124.796L143.762 122.003L141.258 125.274L138.753 128.545L143.319 131.558C145.83 133.215 148.251 134.57 148.697 134.57C149.144 134.57 149.51 139.241 149.51 144.949V155.328L145.343 154.712C143.051 154.373 137.647 152.356 133.333 150.23C128.526 147.861 123.782 146.256 121.078 146.083L116.667 145.801L116.406 118.838L116.146 91.876L121.851 91.3603L127.557 90.8447L134.367 87.3652L141.176 83.8848L173.127 83.8369L205.079 83.7891L210.873 86.6826ZM317.157 162.891V208.789H237.745H158.333V172.792V136.795L163.971 136.279C167.071 135.996 171.266 134.973 173.292 134.006L176.975 132.248L180.4 135.554C185.48 140.459 182.911 143.534 172.05 145.546L166.13 146.643L166.399 162.823L166.667 179.004L171.569 179.514C180.68 180.461 186.353 185.995 187.421 194.977L188.019 200H237.757H287.496L287.965 195.142C288.856 185.896 295.547 179.492 304.315 179.492H308.333V162.924V146.356L303.378 145.701C294.39 144.514 287.745 137.204 287.745 128.504V124.805H252.65H217.555L213.725 120.898L209.896 116.992H263.526H317.157V162.891ZM282.353 139.683C285.555 146.282 290.107 150.534 296.203 152.617L300 153.915L300.28 162.683L300.561 171.449L297.339 172.076C295.568 172.422 292.044 174.22 289.509 176.072L284.9 179.441L282.156 185.324L279.412 191.208L237.336 190.965L195.261 190.723L193.906 186.673C191.733 180.179 181.851 171.68 176.473 171.68H174.926L175.208 162.742L175.49 153.805L179.412 152.455C181.569 151.713 184.927 149.829 186.876 148.27L190.42 145.434L193.739 148.91C200.236 155.714 208.562 157.72 215.559 154.166L219.277 152.277L218.512 153.922C218.09 154.826 217.586 158.423 217.39 161.914L217.035 168.262L219.377 172.656C220.666 175.073 223.558 178.341 225.806 179.918L229.892 182.785L235.675 183.201C251.063 184.311 261.768 172.268 258.277 157.775L257.067 152.746L252.498 148.195L247.929 143.645L242.88 142.438C237.069 141.05 233.052 141.659 227.299 144.8L223.225 147.024L224.232 144.146C224.786 142.564 225.007 139.542 224.723 137.432L224.206 133.594L251.809 133.606L279.412 133.619L282.353 139.683ZM244.422 152.174C251.266 156.33 252.061 165.428 246.099 171.366L242.843 174.609H237.975H233.108L230.505 172.57C217.831 162.64 230.671 143.822 244.422 152.174ZM283.824 248.421C283.824 251.957 283.492 254.704 283.088 254.524C282.684 254.346 279.265 252.441 275.49 250.293L268.627 246.387L254.902 246.1L241.176 245.813L214.216 253.024C184.43 260.992 181.639 262.088 178.767 266.937L176.789 270.274L173.689 268.704C171.983 267.84 161.723 262.355 150.886 256.516L131.184 245.898H125.786H120.388L117.057 248.104C115.225 249.316 112.704 252.283 111.456 254.695L109.185 259.082L109.592 263.68L109.998 268.277L112.639 271.727L115.28 275.175L155.336 298.981C177.367 312.074 196.825 323.285 198.577 323.894L201.763 325L234.705 324.967L267.647 324.933L275 322.04C284.024 318.49 283.824 318.49 283.824 322.07V325H304.412H325V283.496V241.992H304.412H283.824V248.421ZM317.157 283.008V316.211H304.412H291.667V283.008V249.805H304.412H317.157V283.008ZM151.803 266.499L175.513 279.288L178.13 283.958L180.748 288.628L185.301 290.823L189.853 293.019L194.221 292.423C196.624 292.095 206.626 289.661 216.451 287.016C226.275 284.369 236.219 281.701 238.546 281.086L242.778 279.968L242.12 276.849C241.061 271.84 240.969 271.845 217.686 278.051C189.938 285.447 187.432 285.499 184.849 278.731L183.836 276.078L185.18 272.875C186.865 268.859 186.805 268.883 216.667 260.882L241.176 254.314L253.438 254.257L265.7 254.199L274.779 259.551L283.859 264.901L283.596 287.327L283.333 309.752L275.49 312.936L267.647 316.12L234.51 316.165L201.374 316.211L198.235 314.6C192.601 311.707 124.595 271.096 121.324 268.669L118.137 266.307V262.406V258.505L120.544 256.108C124.435 252.231 126.819 253.023 151.803 266.499Z" fill="#15477F"></path></svg> 