<?xml version="1.0" encoding="UTF-8"?> <svg xmlns="http://www.w3.org/2000/svg" width="400" height="400" viewBox="0 0 400 400" fill="none"><rect width="400" height="400" fill="#EEEEEE"></rect><path fill-rule="evenodd" clip-rule="evenodd" d="M98.2883 93.3545C72.666 98.9139 66.0397 112.357 66.0001 158.853C65.9595 207.61 74.88 223.409 103.603 225.453C110.797 225.965 110.797 225.965 110.797 244.281C110.797 271.746 110.899 271.75 137.377 245.386C157.161 225.686 157.161 225.686 162.644 225.686C168.02 225.686 168.126 225.746 168.126 228.746C168.126 254.354 185.93 269.373 217.117 270.073C234.316 270.458 234.316 270.458 258.862 294.729C272.361 308.078 283.937 319 284.585 319C288.589 319 289.04 316.387 289.04 293.228C289.04 270.714 289.04 270.714 297.121 269.638C314.976 267.261 328.051 255.972 332.369 239.207C335.207 228.186 334.101 170.134 330.901 162.185C322.317 140.862 311.206 136.55 264.805 136.533C231.71 136.52 231.71 136.52 231.71 133.461C231.71 113.558 216.68 96.2078 196.605 92.9377C187.583 91.4675 105.376 91.8169 98.2883 93.3545ZM201.54 103.881C213.27 107.997 219.74 116.828 221.759 131.479C222.422 136.288 222.422 136.288 211.17 136.749C179.066 138.068 168.126 153.067 168.126 195.76C168.126 216.355 168.126 216.355 160.643 216.355C153.159 216.355 153.159 216.355 136.669 232.642L120.178 248.931V233.887C120.178 216.092 120.328 216.355 110.233 216.355C81.5886 216.355 75.0113 204.896 75.5471 155.921C75.962 117.891 79.0682 109.789 95.4478 104.02C102.067 101.688 194.945 101.567 201.54 103.881ZM89.6023 128.917C88.0804 130.43 88.9539 135.436 90.9229 136.484C93.6904 137.957 186.275 137.957 189.042 136.484C191.296 135.284 191.722 131.375 189.807 129.47C188.446 128.116 90.948 127.578 89.6023 128.917ZM305.897 148.78C322.112 156.8 323.959 162.333 323.959 202.877C323.959 249.84 318.91 258.774 291.325 260.616C278.897 261.445 279.659 259.977 279.659 283.088V302.911L258.551 282.02C237.443 261.13 237.443 261.13 219.616 260.712C195.521 260.147 187.052 255.985 180.256 241.365C176.692 233.698 176.827 172.816 180.425 165.033C184.484 156.254 191.276 150.381 200.961 147.277C209.491 144.543 299.951 145.838 305.897 148.78ZM90.1579 155.39C88.5495 156.99 88.5495 160.634 90.1579 162.233C92.7168 164.779 162.599 163.927 163.994 161.334C164.891 159.667 164.778 158.63 163.486 156.669C161.566 153.754 93.0045 152.559 90.1579 155.39ZM196.865 173.401C194.915 175.342 194.747 178.137 196.478 179.859C198.282 181.653 303.706 181.653 305.509 179.859C307.424 177.955 306.998 174.045 304.744 172.845C301.066 170.888 198.863 171.414 196.865 173.401ZM90.1579 182.348C88.5495 183.947 88.5495 187.591 90.1579 189.191C91.9465 190.97 156.748 190.97 158.537 189.191C160.145 187.591 160.145 183.947 158.537 182.348C156.748 180.568 91.9465 180.568 90.1579 182.348ZM196.478 199.973C194.564 201.878 194.99 205.788 197.244 206.988C200.308 208.618 303.862 208.455 305.509 206.816C306.197 206.132 306.76 204.592 306.76 203.395C306.76 202.197 306.197 200.658 305.509 199.973C303.706 198.18 198.282 198.18 196.478 199.973ZM197.573 226.239C194.533 228.363 194.585 231.441 197.694 233.467C201.34 235.843 304.215 235.345 305.741 232.944C306.998 230.964 306.998 228.704 305.741 226.723C304.198 224.295 201.017 223.834 197.573 226.239Z" fill="#15477F"></path></svg> 