<svg width="567" height="216" viewBox="0 0 567 216" fill="none" xmlns="http://www.w3.org/2000/svg">
<rect width="567" height="216" fill="white"/>
<path fill-rule="evenodd" clip-rule="evenodd" d="M264.651 136.699C257.049 136.704 249.446 136.704 241.842 136.699C252.306 109.243 262.768 81.7841 273.229 54.3229C278.611 39.8037 288.735 33.1779 305.227 33.1853C320.238 33.1803 335.251 33.1803 350.265 33.1853C347.414 40.6144 344.567 48.0435 341.722 55.4726C328.965 55.4726 316.207 55.4701 303.447 55.4652C298.443 55.4726 295.599 57.0572 293.662 60.499C293.546 60.7122 293.456 60.9572 293.366 61.2038L293.366 61.2038L293.366 61.2039C293.273 61.4602 293.179 61.7182 293.053 61.9436C291.571 65.8252 290.087 69.7044 288.602 73.5811H334.823C332.019 81.0102 329.216 88.4418 326.415 95.8758C311.007 95.8758 295.603 95.8733 280.202 95.8684C275.02 109.484 269.836 123.094 264.651 136.699ZM371.254 59.0619C361.43 84.9459 351.607 110.827 341.784 136.706H321.608C331.487 110.822 341.364 84.9409 351.237 59.0619H371.254ZM357.667 47.137C356.264 44.8227 355.681 42.1031 356.152 39.2214C356.832 35.4847 359.232 31.8881 362.71 29.4412C369.014 24.8644 376.986 25.4319 380.24 30.7384C383.643 36.0596 381.208 43.8204 374.93 48.2793C368.835 52.5909 361.166 52.016 357.667 47.137ZM375.707 136.706C368.978 136.702 362.255 136.702 355.539 136.706C369.096 101.148 382.654 65.5845 396.213 30.0161H416.23L405.176 59.0692H418.719C416.2 65.6287 413.683 72.1906 411.167 78.7549C406.711 78.7549 402.246 78.7574 397.773 78.7623C390.42 98.077 383.065 117.392 375.707 136.706Z" fill="#F15213"/>
<path fill-rule="evenodd" clip-rule="evenodd" d="M55.6499 136.666C48.0404 136.661 40.4374 136.661 32.8408 136.666L72.2193 33.1443C89.8911 33.1394 107.554 33.1394 125.209 33.1443C133.018 33.1443 137.023 35.0163 139.715 38.893C142.319 42.4823 142.57 47.3761 140.161 53.707C136.931 62.1876 133.702 70.6682 130.477 79.1488C128.67 84.0352 126.094 87.7793 122.746 90.9484C116.488 96.6972 109.854 99.4315 101.76 99.4241C91.1099 99.429 80.4632 99.4315 69.8194 99.4315L55.6499 136.666ZM86.493 55.4317L78.4955 76.5693H100.867C107.159 76.7093 109.097 75.2647 110.769 70.9606L114.411 61.7479C114.484 61.4138 114.555 61.0797 114.623 60.7455C114.756 60.3672 114.887 59.984 115.017 59.5958C115.558 57.1563 114.49 55.9992 110.773 55.4317C110.343 55.4317 110.049 55.4317 109.605 55.4243C101.903 55.4292 94.1991 55.4317 86.493 55.4317ZM139.682 136.658C132.961 136.663 126.24 136.666 119.52 136.666C126.801 117.449 134.09 98.2302 141.387 79.0088C146.52 65.632 156.051 59.0283 169.587 59.0283C174.156 59.0234 178.723 59.0234 183.289 59.0283C180.775 65.5877 178.26 72.1496 175.745 78.714H168.086C167.647 78.7214 167.209 78.7214 166.909 78.714C163.434 79.1488 161.211 80.586 160.111 82.8929C159.799 83.6544 159.486 84.4209 159.171 85.1923C152.677 102.35 146.181 119.505 139.682 136.658ZM168.796 119.286L168.803 119.265C174.232 104.981 179.661 90.7003 185.088 76.4219C185.348 75.6491 185.748 74.8763 186.148 74.1035C186.343 73.7265 186.538 73.3496 186.717 72.9726C192.331 63.4725 200.66 59.0209 211.848 59.0283H238.784C250.117 59.0283 254.848 63.6199 253.25 72.9726C252.999 74.1224 252.748 75.2721 252.355 76.4145C246.876 90.6979 241.401 104.984 235.931 119.272C235.522 120.422 234.976 121.571 234.289 122.714C228.686 132.199 220.499 136.658 209.309 136.658C200.279 136.663 191.249 136.666 182.22 136.666C171.048 136.658 166.31 132.059 167.905 122.721C168.014 121.571 168.402 120.436 168.796 119.286ZM202.407 84.0426C198.878 93.2455 195.346 102.448 191.812 111.651C191.173 113.228 191.336 114.518 192.11 115.675C193.043 116.825 193.601 116.965 196.099 116.965C201.445 116.97 206.794 116.97 212.147 116.965C212.353 116.921 212.559 116.874 212.766 116.825C213.823 116.685 215.332 115.823 216.612 114.658C217.548 113.796 218.386 112.654 218.78 111.504L229.2 84.0426C229.839 82.4654 229.679 81.1609 228.902 80.0185C228.12 78.8688 227.42 78.7214 224.907 78.7214H208.866C208.71 78.7705 208.554 78.8172 208.398 78.8614C207.332 79.0088 205.848 79.7237 204.569 80.8808C203.466 81.8905 202.811 82.8855 202.407 84.0426Z" fill="#5A1C73"/>
<path d="M156.739 46.3731H162.258L167.111 32.0323C167.173 31.9135 167.235 31.7946 167.297 31.6758C167.78 30.8042 168.416 30.4081 169.262 30.4081H171.679C171.76 30.4081 171.84 30.4081 171.921 30.4081C172.69 30.6061 172.859 31.0023 172.592 31.7946L167.575 46.3731H173.093L178.111 31.7946C178.355 31.1211 178.695 30.8042 179.391 30.5269C179.687 30.4477 179.856 30.4081 180.017 30.4081H182.434C183.401 30.4081 183.749 30.9231 183.384 32.0323L178.41 46.3731H183.928L189.534 30.1308C190.023 28.7838 190.048 27.9915 189.824 27.2388C189.31 25.6542 188.185 24.9807 186.252 24.9807H182.022C179.767 24.9807 178.193 25.6542 177.04 26.8823C176.776 25.6938 175.698 24.9807 173.402 24.9807H169.173C167.239 24.9807 165.713 25.6146 164.038 27.2784C163.302 27.9915 162.794 28.7838 162.345 30.1308L156.739 46.3731ZM189.721 40.8269C188.852 43.3623 189.12 44.7489 190.623 45.7789C191.268 46.2146 191.963 46.3731 193.736 46.3731H205.86L207.704 40.9458H197.07H196.385C195.69 40.7873 195.488 40.3516 195.776 39.4404L195.922 39.0839L210.027 34.4488L211.499 30.1704C211.597 29.8534 211.688 29.5761 211.747 29.2592C212.286 26.7634 211.439 25.4561 209.015 25.06C208.7 25.0204 208.385 24.9807 208.063 24.9807H200.571C197.59 24.9807 195.456 26.2881 193.928 28.9027C193.742 29.2592 193.595 29.6158 193.449 29.9723L189.721 40.8269ZM197.496 34.2508L198.259 32.0719C198.456 31.4381 198.98 31.0023 199.862 30.8042C200.199 30.725 200.367 30.6854 200.488 30.6854H204.355C204.435 30.6854 204.556 30.6854 204.63 30.725C205.212 30.8438 205.476 31.1608 205.403 31.5569L205.348 31.6361L205.326 31.755L197.496 34.2508ZM211.326 40.9854C210.913 42.1343 210.866 43.0454 211.043 43.8377C211.473 45.66 212.469 46.3731 214.483 46.3731H222.338C224.11 46.3731 225.662 45.8185 227.075 44.7093C228.392 43.6793 229.058 42.6889 229.759 40.6289L237.935 16.9784H232.417L229.656 24.9807H221.802C218.982 24.9807 216.131 27.12 215.025 30.2892L211.326 40.9854ZM217.355 39.5196L219.955 31.9531C219.97 31.8738 220.032 31.755 220.087 31.6758C220.288 31.24 220.54 30.9627 220.811 30.8042C221.345 30.5269 221.73 30.4081 221.931 30.4081H226.201C227.087 30.4081 227.424 30.7646 227.337 31.6758C227.323 31.755 227.308 31.8342 227.253 31.9135L224.576 39.6781C224.5 39.8762 224.375 40.1139 224.218 40.3119C223.966 40.5892 223.56 40.8269 223.102 40.9062C223.014 40.9458 222.893 40.9458 222.772 40.9458H218.261C217.536 40.9458 217.133 40.51 217.173 40.0742L217.187 39.995L217.355 39.5196ZM231.674 46.3731H237.193L244.551 24.9807H239.073L231.674 46.3731ZM240.24 19.5138C240.134 20.3061 240.318 21.0588 240.725 21.6927C241.726 23.0396 243.832 23.198 245.46 22.0096C247.136 20.7815 247.731 18.6423 246.752 17.1765C245.813 15.7107 243.627 15.5523 241.943 16.82C241.014 17.4934 240.389 18.4838 240.24 19.5138ZM242.651 41.54C242.552 41.8569 242.461 42.1343 242.403 42.4512C242.017 44.9866 243.373 46.3731 246.596 46.3731H254.128C254.773 46.3731 255.439 46.2543 256.08 46.0562C257.577 45.5808 258.832 44.6696 259.845 43.3227C260.331 42.6493 260.657 41.9758 260.894 41.3419L264.791 30.0119C264.929 29.695 264.988 29.3781 265.046 29.0611C265.472 26.5257 264.596 25.3769 261.875 25.06C261.6 25.0204 261.285 24.9807 260.963 24.9807H248.436L246.643 30.1308H257.8C257.881 30.1308 257.961 30.1308 258.042 30.1308C258.826 30.2496 259.031 30.4477 258.936 30.9627L258.878 31.2796L258.787 31.5569L258.604 32.1115H251.233C247.93 32.1115 245.251 33.9735 244.137 37.1823L242.651 41.54ZM248.717 39.8762L249.207 38.5292C249.543 37.5785 249.883 37.2615 250.502 37.1823L250.791 37.1427H251.113H255.342C255.785 37.1427 255.939 37.1823 256.079 37.3012C256.624 37.6181 256.643 37.7369 256.405 38.3708L255.887 39.8762C255.803 40.1139 255.638 40.3516 255.441 40.5496C255.046 40.9458 254.654 41.1042 254.01 41.1042H249.74C249.659 41.1042 249.539 41.1042 249.465 41.0646C248.883 40.9458 248.659 40.6289 248.681 40.0742C248.695 39.995 248.71 39.9158 248.717 39.8762Z" fill="#CA309A"/>
<mask id="mask0_1301_837" style="mask-type:alpha" maskUnits="userSpaceOnUse" x="428" y="26" width="98" height="109">
<path fill-rule="evenodd" clip-rule="evenodd" d="M441.812 63.8195C429.739 68.3458 428.607 80.416 428.607 85.6968C428.607 92.4862 433.889 100.06 438.039 103.048C447.47 109.837 457.656 107.071 463.315 104.179C450.941 89.6951 453.884 72.9979 456.902 66.4599C455.695 86.074 465.579 97.3898 471.615 103.048C479.915 101.916 491.987 106.568 498.778 109.46C514.914 116.332 517.448 112.8 520.29 108.84C520.412 108.67 520.534 108.499 520.659 108.328C527.6 97.767 524.809 77.2728 522.545 68.3459C517.263 49.109 508.586 37.2902 502.928 31.0037C493.496 21.5738 486.328 29.4949 482.178 35.1528C478.783 40.8107 468.974 52.1265 464.824 54.3897C460.127 57.9812 453.319 60.1129 447.556 61.9175C445.45 62.5768 443.484 63.1924 441.812 63.8195ZM466.333 110.592L450.488 114.364C451.394 117.381 455.141 126.434 456.902 130.583C459.712 135.578 463.297 134.888 465.305 134.502C465.723 134.422 466.073 134.355 466.333 134.355C467.541 134.355 472.873 130.331 475.388 128.32C478.406 126.509 476.645 122.788 475.388 121.153L466.333 110.592ZM515.666 66.027C521.063 84.8688 520.297 101.615 513.956 103.43C507.615 105.245 498.1 91.4429 492.704 72.6012C487.308 53.7594 488.073 37.0135 494.414 35.1981C500.755 33.3828 510.27 47.1853 515.666 66.027ZM502.416 84.6211C502.596 84.988 502.965 85.2292 503.374 85.2098C503.969 85.1815 504.562 85.0854 505.146 84.9173C510.922 83.2546 513.666 75.1748 511.275 66.8706C508.884 58.5665 502.263 53.1826 496.486 54.8453C496.181 54.9332 495.884 55.039 495.596 55.1618C495.207 55.3278 494.98 55.7263 494.996 56.1491C495.176 60.7095 496.066 66.2103 497.685 71.9917C499.008 76.7152 500.651 81.0256 502.416 84.6211Z" fill="#C4C4C4"/>
</mask>
<g mask="url(#mask0_1301_837)">
<rect width="15.5772" height="145.71" transform="matrix(0.953611 0.30104 -0.301135 0.953582 434.759 -7.31641)" fill="white"/>
<rect width="15.5772" height="145.71" transform="matrix(0.953611 0.30104 -0.301135 0.953582 449.613 -2.62793)" fill="#F29C00"/>
<rect width="15.5772" height="145.71" transform="matrix(0.953611 0.30104 -0.301135 0.953582 464.468 2.0625)" fill="#F05213"/>
<rect width="15.5772" height="145.71" transform="matrix(0.953611 0.30104 -0.301135 0.953582 479.322 6.75098)" fill="#E11B18"/>
<rect width="15.5772" height="145.71" transform="matrix(0.953611 0.30104 -0.301135 0.953582 494.178 11.4414)" fill="#E70092"/>
<rect width="15.5772" height="145.71" transform="matrix(0.953611 0.30104 -0.301135 0.953582 509.031 16.1299)" fill="#C60691"/>
<rect width="15.5772" height="145.71" transform="matrix(0.953611 0.30104 -0.301135 0.953582 523.886 20.8203)" fill="#962390"/>
<rect width="15.5772" height="145.71" transform="matrix(0.953611 0.30104 -0.301135 0.953582 538.74 25.5088)" fill="#6C3582"/>
</g>
<path d="M52.668 169.551C52.668 167.892 52.1576 166.671 51.1367 165.887C50.1159 165.085 48.4297 164.684 46.0781 164.684H37.6836L33.6367 185.383H49.9336L52.2852 173.297C52.5404 171.802 52.668 170.553 52.668 169.551ZM56.0312 192H24.9688L31.5586 158.066H47.4727C51.8294 158.066 55.0469 158.868 57.125 160.473C59.2031 162.059 60.2422 164.538 60.2422 167.91C60.2422 169.478 60.0326 171.346 59.6133 173.516L56.0312 192ZM69.0895 158.066H76.4997L72.9723 176.086H65.5622L69.0895 158.066ZM107.66 192H100.277L103.913 173.297C104.169 171.802 104.296 170.553 104.296 169.551C104.296 167.892 103.786 166.671 102.765 165.887C101.744 165.085 100.058 164.684 97.7064 164.684H90.433L85.1009 192H77.7181L84.308 158.066H99.1009C103.476 158.066 106.693 158.868 108.753 160.473C110.831 162.059 111.87 164.538 111.87 167.91C111.87 169.478 111.661 171.346 111.242 173.516L107.66 192ZM121.839 158.066H129.249L122.632 192H115.249L121.839 158.066ZM137.057 158.066H144.467L137.85 192H130.467L137.057 158.066ZM165.401 169.551C165.401 167.892 164.881 166.671 163.842 165.887C162.803 165.085 161.08 164.684 158.674 164.684H147.299L148.584 158.066H160.397C164.717 158.066 167.889 158.85 169.912 160.418C171.936 161.986 172.948 164.483 172.948 167.91C172.948 169.569 172.747 171.438 172.346 173.516L168.682 192H161.299L164.991 173.297C165.264 172.094 165.401 170.845 165.401 169.551ZM196.303 158.066H204.779L212.9 173.406C214.45 172.185 215.689 170.845 216.619 169.387C217.549 167.928 218.305 166.151 218.888 164.055L220.611 158.066H228.185L226.217 164.547C225.688 166.315 225.004 167.901 224.166 169.305C223.345 170.69 222.334 172.003 221.131 173.242C219.946 174.464 218.023 176.086 215.361 178.109L222.853 192H214.568L204.588 173.078C203.731 173.534 203.047 174.062 202.537 174.664C202.045 175.266 201.534 176.132 201.006 177.262C200.495 178.392 199.866 180.005 199.119 182.102L195.537 192H187.853L192.338 180.68C193.978 176.669 195.428 173.898 196.685 172.367C197.961 170.818 199.775 169.578 202.127 168.648L196.303 158.066ZM233.97 158.066H241.38L237.853 176.086H230.443L233.97 158.066ZM246.673 164.684L247.958 158.066H259.497C263.872 158.066 267.09 158.868 269.15 160.473C271.228 162.059 272.267 164.538 272.267 167.91C272.267 169.569 272.066 171.438 271.665 173.516L269.368 185.383H273.005L271.72 192H240.083L241.368 185.383H261.958L264.31 173.297C264.583 171.693 264.72 170.444 264.72 169.551C264.72 167.892 264.2 166.671 263.161 165.887C262.14 165.085 260.454 164.684 258.103 164.684H246.673ZM300.966 157.902C304.83 157.902 307.674 158.75 309.497 160.445C311.32 162.122 312.231 164.693 312.231 168.156C312.231 168.885 312.204 169.578 312.149 170.234C312.113 170.872 312.031 171.592 311.903 172.395C311.794 173.178 310.563 179.714 308.212 192H290.548L291.86 185.383H302.032L304.001 175.32C304.42 172.914 304.63 171.118 304.63 169.934C304.63 168.056 304.256 166.689 303.509 165.832C302.761 164.975 301.54 164.547 299.845 164.547C297.73 164.547 295.752 165.577 293.911 167.637C292.07 169.678 289.983 173.361 287.649 178.684L281.77 192H273.868L280.321 177.836C280.868 176.615 281.552 175.184 282.372 173.543C283.21 171.902 283.903 170.645 284.45 169.77L279.856 158.449H287.704L289.509 163.508C290.967 161.758 292.68 160.391 294.649 159.406C296.636 158.404 298.742 157.902 300.966 157.902ZM337.239 158.066H344.813L342.106 167.418C341.395 169.952 340.575 171.975 339.645 173.488C338.715 174.983 337.576 176.168 336.227 177.043C334.878 177.9 332.955 178.592 330.457 179.121L326.165 180.078V185.684H326.793C331.442 185.684 335.124 185.292 337.84 184.508C340.556 183.706 342.717 182.43 344.321 180.68C345.943 178.93 347.301 176.305 348.395 172.805L352.989 158.066H360.59L355.997 172.613C354.484 177.408 352.898 180.971 351.239 183.305C349.598 185.638 347.52 187.434 345.004 188.691C342.489 189.949 339.226 190.861 335.215 191.426C331.223 191.991 325.791 192.273 318.918 192.273V158.066H326.165V174.418L328.27 174.035C329.692 173.78 330.804 173.324 331.606 172.668C332.408 172.012 333.11 171.046 333.711 169.77C334.331 168.475 334.969 166.607 335.625 164.164L337.239 158.066ZM401.5 169.551C401.5 167.892 400.989 166.671 399.969 165.887C398.948 165.085 397.262 164.684 394.91 164.684H386.515L382.469 185.383H398.765L401.117 173.297C401.372 171.802 401.5 170.553 401.5 169.551ZM404.863 192H373.801L380.39 158.066H396.305C400.661 158.066 403.879 158.868 405.957 160.473C408.035 162.059 409.074 164.538 409.074 167.91C409.074 169.478 408.864 171.346 408.445 173.516L404.863 192ZM419.07 158.066H426.48L419.863 192H412.48L419.07 158.066ZM434.808 164.684H429.64L430.925 158.066H449.409C454.003 158.066 457.448 158.896 459.745 160.555C462.042 162.214 463.191 164.611 463.191 167.746C463.191 169.751 462.79 172.613 461.987 176.332C461.204 180.033 459.973 183.049 458.296 185.383C456.637 187.716 454.514 189.493 451.925 190.715C449.336 191.936 446.374 192.547 443.038 192.547C438.572 192.547 435.163 191.535 432.812 189.512C430.478 187.488 429.312 184.562 429.312 180.734C429.312 179.003 429.53 177.079 429.968 174.965C430.405 172.85 431.089 170.845 432.019 168.949C432.948 167.053 433.878 165.632 434.808 164.684ZM441.234 164.684C440.614 165.613 440.003 166.862 439.402 168.43C438.818 169.979 438.271 171.811 437.761 173.926C437.251 176.04 436.995 178.073 436.995 180.023C436.995 181.992 437.579 183.478 438.745 184.48C439.912 185.465 441.543 185.957 443.64 185.957C445.627 185.957 447.322 185.592 448.726 184.863C450.129 184.134 451.287 183.022 452.198 181.527C453.128 180.033 453.866 178.036 454.413 175.539C454.96 173.023 455.234 170.891 455.234 169.141C455.234 167.591 454.659 166.461 453.511 165.75C452.362 165.039 450.549 164.684 448.07 164.684H441.234ZM483.14 169.551C483.14 167.892 482.62 166.671 481.581 165.887C480.542 165.085 478.819 164.684 476.413 164.684H465.038L466.323 158.066H478.136C482.456 158.066 485.628 158.85 487.651 160.418C489.675 161.986 490.686 164.483 490.686 167.91C490.686 169.569 490.486 171.438 490.085 173.516L486.421 192H479.038L482.729 173.297C483.003 172.094 483.14 170.845 483.14 169.551ZM493.436 192L494.721 185.383H507.053C509.204 185.383 511.018 185.036 512.495 184.344C513.989 183.633 515.22 182.521 516.186 181.008C517.152 179.495 517.881 177.544 518.374 175.156C518.884 172.768 519.139 170.763 519.139 169.141C519.139 166.169 516.842 164.684 512.249 164.684H505.932L504.483 172.012H511.128L509.842 178.629H495.733L499.78 158.066H513.315C517.909 158.066 521.354 158.896 523.651 160.555C525.948 162.214 527.096 164.611 527.096 167.746C527.096 169.824 526.577 173.26 525.538 178.055C524.48 182.794 522.357 186.303 519.167 188.582C515.976 190.861 511.711 192 506.37 192H493.436Z" fill="#C6058E"/>
</svg>
