<?xml version="1.0" encoding="UTF-8"?> <svg xmlns="http://www.w3.org/2000/svg" width="600" height="600" viewBox="0 0 600 600" fill="none"><rect width="600" height="600" fill="url(#paint0_linear_2101_119)"></rect><rect x="165" y="253" width="112" height="83" fill="#F4A201"></rect><path fill-rule="evenodd" clip-rule="evenodd" d="M87.9653 91.1449C86.3697 91.8618 83.9252 93.837 82.5322 95.5333C81.1401 97.2295 79.7509 100.031 79.4455 101.758C79.1401 103.487 79.0164 130.875 79.1695 162.622C79.4436 219.172 79.4893 220.399 81.4113 223.038C82.4903 224.519 84.5551 226.635 86.0005 227.741C88.5933 229.726 89.581 229.756 161.777 230.014L234.928 230.275L240.684 237.497C243.85 241.468 246.44 244.972 246.44 245.282C246.44 245.593 226.939 245.847 203.103 245.847C159.766 245.847 159.766 245.847 157.431 248.241C155.471 250.249 155.095 251.576 155.095 256.461V262.287L150.099 261.764C147.351 261.475 143.247 261.753 140.979 262.381C138.188 263.155 135.218 265.16 131.794 268.585C128.415 271.963 126.387 274.943 125.695 277.548C125.124 279.694 124.657 288.253 124.657 296.568C124.657 304.883 125.124 313.443 125.695 315.589C126.387 318.193 128.415 321.173 131.794 324.552C135.218 327.976 138.188 329.982 140.979 330.755C143.247 331.383 147.351 331.661 150.099 331.373L155.095 330.849V336.675C155.095 341.56 155.471 342.887 157.431 344.895C159.75 347.274 159.886 347.289 178.364 347.289H196.961V361.204V375.119L192.442 376.774C189.955 377.684 184.758 381.08 180.89 384.318L173.859 390.207H149.366H124.872L123.79 385.801C123.155 383.216 121.265 379.758 119.222 377.438C117.305 375.264 114.141 372.65 112.191 371.63C110.24 370.61 106.923 369.494 104.819 369.148C102.714 368.803 98.8373 369.051 96.2035 369.699C93.0017 370.486 89.9388 372.208 86.9605 374.896C84.5113 377.106 81.7206 380.687 80.7605 382.854C79.1381 386.517 79.0145 390.464 79.0002 438.978C78.9907 470.257 79.3589 492.546 79.9203 494.616C80.4351 496.516 81.9432 499.58 83.2706 501.426C84.5989 503.27 87.4192 505.974 89.5382 507.433C91.6572 508.891 95.2853 510.377 97.6004 510.733C99.9154 511.089 103.704 511.089 106.019 510.733C108.334 510.377 112.028 508.847 114.228 507.332C116.428 505.818 119.437 502.734 120.913 500.479C122.391 498.223 123.884 494.437 124.231 492.064L124.862 487.748H141.87H158.877L161.232 491.572C162.527 493.675 165.017 496.514 166.765 497.882C168.513 499.249 172.183 500.859 174.919 501.461C178.178 502.178 189.485 502.436 207.696 502.211C232.503 501.904 235.856 501.672 238.828 500.063C240.659 499.071 243.586 496.882 245.331 495.199C247.077 493.515 249.136 490.902 249.908 489.391C250.68 487.88 253.647 475.215 256.5 461.248C259.354 447.281 262.38 433.687 263.225 431.041C264.311 427.633 264.632 424.035 264.321 418.704C264.015 413.458 263.219 409.849 261.691 406.789C260.486 404.375 258.73 401.389 257.788 400.153C256.847 398.917 255.138 394.967 253.992 391.374C252.352 386.234 250.921 383.878 247.271 380.314L242.634 375.784V361.537V347.289L258.572 347.336L274.51 347.384L298.297 368.208L322.085 389.032L322.561 445.147C323.025 499.912 323.084 501.328 324.999 503.956C326.078 505.437 328.143 507.553 329.588 508.659C332.198 510.657 332.808 510.671 421.518 510.671C510.229 510.671 510.839 510.657 513.449 508.659C514.894 507.553 516.959 505.437 518.038 503.955C519.97 501.302 520 500.343 520 440.929C520 381.515 519.97 380.556 518.038 377.903C516.959 376.421 514.894 374.304 513.45 373.198C510.888 371.238 509.611 371.18 462.381 370.918L413.94 370.648L413.685 265.574C413.45 168.314 413.309 160.27 411.793 157.432C410.893 155.745 408.814 152.989 407.172 151.307C405.532 149.625 402.862 147.546 401.241 146.686C399.619 145.826 395.689 144.909 392.506 144.647C387.89 144.267 385.707 144.617 381.717 146.377C378.801 147.662 375.358 150.207 373.462 152.478C371.673 154.621 369.635 158.139 368.934 160.297C367.812 163.747 362.22 168.954 322.511 203.532L277.364 242.845L276.888 171.261C276.42 100.87 276.38 99.6319 274.451 96.9847C273.372 95.503 271.307 93.3864 269.861 92.2803C267.257 90.2865 266.468 90.267 179.051 90.0554C107.193 89.8817 90.3299 90.0827 87.9653 91.1449ZM261.634 171.96C261.604 238.531 261.604 238.531 259.493 236.028C258.332 234.652 254.685 230.133 251.388 225.987C248.092 221.84 244.024 217.591 242.348 216.545C239.4 214.701 237.023 214.641 166.751 214.638L94.1978 214.634V160.011V105.388H177.931H261.664L261.634 171.96ZM119.37 131.192C117.897 132.701 117.034 134.701 117.034 136.601C117.034 138.501 117.897 140.501 119.37 142.01C121.705 144.404 121.705 144.404 174.125 144.404C226.545 144.404 226.545 144.404 228.88 142.01C230.353 140.501 231.216 138.501 231.216 136.601C231.216 134.701 230.353 132.701 228.88 131.192C226.545 128.798 226.545 128.798 174.125 128.798C121.705 128.798 121.705 128.798 119.37 131.192ZM394.251 161.093C395.526 161.689 397.045 163.246 397.626 164.553C398.379 166.248 398.682 196.223 398.682 268.815V370.699H391.07H383.458V268.815C383.458 196.014 383.76 166.249 384.518 164.545C385.101 163.234 386.492 161.706 387.61 161.152C388.728 160.597 390.157 160.113 390.787 160.077C391.417 160.04 392.975 160.498 394.251 161.093ZM119.37 170.209C117.897 171.718 117.034 173.717 117.034 175.617C117.034 177.517 117.897 179.517 119.37 181.026C121.705 183.421 121.705 183.421 174.125 183.421C226.545 183.421 226.545 183.421 228.88 181.026C230.353 179.517 231.216 177.517 231.216 175.617C231.216 173.717 230.353 171.718 228.88 170.209C226.545 167.814 226.545 167.814 174.125 167.814C121.705 167.814 121.705 167.814 119.37 170.209ZM368.234 278.035C368.234 368.908 368.198 370.699 366.398 370.699C365.226 370.699 361.705 367.121 356.645 360.788C352.291 355.337 347.519 349.96 346.041 348.839C344.037 347.319 341.941 346.802 337.785 346.802C333.644 346.802 331.541 347.318 329.588 348.813C328.143 349.919 326.105 351.998 325.061 353.433C323.822 355.134 323.015 358.099 322.744 361.949C322.514 365.197 322.005 367.727 321.612 367.57C321.22 367.414 312.737 360.262 302.761 351.679L284.622 336.072L284.624 296.568L284.626 257.064L326.111 221.218C348.927 201.502 367.739 185.371 367.914 185.371C368.09 185.371 368.234 227.07 368.234 278.035ZM461.915 244.34C459.579 246.733 459.579 246.733 459.579 296.568C459.579 346.403 459.579 346.403 461.915 348.796C463.387 350.306 465.337 351.191 467.191 351.191C469.045 351.191 470.995 350.306 472.467 348.796C474.803 346.403 474.803 346.403 474.803 296.568C474.803 246.733 474.803 246.733 472.467 244.34C470.995 242.83 469.045 241.945 467.191 241.945C465.337 241.945 463.387 242.83 461.915 244.34ZM269.276 296.568V331.683H219.798H170.319V296.568V261.453H219.798H269.276V296.568ZM431.466 263.848C429.13 266.242 429.13 266.242 429.13 296.568C429.13 326.895 429.13 326.895 431.466 329.288C432.938 330.798 434.889 331.683 436.743 331.683C438.596 331.683 440.547 330.798 442.019 329.288C444.355 326.895 444.355 326.895 444.355 296.568C444.355 266.242 444.355 266.242 442.019 263.848C440.547 262.338 438.596 261.453 436.743 261.453C434.889 261.453 432.938 262.338 431.466 263.848ZM150.663 278.143C151.938 278.739 153.457 280.295 154.038 281.602C154.638 282.952 155.095 289.419 155.095 296.568C155.095 303.847 154.641 310.177 154.019 311.575C153.429 312.905 151.716 314.516 150.213 315.154C148.104 316.049 146.861 316.049 144.752 315.154C143.249 314.516 141.536 312.905 140.946 311.575C140.324 310.177 139.87 303.847 139.87 296.568C139.87 289.394 140.326 282.953 140.93 281.595C141.514 280.283 142.905 278.755 144.023 278.201C145.141 277.646 146.57 277.162 147.2 277.126C147.83 277.089 149.387 277.548 150.663 278.143ZM227.41 360.945V374.601H219.798H212.185V360.945V347.289H219.798H227.41V360.945ZM348.062 374.953C351.358 379.099 355.425 383.348 357.101 384.395C360.05 386.239 362.427 386.299 432.699 386.302L505.252 386.306V440.929V495.552H421.518H337.785L337.816 428.98C337.845 362.408 337.845 362.408 339.957 364.911C341.117 366.288 344.765 370.807 348.062 374.953ZM104.991 387.389C106.266 387.984 107.784 389.541 108.366 390.848C109.094 392.487 109.422 408.046 109.422 440.929C109.422 474.305 109.099 489.359 108.347 491.05C107.756 492.381 106.043 493.991 104.541 494.629C102.431 495.524 101.189 495.524 99.079 494.629C97.5766 493.991 95.8639 492.381 95.273 491.05C94.5203 489.359 94.1978 474.305 94.1978 440.929C94.1978 407.947 94.5251 392.489 95.2577 390.841C95.841 389.529 97.2321 388.001 98.3502 387.447C99.4682 386.892 100.897 386.408 101.527 386.372C102.157 386.335 103.715 386.794 104.991 387.389ZM239.797 398.498C241.115 402.254 243.56 407.468 245.229 410.086C246.898 412.704 248.528 416.655 248.85 418.865C249.214 421.36 248.902 424.548 248.028 427.273C247.252 429.687 244.401 442.855 241.69 456.535C237.869 475.817 236.311 481.905 234.761 483.617C232.761 485.826 232.761 485.826 204.236 485.567L175.712 485.31L172.738 480.921C170.976 478.321 168.049 475.636 165.557 474.337C161.627 472.285 160.151 472.142 142.999 472.142H124.646V439.466V406.789H150.275C164.371 406.789 176.896 406.399 178.107 405.923C179.318 405.446 184.121 401.926 188.777 398.1L197.246 391.145L217.323 391.408L237.401 391.671L239.797 398.498ZM370.57 419.914C369.097 421.423 368.234 423.422 368.234 425.322C368.234 427.222 369.097 429.222 370.57 430.731C372.905 433.126 372.905 433.125 425.324 433.125C477.744 433.125 477.744 433.126 480.079 430.731C481.552 429.222 482.415 427.222 482.415 425.322C482.415 423.422 481.552 421.423 480.079 419.914C477.744 417.519 477.744 417.519 425.324 417.519C372.905 417.519 372.905 417.519 370.57 419.914ZM370.57 458.93C369.097 460.439 368.234 462.439 368.234 464.339C368.234 466.239 369.097 468.238 370.57 469.747C372.905 472.142 372.905 472.142 425.324 472.142C477.744 472.142 477.744 472.142 480.079 469.747C481.552 468.238 482.415 466.239 482.415 464.339C482.415 462.439 481.552 460.439 480.079 458.93C477.744 456.535 477.744 456.535 425.324 456.535C372.905 456.535 372.905 456.535 370.57 458.93Z" fill="#661662"></path><defs><linearGradient id="paint0_linear_2101_119" x1="600" y1="-1.83433e-05" x2="-631" y2="1452" gradientUnits="userSpaceOnUse"><stop stop-color="white"></stop><stop offset="1" stop-color="white" stop-opacity="0"></stop></linearGradient></defs></svg> 