<?xml version="1.0" encoding="UTF-8"?> <svg xmlns="http://www.w3.org/2000/svg" width="600" height="600" viewBox="0 0 600 600" fill="none"><rect width="600" height="600" fill="url(#paint0_linear_2101_121)"></rect><ellipse cx="303.728" cy="206.471" rx="33.3554" ry="34.0927" fill="#F4A201"></ellipse><path fill-rule="evenodd" clip-rule="evenodd" d="M292.843 73.9829C290.3 76.7245 285.627 82.3532 282.456 86.4927C279.287 90.6322 273.492 99.0078 269.582 105.105C265.671 111.201 259.695 121.929 256.303 128.942C252.911 135.955 248.695 145.687 246.935 150.568C245.175 155.449 242.404 164.186 240.777 169.984C239.15 175.781 236.974 185.58 235.942 191.759C234.91 197.938 233.591 209.655 233.01 217.796C232.19 229.299 232.193 236.256 233.024 249.004C233.613 258.027 234.291 266.222 234.534 267.216C234.855 268.534 228.518 278.045 211.069 302.434C194.851 325.104 187.16 336.583 187.148 338.138C187.138 339.398 190.713 349.557 195.092 360.714C200.561 374.645 203.767 381.635 205.327 383.03C206.577 384.148 208.589 385.062 209.797 385.062C211.171 385.062 220.157 379.457 233.781 370.103C245.764 361.875 255.861 355.476 256.219 355.88C256.578 356.285 258.362 360.587 260.185 365.44C262.1 370.541 264.286 374.828 265.367 375.599C266.395 376.334 268.532 376.934 270.116 376.934H272.995L267.704 387.895C264.795 393.922 262.414 399.428 262.414 400.13C262.414 400.831 263 402.561 263.716 403.972C264.444 405.408 266.258 406.98 267.834 407.54C269.679 408.196 280.938 408.541 300.499 408.541C320.061 408.541 331.319 408.196 333.164 407.54C334.74 406.98 336.554 405.408 337.282 403.972C337.999 402.561 338.584 400.831 338.584 400.13C338.584 399.428 336.203 393.922 333.294 387.895L328.003 376.934H330.882C332.466 376.934 334.603 376.334 335.631 375.599C336.712 374.828 338.898 370.541 340.813 365.44C342.636 360.587 344.42 356.285 344.779 355.88C345.137 355.476 355.234 361.875 367.217 370.103C380.841 379.457 389.827 385.062 391.201 385.062C392.41 385.062 394.421 384.148 395.671 383.03C397.231 381.635 400.437 374.645 405.906 360.714C410.285 349.557 413.86 339.398 413.85 338.138C413.838 336.583 406.147 325.104 389.929 302.434C372.48 278.045 366.143 268.534 366.464 267.216C366.707 266.222 367.385 258.027 367.974 249.004C368.805 236.256 368.808 229.299 367.988 217.796C367.407 209.655 366.088 197.938 365.056 191.759C364.024 185.58 361.848 175.781 360.222 169.984C358.595 164.186 355.823 155.449 354.063 150.568C352.303 145.687 348.087 135.955 344.695 128.942C341.303 121.929 335.327 111.201 331.416 105.105C327.506 99.0078 321.711 90.6322 318.542 86.4927C315.371 82.3532 310.698 76.7245 308.155 73.9829C304.301 69.8281 303.029 69 300.499 69C297.969 69 296.697 69.8281 292.843 73.9829ZM308.223 98.5743C312.158 103.914 317.188 111.162 319.402 114.682C321.615 118.202 325.628 125.323 328.32 130.508C331.011 135.693 335.045 144.392 337.283 149.839C339.521 155.286 342.485 163.627 343.868 168.375C345.251 173.123 347.22 180.948 348.243 185.763C349.266 190.578 350.515 197.465 351.018 201.067C351.521 204.668 352.299 213.485 352.747 220.659C353.24 228.567 353.242 239.101 352.752 247.414C352.306 254.955 351.131 266.781 350.141 273.692C349.15 280.603 346.726 292.946 344.753 301.119C342.78 309.293 339.541 321.262 337.553 327.719C335.566 334.176 332.153 344.436 329.968 350.521L325.995 361.583H300.499H275.003L271.03 350.521C268.845 344.436 265.432 334.176 263.445 327.719C261.458 321.262 258.218 309.293 256.245 301.119C254.272 292.946 251.848 280.603 250.857 273.692C249.867 266.781 248.692 254.955 248.246 247.414C247.756 239.101 247.758 228.567 248.251 220.659C248.699 213.485 249.477 204.668 249.98 201.067C250.483 197.465 251.732 190.578 252.755 185.763C253.778 180.948 255.747 173.123 257.13 168.375C258.513 163.627 261.477 155.286 263.715 149.839C265.953 144.392 269.987 135.693 272.678 130.508C275.37 125.323 279.383 118.202 281.596 114.682C283.81 111.162 288.84 103.914 292.775 98.5743C296.71 93.2347 300.185 88.8667 300.499 88.8667C300.813 88.8667 304.288 93.2347 308.223 98.5743ZM289.416 170.81C286.974 171.699 283.174 173.504 280.972 174.819C278.769 176.135 275.06 179.291 272.729 181.832C270.398 184.373 267.503 188.65 266.297 191.336C265.091 194.022 263.704 198.754 263.215 201.852C262.615 205.644 262.62 209.414 263.225 213.385C263.721 216.63 265.329 221.775 266.798 224.818C268.4 228.135 271.425 232.238 274.349 235.057C277.032 237.644 281.921 241.062 285.213 242.652C290.765 245.334 291.873 245.543 300.499 245.543C309.125 245.543 310.233 245.334 315.785 242.652C319.077 241.062 323.966 237.644 326.649 235.057C329.573 232.238 332.598 228.135 334.2 224.818C335.669 221.775 337.277 216.63 337.773 213.385C338.387 209.358 338.383 205.644 337.757 201.684C337.253 198.493 335.645 193.406 334.184 190.38C332.598 187.096 329.561 182.983 326.649 180.174C323.921 177.544 319.132 174.211 315.785 172.612C310.714 170.191 308.581 169.712 301.828 169.473C295.857 169.263 292.742 169.599 289.416 170.81ZM98.8542 177.327C97.3113 177.702 94.191 179.119 91.921 180.475C89.4853 181.931 86.7503 184.619 85.2455 187.037C83.8443 189.291 82.274 193.218 81.7559 195.763C81.1075 198.954 80.8888 249.051 81.0517 357.068C81.2891 513.744 81.2891 513.744 83.3616 517.808C84.5006 520.043 86.4934 523.026 87.7901 524.438C89.0859 525.848 91.7403 527.88 93.6888 528.953C97.2316 530.902 97.2316 530.902 300.499 530.902C503.766 530.902 503.766 530.902 507.309 528.953C509.258 527.88 511.912 525.848 513.208 524.438C514.505 523.026 516.497 520.043 517.636 517.808C519.709 513.744 519.709 513.744 519.946 357.068C520.113 246.913 519.898 198.986 519.221 195.659C518.691 193.057 516.991 189.028 515.441 186.705C513.626 183.985 510.89 181.492 507.752 179.697L502.881 176.912L440.439 176.673C379.951 176.442 377.91 176.49 375.203 178.188C373.471 179.276 372.188 180.971 371.826 182.65C371.454 184.378 371.735 186.33 372.6 188.037C373.381 189.577 375.154 191.139 376.774 191.715C378.729 192.409 398.065 192.716 439.974 192.716C500.357 192.716 500.357 192.716 502.284 194.805C504.146 196.827 504.209 197.579 504.209 217.833V238.77H442.171C380.131 238.77 380.131 238.77 377.958 240.987C376.618 242.352 375.783 244.241 375.783 245.903C375.783 247.455 376.692 249.68 377.92 251.136L380.058 253.67L442.133 253.914L504.209 254.158L504.181 382.596C504.158 486.537 503.933 511.329 503.002 512.58C502.369 513.43 500.761 514.547 499.429 515.063C497.781 515.702 434.317 516.002 300.499 516.002C166.681 516.002 103.217 515.702 101.569 515.063C100.237 514.547 98.6293 513.43 97.996 512.58C97.0651 511.329 96.8402 486.537 96.8171 382.596L96.7888 254.158L158.865 253.914L220.94 253.67L223.078 251.136C224.306 249.68 225.215 247.455 225.215 245.903C225.215 244.241 224.38 242.352 223.04 240.987C220.867 238.77 220.867 238.77 158.827 238.77H96.7888V217.706C96.7888 196.856 96.8092 196.623 98.8383 194.679C100.889 192.716 100.889 192.716 161.148 192.716C202.966 192.716 222.27 192.409 224.224 191.715C225.844 191.139 227.617 189.577 228.398 188.037C229.263 186.33 229.544 184.378 229.172 182.65C228.809 180.963 227.534 179.287 225.795 178.205C223.106 176.533 220.721 176.471 162.33 176.557C128.962 176.605 100.397 176.952 98.8542 177.327ZM307.202 185.917C309.605 186.647 313.117 188.549 315.006 190.142C316.895 191.736 319.383 195.1 320.533 197.618C321.999 200.829 322.624 203.816 322.624 207.616C322.624 211.416 321.999 214.402 320.533 217.613C319.383 220.132 316.918 223.473 315.055 225.038C313.193 226.603 309.882 228.505 307.698 229.263C305.514 230.022 302.274 230.643 300.499 230.643C298.724 230.643 295.484 230.022 293.3 229.263C291.116 228.505 287.805 226.603 285.943 225.038C284.08 223.473 281.615 220.132 280.465 217.613C278.999 214.402 278.374 211.416 278.374 207.616C278.374 203.816 278.999 200.829 280.465 197.618C281.615 195.1 284.103 191.734 285.992 190.138C287.881 188.543 291.221 186.67 293.413 185.976C295.606 185.282 298.622 184.686 300.116 184.651C301.611 184.616 304.8 185.186 307.202 185.917ZM113.771 210.157C112.549 211.484 111.846 213.405 111.846 215.418C111.846 217.563 112.49 219.181 113.838 220.418C114.934 221.424 116.551 222.507 117.431 222.824C118.31 223.141 120.334 222.845 121.928 222.166C123.721 221.402 125.263 219.857 125.972 218.112C126.897 215.833 126.903 214.764 126.003 212.548C125.39 211.039 124.172 209.414 123.297 208.936C122.421 208.458 120.353 208.067 118.701 208.067C116.706 208.067 115.05 208.77 113.771 210.157ZM143.885 210.157C142.663 211.484 141.959 213.405 141.959 215.418C141.959 217.563 142.604 219.181 143.952 220.418C145.048 221.424 146.665 222.507 147.545 222.824C148.424 223.141 150.52 222.815 152.2 222.098C154.061 221.306 155.619 219.823 156.185 218.305C156.696 216.935 156.883 214.873 156.6 213.724C156.317 212.574 155.299 210.831 154.337 209.851C153.205 208.697 151.392 208.067 149.199 208.067C146.802 208.067 145.247 208.678 143.885 210.157ZM173.909 210.447C172.899 211.755 172.073 213.968 172.073 215.363C172.073 216.758 173.018 219.02 174.172 220.388C175.772 222.284 177.066 222.877 179.601 222.877C182.137 222.877 183.431 222.284 185.031 220.388C186.226 218.97 187.13 216.738 187.13 215.2C187.13 213.538 186.295 211.649 184.955 210.284C183.377 208.674 181.818 208.067 179.263 208.067C176.517 208.067 175.341 208.589 173.909 210.447ZM248.166 330.367C249.687 335.299 250.626 339.608 250.252 339.943C249.878 340.277 241.443 346.104 231.508 352.892C221.573 359.68 213.367 365.124 213.274 364.989C213.18 364.854 211.044 359.461 208.527 353.004C206.01 346.547 203.953 340.729 203.955 340.075C203.956 339.421 211.618 328.143 220.982 315.012L238.006 291.139L241.702 306.268C243.736 314.59 246.644 325.434 248.166 330.367ZM380.539 315.681C389.614 328.43 397.042 339.402 397.043 340.063C397.045 340.724 394.988 346.547 392.471 353.004C389.954 359.461 387.818 364.854 387.724 364.989C387.631 365.124 379.425 359.68 369.49 352.892C359.555 346.104 351.125 340.28 350.755 339.952C350.386 339.623 351.835 333.485 353.975 326.312C356.115 319.139 358.983 308.288 360.348 302.198C361.714 296.108 363.103 291.435 363.435 291.814C363.766 292.191 371.464 302.932 380.539 315.681ZM314.466 384.61L318.2 392.286H300.499H282.798L286.532 384.61L290.266 376.934H300.499H310.732L314.466 384.61ZM267.215 424.278C265.651 424.968 264.018 426.64 263.385 428.199C262.624 430.072 262.37 435.001 262.568 444.041C262.842 456.487 262.968 457.284 265.004 459.491C266.463 461.073 268.081 461.82 270.048 461.82C271.832 461.82 273.897 460.983 275.428 459.641C277.914 457.461 277.914 457.461 277.914 442.954C277.914 428.666 277.88 428.415 275.7 426.263C274.482 425.061 272.688 423.852 271.714 423.576C270.74 423.301 268.716 423.616 267.215 424.278ZM328.398 423.842C327.424 424.25 325.83 425.485 324.856 426.589C323.24 428.42 323.084 429.868 323.084 443.029C323.084 457.461 323.084 457.461 325.57 459.641C327.101 460.983 329.166 461.82 330.95 461.82C332.917 461.82 334.535 461.073 335.994 459.491C338.03 457.284 338.156 456.487 338.43 444.041C338.628 434.995 338.374 430.072 337.612 428.197C336.941 426.543 335.363 424.988 333.589 424.233C331.983 423.549 330.557 423.015 330.42 423.046C330.282 423.078 329.373 423.436 328.398 423.842ZM295.118 441.574C293.032 443.837 292.971 444.312 292.971 458.207C292.971 472.102 293.032 472.577 295.118 474.84C296.666 476.521 298.168 477.171 300.499 477.171C302.83 477.171 304.332 476.521 305.881 474.84C307.966 472.577 308.027 472.102 308.027 458.207C308.027 444.312 307.966 443.837 305.881 441.574C304.332 439.894 302.83 439.244 300.499 439.244C298.168 439.244 296.666 439.894 295.118 441.574Z" fill="#661662"></path><defs><linearGradient id="paint0_linear_2101_121" x1="600" y1="-1.83433e-05" x2="-631" y2="1452" gradientUnits="userSpaceOnUse"><stop stop-color="white"></stop><stop offset="1" stop-color="white" stop-opacity="0"></stop></linearGradient></defs></svg> 