<?xml version="1.0" encoding="UTF-8"?> <svg xmlns="http://www.w3.org/2000/svg" width="600" height="600" viewBox="0 0 600 600" fill="none"><rect width="600" height="600" fill="url(#paint0_linear_2101_118)"></rect><rect x="345" y="254" width="101" height="88" fill="#F4A201"></rect><rect x="160" y="254" width="101" height="88" fill="#F4A201"></rect><path fill-rule="evenodd" clip-rule="evenodd" d="M105.284 77.8022C102.37 78.7588 98.0087 81.083 95.5918 82.9664C93.1748 84.8507 89.6911 88.4151 87.8499 90.8875C86.0096 93.3598 83.7145 97.9657 82.7511 101.123C81.0344 106.751 81 109.811 81 256.622C81 403.433 81.0344 406.493 82.7511 412.121C83.7145 415.278 86.0096 419.884 87.8499 422.357C89.6911 424.829 93.1748 428.393 95.5918 430.276C98.0087 432.158 102.511 434.506 105.598 435.492C110.954 437.201 113.846 437.283 168.958 437.283C200.719 437.283 226.715 437.587 226.727 437.96C226.739 438.333 224.473 448.044 221.692 459.54L216.637 480.442L208.646 480.823C203.062 481.089 199.406 481.778 196.508 483.108C194.227 484.156 190.519 486.897 188.269 489.199C186.018 491.501 183.337 495.294 182.31 497.627C180.959 500.697 180.341 504.285 180.073 510.615C179.716 519.04 179.786 519.446 181.97 521.68L184.238 524H300H415.762L418.03 521.68C420.214 519.446 420.284 519.04 419.927 510.615C419.659 504.285 419.041 500.697 417.69 497.627C416.663 495.294 413.982 491.501 411.731 489.199C409.481 486.897 405.773 484.156 403.492 483.108C400.594 481.778 396.938 481.089 391.354 480.823L383.363 480.442L378.308 459.54C375.527 448.044 373.261 438.333 373.273 437.96C373.285 437.587 399.281 437.283 431.042 437.283C486.154 437.283 489.046 437.201 494.402 435.492C497.489 434.506 501.991 432.158 504.408 430.276C506.825 428.393 510.309 424.829 512.15 422.357C513.99 419.884 516.285 415.278 517.249 412.121C518.966 406.493 519 403.433 519 256.622C519 109.811 518.966 106.751 517.249 101.123C516.285 97.9657 513.99 93.3598 512.15 90.8875C510.309 88.4151 506.825 84.8516 504.408 82.9682C501.991 81.0857 497.489 78.738 494.402 77.7525C488.877 75.9893 485.862 75.9622 299.687 76.0118C115.525 76.0615 110.444 76.1085 105.284 77.8022ZM492.95 92.8151C494.892 93.8882 497.529 95.9207 498.81 97.3316C500.09 98.7435 501.878 101.322 502.783 103.06C504.37 106.109 504.429 111.608 504.429 256.622C504.429 401.636 504.37 407.135 502.783 410.184C501.878 411.923 500.09 414.501 498.81 415.912C497.529 417.323 494.892 419.356 492.95 420.429C489.417 422.378 489.417 422.378 300 422.378C116.877 422.378 110.48 422.322 107.492 420.695C105.792 419.769 103.272 417.939 101.892 416.63C100.512 415.32 98.5253 412.623 97.4762 410.635C95.5706 407.022 95.5706 407.022 95.5706 256.622C95.5706 111.608 95.6297 106.109 97.2166 103.06C98.1217 101.322 99.9099 98.7444 101.19 97.3343C102.471 95.9234 104.708 94.1339 106.162 93.358C107.616 92.5821 109.801 91.6354 111.019 91.2542C112.236 90.873 197.874 90.6291 301.325 90.7131C489.417 90.8658 489.417 90.8658 492.95 92.8151ZM111.426 107.085L109.258 109.301V242.169V375.037L111.426 377.254L113.593 379.471H300H486.407L488.574 377.254L490.742 375.037V242.169V109.301L488.574 107.085L486.407 104.867H300H113.593L111.426 107.085ZM292.935 242.169V365.019H208.161H123.387V242.169V119.32H208.161H292.935V242.169ZM476.613 242.169V365.019H391.839H307.065V242.169V119.32H391.839H476.613V242.169ZM197.123 135.614C194.209 136.57 189.847 138.894 187.43 140.778C185.014 142.662 181.53 146.227 179.689 148.699C177.848 151.171 175.553 155.777 174.59 158.934C172.969 164.246 172.839 167.304 172.839 199.809V234.943H179.903H186.968V224.103V213.263H208.161H229.355V224.103V234.943H236.419H243.484V199.809C243.484 167.304 243.353 164.246 241.733 158.934C240.769 155.777 238.474 151.171 236.634 148.699C234.793 146.227 231.309 142.663 228.892 140.78C226.475 138.897 221.972 136.549 218.886 135.564C215.706 134.55 210.922 133.794 207.848 133.823C204.863 133.851 200.037 134.657 197.123 135.614ZM358.738 135.934C356.516 138.207 356.516 138.207 356.516 184.358C356.516 230.508 356.516 230.508 358.738 232.781C360.96 235.054 360.96 235.054 383.684 234.772C404.706 234.512 406.716 234.347 410.491 232.561C412.736 231.498 416.202 229.125 418.192 227.285C420.182 225.446 422.851 221.765 424.124 219.105C425.449 216.334 426.639 211.979 426.912 208.905C427.175 205.947 426.904 201.482 426.311 198.95C425.718 196.424 423.693 192.108 421.81 189.358L418.385 184.358L421.81 179.357C423.693 176.607 425.718 172.291 426.311 169.766C426.904 167.234 427.175 162.769 426.912 159.81C426.639 156.737 425.449 152.382 424.124 149.61C422.851 146.95 420.182 143.269 418.192 141.43C416.202 139.591 412.736 137.217 410.491 136.155C406.716 134.369 404.706 134.204 383.684 133.943C360.96 133.662 360.96 133.662 358.738 135.934ZM217.541 150.776C219.425 151.767 222.013 153.732 223.293 155.143C224.574 156.555 226.362 159.133 227.267 160.872C228.674 163.575 228.955 166.559 229.201 181.422L229.49 198.811H208.161H186.833L187.121 181.422C187.368 166.559 187.649 163.575 189.055 160.872C189.96 159.133 191.749 156.556 193.029 155.146C194.31 153.735 196.546 151.945 198.001 151.169C199.454 150.394 201.64 149.424 202.858 149.017C204.074 148.609 207.106 148.433 209.594 148.625C212.082 148.817 215.659 149.785 217.541 150.776ZM405.118 150.258C407.997 151.743 409.594 153.376 411.045 156.321C412.139 158.538 413.032 161.398 413.032 162.678C413.032 163.958 412.139 166.819 411.045 169.036C409.594 171.981 407.997 173.614 405.118 175.099C401.485 176.973 399.988 177.131 385.912 177.131H370.645V162.678V148.226H385.912C399.988 148.226 401.485 148.384 405.118 150.258ZM405.118 193.617C407.997 195.102 409.594 196.735 411.045 199.68C412.139 201.896 413.032 204.757 413.032 206.037C413.032 207.317 412.139 210.178 411.045 212.394C409.594 215.339 407.997 216.972 405.118 218.457C401.485 220.332 399.988 220.49 385.912 220.49H370.645V206.037V191.584H385.912C399.988 191.584 401.485 191.742 405.118 193.617ZM153.813 251.613C151.645 253.83 151.645 253.83 151.645 299.981C151.645 346.131 151.645 346.131 153.813 348.348C155.98 350.566 155.98 350.566 208.161 350.566C260.342 350.566 260.342 350.566 262.509 348.348C264.677 346.131 264.677 346.131 264.677 299.981C264.677 253.83 264.677 253.83 262.509 251.613C260.342 249.396 260.342 249.396 208.161 249.396C155.98 249.396 155.98 249.396 153.813 251.613ZM337.49 251.613C335.323 253.83 335.323 253.83 335.323 299.981C335.323 346.131 335.323 346.131 337.49 348.348C339.658 350.566 339.658 350.566 391.839 350.566C444.02 350.566 444.02 350.566 446.187 348.348C448.355 346.131 448.355 346.131 448.355 299.981C448.355 253.83 448.355 253.83 446.187 251.613C444.02 249.396 444.02 249.396 391.839 249.396C339.658 249.396 339.658 249.396 337.49 251.613ZM250.548 299.981V336.113H208.161H165.774V299.981V263.848H208.161H250.548V299.981ZM434.226 299.981V336.113H391.839H349.452V299.981V263.848H391.839H434.226V299.981ZM186.737 278.066L181.676 283.242L189.824 291.612L197.971 299.981L189.824 308.35L181.676 316.719L186.737 321.896L191.798 327.073L199.98 318.739L208.161 310.405L216.343 318.739L224.524 327.073L229.585 321.896L234.646 316.719L226.499 308.35L218.352 299.981L226.499 291.612L234.646 283.242L229.585 278.066L224.524 272.889L216.343 281.223L208.161 289.557L199.98 281.223L191.798 272.889L186.737 278.066ZM400.006 288.458L384.802 304.011L380.124 299.286L375.446 294.561L370.38 299.798L365.314 305.035L373.601 313.348C380.706 320.475 382.307 321.66 384.834 321.66C387.493 321.66 389.629 319.776 406.611 302.458L425.439 283.258L420.326 278.081L415.212 272.904L400.006 288.458ZM434.226 401.151V408.377H441.29H448.355V401.151V393.924H441.29H434.226V401.151ZM462.484 401.151V408.377H469.548H476.613V401.151V393.924H469.548H462.484V401.151ZM362.959 458.285C365.753 469.836 368.03 479.591 368.017 479.964C368.006 480.337 337.398 480.641 300 480.641C262.602 480.641 231.994 480.337 231.983 479.964C231.97 479.591 234.247 469.836 237.041 458.285L242.121 437.283H300H357.879L362.959 458.285ZM398.033 497.127C400.19 498.245 402.631 500.379 403.458 501.869C404.285 503.36 405.231 505.697 405.561 507.063L406.159 509.547H300H193.841L194.439 507.063C194.769 505.697 195.715 503.36 196.542 501.869C197.369 500.379 199.81 498.245 201.967 497.127C205.887 495.094 205.887 495.094 300 495.094C394.113 495.094 394.113 495.094 398.033 497.127Z" fill="#661662"></path><defs><linearGradient id="paint0_linear_2101_118" x1="600" y1="-1.83433e-05" x2="-631" y2="1452" gradientUnits="userSpaceOnUse"><stop stop-color="white"></stop><stop offset="1" stop-color="white" stop-opacity="0"></stop></linearGradient></defs></svg> 