<?xml version="1.0" encoding="UTF-8"?> <svg xmlns="http://www.w3.org/2000/svg" width="600" height="600" viewBox="0 0 600 600" fill="none"><rect width="600" height="600" fill="url(#paint0_linear_2101_116)"></rect><path d="M89 290.899C91.4516 325.857 115.9 341.532 127.817 345H184V242H132.925C103.505 246.162 91.3835 276.333 89 290.899Z" fill="#F4A201"></path><path fill-rule="evenodd" clip-rule="evenodd" d="M439.673 71.2392C436.783 71.8815 432.051 73.3842 429.157 74.5788C426.262 75.7734 421.689 78.0715 418.994 79.6862C416.299 81.3009 410.977 85.773 407.168 89.6237C403.251 93.5838 398.698 99.2994 396.687 102.783C394.732 106.169 392.188 111.777 391.033 115.246C389.879 118.714 388.674 123.327 388.355 125.497L387.776 129.443H375.61C367.093 129.443 362.097 129.852 358.954 130.805C356.356 131.594 353.018 133.504 351.028 135.34C349.138 137.085 346.752 140.115 345.726 142.074C343.861 145.634 343.861 145.634 343.627 215.866L343.393 286.097H332.707H322.02V237.131C322.02 204.243 321.704 186.643 321.058 183.528C320.529 180.977 319.346 177.376 318.43 175.525C317.513 173.674 315.035 170.393 312.923 168.235C310.81 166.076 306.886 163.281 304.202 162.022C300.234 160.161 298.045 159.734 292.471 159.734C286.921 159.734 284.704 160.162 280.806 161.992C278.158 163.233 274.404 165.715 272.463 167.507C270.523 169.298 267.725 173.273 266.249 176.339C263.976 181.056 263.48 183.272 263.028 190.746L262.494 199.579L221.503 217.021L180.512 234.463H155.904C134.215 234.463 130.512 234.668 124.691 236.189C121.06 237.138 115.315 239.402 111.926 241.221C108.538 243.039 103.113 247.083 99.8708 250.206C96.6298 253.329 92.5204 258.078 90.7397 260.758C88.9591 263.438 86.5506 267.971 85.3892 270.832C84.2278 273.692 82.7529 278.199 82.1114 280.846C81.4707 283.494 80.9705 289.598 81.0014 294.411C81.0356 299.839 81.6275 305.324 82.5593 308.851C83.3858 311.98 85.6444 317.691 87.5792 321.541C90.2147 326.789 92.9315 330.417 98.4251 336.024C103.519 341.224 107.584 344.47 111.75 346.667C115.048 348.405 119.866 350.419 122.457 351.142C125.048 351.865 128.207 352.69 129.477 352.975L131.786 353.494L132.047 380.401C132.306 407.307 132.306 407.307 134.585 411.683C135.838 414.089 138.15 417.395 139.724 419.029C141.297 420.663 143.933 422.912 145.582 424.028C147.231 425.143 151.046 426.699 154.062 427.486C157.794 428.461 161.001 428.731 164.108 428.334C166.618 428.014 170.952 426.588 173.74 425.164C176.528 423.74 180.425 420.784 182.399 418.596C184.374 416.407 186.823 412.774 187.841 410.524C189.573 406.694 189.709 404.874 189.955 382.146C190.1 368.789 190.347 357.86 190.504 357.86C190.66 357.86 206.922 364.724 226.641 373.114L262.494 388.368L263.021 397.063C263.421 403.684 264.062 406.908 265.706 410.576C266.893 413.226 269.237 416.946 270.915 418.843C272.592 420.741 275.882 423.359 278.225 424.662C280.568 425.965 284.716 427.453 287.443 427.968C291.088 428.657 293.763 428.63 297.554 427.868C300.388 427.298 304.198 426.055 306.022 425.104C307.844 424.155 311.007 421.669 313.049 419.582C315.092 417.496 317.513 414.273 318.43 412.422C319.346 410.571 320.529 406.97 321.058 404.42C321.704 401.304 322.02 383.705 322.02 350.816V301.85H332.707H343.393L343.627 372.082C343.861 442.313 343.861 442.313 345.759 445.939C346.802 447.933 349.29 450.994 351.289 452.741C353.286 454.489 356.838 456.5 359.182 457.211C362.074 458.088 367.383 458.504 375.707 458.504C387.158 458.504 387.971 458.613 387.971 460.156C387.971 461.065 388.954 465.299 390.155 469.564C391.357 473.83 393.959 480.273 395.937 483.884C398.287 488.173 402.06 493.025 406.824 497.886C410.834 501.977 416.315 506.646 419.005 508.261C421.693 509.876 426.242 512.166 429.112 513.35C431.982 514.535 436.908 516.062 440.058 516.744C443.207 517.427 448.98 517.991 452.886 518C456.793 518.008 462.959 517.389 466.59 516.625C470.221 515.861 475.783 514.111 478.948 512.737C482.115 511.363 487.047 508.612 489.911 506.626C492.773 504.64 497.254 500.829 499.868 498.158C502.482 495.487 506.272 490.691 508.292 487.499C510.312 484.307 512.945 479.312 514.144 476.399C515.344 473.486 516.98 467.793 517.782 463.749C518.854 458.341 519.12 453.955 518.784 447.167C518.461 440.637 517.678 435.891 516.106 430.936C514.884 427.086 512.288 420.981 510.335 417.371C507.905 412.879 504.45 408.46 499.384 403.369C495.314 399.277 489.747 394.582 487.012 392.934C484.278 391.286 479.029 388.849 475.348 387.518C471.667 386.187 465.436 384.646 461.502 384.092C457.405 383.516 451.653 383.342 448.038 383.685C444.568 384.015 439.048 385.043 435.772 385.971C432.497 386.897 427.243 388.981 424.097 390.6C420.95 392.219 415.918 395.432 412.914 397.738C409.911 400.045 405.393 404.485 402.875 407.605C400.356 410.724 396.711 416.39 394.775 420.194C392.835 424.002 390.386 430.724 389.324 435.149L387.396 443.189L377.384 443.435C371.878 443.571 365.811 443.252 363.903 442.727C361.159 441.972 360.178 441.149 359.213 438.789C358.194 436.296 357.993 424.803 357.993 368.828V301.85L372.768 301.861L387.542 301.872L389.417 309.783C390.448 314.134 392.678 320.529 394.373 323.993C396.067 327.458 399.376 332.753 401.724 335.759C404.073 338.765 408.556 343.384 411.686 346.023C414.817 348.661 420.493 352.358 424.301 354.238C428.109 356.118 433.729 358.376 436.791 359.255C440.826 360.415 445.304 360.855 453.064 360.858C461.619 360.86 465.137 360.462 470.574 358.879C474.316 357.79 480.482 355.26 484.278 353.26C489.609 350.449 493.037 347.723 499.352 341.27C505.666 334.818 508.327 331.326 511.049 325.917C512.987 322.066 515.475 315.962 516.579 312.352C518.268 306.83 518.586 303.914 518.586 293.974C518.586 284.034 518.268 281.118 516.579 275.595C515.475 271.985 512.987 265.881 511.049 262.03C508.327 256.622 505.666 253.129 499.352 246.677C493.037 240.225 489.609 237.499 484.278 234.688C480.482 232.687 474.316 230.148 470.574 229.047C465.051 227.421 461.755 227.053 453.064 227.087C445.684 227.117 440.629 227.605 436.791 228.66C433.729 229.501 428.109 231.75 424.301 233.658C420.493 235.566 414.841 239.267 411.738 241.881C408.637 244.495 404.143 249.104 401.752 252.123C399.36 255.144 396.029 260.458 394.348 263.934C392.667 267.41 390.448 273.813 389.417 278.165L387.542 286.075L372.768 286.087L357.993 286.097V219.119C357.993 163.144 358.194 151.652 359.213 149.158C360.178 146.799 361.159 145.975 363.903 145.22C365.811 144.695 371.878 144.376 377.384 144.512L387.396 144.759L389.324 152.798C390.386 157.224 392.835 163.945 394.775 167.754C396.711 171.557 400.356 177.223 402.875 180.342C405.393 183.462 409.911 187.902 412.914 190.209C415.918 192.515 420.95 195.728 424.097 197.347C427.243 198.966 432.497 201.05 435.772 201.977C439.048 202.904 444.568 203.933 448.038 204.263C451.653 204.606 457.405 204.432 461.502 203.855C465.436 203.302 471.667 201.761 475.348 200.43C479.029 199.098 484.278 196.661 487.012 195.013C489.747 193.365 495.272 188.67 499.29 184.579C503.308 180.487 507.889 174.886 509.469 172.133C511.049 169.379 513.291 164.726 514.449 161.794C515.609 158.861 517.104 153.828 517.771 150.61C518.439 147.392 518.991 141.494 519 137.502C519.008 133.51 518.401 127.212 517.652 123.506C516.903 119.798 515.402 114.534 514.317 111.806C513.232 109.078 510.545 104.004 508.346 100.53C506.147 97.0564 502.348 92.1756 499.904 89.6849C497.46 87.1942 493.041 83.4809 490.083 81.433C487.125 79.3852 482.115 76.5847 478.948 75.2106C475.783 73.8366 470.221 72.0863 466.59 71.3223C462.959 70.5583 456.6 69.9641 452.458 70.0017C448.316 70.0402 442.563 70.5968 439.673 71.2392ZM463.164 86.1869C466.795 86.9439 472.634 88.9638 476.137 90.6756C480.888 92.9948 484.164 95.4846 489.009 100.457C493.736 105.308 496.364 108.917 498.644 113.691C500.374 117.311 502.424 123.542 503.217 127.586C504.231 132.759 504.482 136.699 504.071 140.962C503.75 144.286 502.892 149.059 502.163 151.571C501.433 154.082 499.874 158.105 498.696 160.512C497.518 162.918 494.997 166.971 493.093 169.518C491.189 172.065 488.486 174.982 487.088 175.999C484.607 177.804 484.523 177.808 483.674 176.182C483.196 175.265 480.81 172.51 478.373 170.061C475.936 167.612 471.822 164.583 469.231 163.331C466.64 162.078 462.013 160.581 458.949 160.004C454.752 159.215 452.039 159.196 447.952 159.932C444.968 160.469 440.176 162.047 437.303 163.438C434.43 164.83 430.519 167.497 428.61 169.366C426.702 171.235 424.289 173.945 423.247 175.389L421.353 178.015L416.011 172.233C413.072 169.053 409.449 163.934 407.959 160.856C406.469 157.779 404.638 152.841 403.89 149.884C403.143 146.926 402.531 141.2 402.531 137.159C402.531 133.117 403.124 127.464 403.849 124.595C404.574 121.726 406.243 117.016 407.559 114.128C408.876 111.24 411.921 106.462 414.326 103.511C416.731 100.559 421.324 96.3729 424.534 94.2078C427.742 92.0435 432.687 89.4171 435.522 88.3731C438.358 87.3281 442.598 86.1458 444.944 85.745C447.291 85.3441 450.864 84.9696 452.886 84.9136C454.908 84.8567 459.533 85.4299 463.164 86.1869ZM445.752 101.027C443.85 101.746 440.887 103.519 439.168 104.968C437.449 106.415 435.017 109.744 433.762 112.365C432.074 115.89 431.481 118.475 431.481 122.306C431.481 125.532 432.107 128.925 433.142 131.308C434.056 133.411 436.449 136.647 438.461 138.499C440.473 140.351 443.413 142.419 444.994 143.093C446.576 143.769 450.312 144.321 453.297 144.321C457.428 144.321 459.793 143.777 463.205 142.039C465.918 140.658 468.826 138.233 470.572 135.896C472.159 133.773 473.927 130.036 474.501 127.593C475.074 125.149 475.31 121.408 475.025 119.28C474.739 117.152 473.878 114.138 473.111 112.582C472.343 111.026 470.506 108.438 469.028 106.831C467.549 105.225 464.809 103.105 462.939 102.121C460.972 101.086 457.361 100.202 454.374 100.025C451.193 99.8368 447.882 100.222 445.752 101.027ZM456.44 115.852C457.778 116.559 459.286 118.346 459.79 119.823C460.363 121.504 460.418 123.281 459.937 124.575C459.514 125.711 458.287 127.272 457.211 128.042C456.134 128.813 454.165 129.443 452.835 129.443C451.41 129.443 449.553 128.561 448.315 127.295C446.914 125.864 446.212 124.163 446.212 122.197C446.212 120.252 446.868 118.636 448.139 117.456C449.2 116.47 450.645 115.448 451.351 115.184C452.058 114.92 452.944 114.673 453.321 114.635C453.697 114.597 455.101 115.144 456.44 115.852ZM299.818 176.942C301.408 178.036 303.585 180.261 304.656 181.885C306.603 184.838 306.603 184.838 306.603 293.974C306.603 403.11 306.603 403.11 304.656 406.062C303.585 407.687 301.408 409.911 299.818 411.005C297.732 412.442 295.689 412.996 292.471 412.996C289.253 412.996 287.211 412.442 285.124 411.005C283.534 409.911 281.357 407.687 280.287 406.062C278.339 403.11 278.339 403.11 278.339 293.974C278.339 184.838 278.339 184.838 280.287 181.885C281.357 180.261 283.534 178.036 285.124 176.942C287.211 175.505 289.253 174.952 292.471 174.952C295.689 174.952 297.732 175.505 299.818 176.942ZM462.127 176.612C464.049 177.505 467.045 179.731 468.784 181.561C470.523 183.391 471.649 185.192 471.285 185.563C470.921 185.935 468.325 186.85 465.518 187.596C462.71 188.344 457.2 188.954 453.274 188.954C449.349 188.954 443.648 188.316 440.607 187.535C437.566 186.755 435.078 185.651 435.078 185.082C435.078 184.512 436.33 182.811 437.861 181.299C439.393 179.788 442.379 177.751 444.499 176.771C447 175.615 450.158 174.99 453.493 174.99C456.668 174.99 459.967 175.61 462.127 176.612ZM262.922 293.974C262.922 336.813 262.802 371.863 262.657 371.863C262.51 371.863 246.226 365.001 226.47 356.614L190.548 341.365V293.973V246.579L226.093 231.407C245.642 223.061 261.927 216.2 262.28 216.159C262.633 216.118 262.922 251.135 262.922 293.974ZM466.234 243.731C469.001 244.42 473.943 246.422 477.215 248.179C480.487 249.936 485.089 253.141 487.441 255.303C489.794 257.465 493.249 261.533 495.117 264.345C496.985 267.157 499.263 271.241 500.178 273.421C501.092 275.601 502.473 280.578 503.247 284.479C504.234 289.456 504.48 293.376 504.071 297.616C503.75 300.94 502.898 305.713 502.176 308.225C501.454 310.736 499.533 315.39 497.908 318.567C496.283 321.745 493.013 326.57 490.642 329.288C488.271 332.007 485.88 334.228 485.329 334.225C484.778 334.221 483.386 332.809 482.237 331.085C481.088 329.361 478.556 326.618 476.61 324.988C474.664 323.359 470.867 320.995 468.173 319.734C465.478 318.474 461.073 317.133 458.383 316.754C455.693 316.376 450.987 316.416 447.925 316.844C444.863 317.272 439.989 318.804 437.094 320.248C433.547 322.017 430.082 324.783 426.475 328.724L421.12 334.572L415.76 328.792C412.608 325.392 409.314 320.687 407.763 317.365C406.312 314.259 404.496 309.207 403.727 306.138C402.683 301.978 402.439 298.22 402.767 291.359C403.065 285.105 403.805 280.416 405.08 276.713C406.111 273.718 408.479 268.857 410.343 265.911C412.207 262.965 415.608 258.716 417.901 256.47C420.195 254.222 424.516 250.9 427.504 249.085C430.492 247.271 435.056 245.148 437.647 244.368C440.238 243.588 444.478 242.66 447.069 242.305C449.66 241.95 453.899 241.843 456.49 242.068C459.081 242.292 463.466 243.04 466.234 243.731ZM175.559 293.974V338.607H155.045C143.378 338.607 132.574 338.189 129.993 337.64C127.497 337.108 122.949 335.47 119.887 334.001C116.059 332.165 112.424 329.39 108.256 325.122C104.374 321.148 101.348 317.078 99.8451 313.807C98.5544 310.998 96.9536 306.075 96.2881 302.868C95.6226 299.66 95.0787 295.658 95.0787 293.974C95.0787 292.289 95.6226 288.287 96.2881 285.079C96.9536 281.872 98.5544 276.949 99.8451 274.14C101.353 270.86 104.363 266.815 108.256 262.838C112.003 259.011 116.233 255.696 119.329 254.161C122.083 252.795 126.323 251.184 128.75 250.583C131.62 249.872 140.574 249.463 154.361 249.415L175.559 249.34V293.974ZM447.381 257.295C445.904 257.732 442.829 259.371 440.548 260.935C437.575 262.975 435.704 265.177 433.94 268.713C432.042 272.52 431.481 274.843 431.481 278.891C431.481 282.178 432.101 285.568 433.14 287.971C434.053 290.08 436.112 293.145 437.713 294.781C439.315 296.418 442.365 298.565 444.49 299.551C447.061 300.745 450.091 301.336 453.546 301.317C457.15 301.298 459.969 300.682 462.752 299.305C464.958 298.214 468.092 295.734 469.717 293.794C471.342 291.856 473.27 288.472 474.002 286.277C474.734 284.081 475.333 280.85 475.333 279.096C475.333 277.342 474.691 273.98 473.905 271.625C473.003 268.918 470.993 265.827 468.444 263.221C465.561 260.275 463.113 258.706 459.866 257.72C457.367 256.962 454.14 256.378 452.694 256.421C451.249 256.464 448.858 256.857 447.381 257.295ZM457.313 272.951C458.175 273.422 459.289 275.009 459.79 276.477C460.291 277.944 460.467 279.823 460.181 280.652C459.895 281.481 458.881 283.045 457.927 284.128C456.779 285.43 455.213 286.097 453.304 286.097C451.38 286.097 449.715 285.38 448.315 283.949C447.046 282.653 446.212 280.791 446.212 279.253C446.212 277.852 447.011 275.669 447.988 274.401C449.3 272.696 450.543 272.095 452.754 272.095C454.4 272.095 456.452 272.481 457.313 272.951ZM462.063 333.663C464.422 334.786 467.655 337.219 469.246 339.072L472.139 342.438L468.932 343.573C467.167 344.197 462.875 345.069 459.395 345.511C455.913 345.952 450.656 346.006 447.711 345.63C444.767 345.254 440.72 344.442 438.718 343.825C436.716 343.209 435.078 342.427 435.078 342.087C435.078 341.747 435.855 340.459 436.805 339.225C437.754 337.991 439.88 336.13 441.527 335.09C443.175 334.049 445.578 332.874 446.867 332.477C448.156 332.081 451.137 331.726 453.493 331.69C456.295 331.646 459.258 332.328 462.063 333.663ZM175.394 378.274C175.131 403.063 175.131 403.063 172.852 406.58C171.599 408.514 169.228 410.749 167.584 411.546C165.939 412.344 162.803 412.996 160.613 412.996C158.424 412.996 155.514 412.405 154.149 411.684C152.783 410.963 150.587 408.926 149.267 407.159C146.867 403.946 146.867 403.946 146.616 378.715L146.364 353.485H161.011H175.657L175.394 378.274ZM464.371 399.947C466.867 400.472 472.136 402.475 476.08 404.4C481.444 407.016 484.684 409.367 488.936 413.729C492.419 417.3 495.833 421.934 497.749 425.685C499.468 429.055 501.565 434.174 502.409 437.062C503.466 440.676 503.926 445.042 503.887 451.065C503.842 458.021 503.371 461.254 501.592 466.818C500.361 470.669 497.829 476.182 495.966 479.07C494.103 481.958 490.898 485.996 488.845 488.044L485.112 491.766L481.909 487.475C480.148 485.115 476.695 481.77 474.236 480.042C471.778 478.313 467.453 476.067 464.627 475.051C460.458 473.551 458.032 473.266 451.78 473.543C445.401 473.824 443.103 474.347 438.464 476.566C435.379 478.043 431.362 480.588 429.537 482.223C427.712 483.858 425.148 486.704 423.841 488.546L421.463 491.897L417.552 487.901C415.402 485.704 412.137 481.528 410.299 478.62C408.46 475.713 406.111 470.883 405.08 467.888C403.805 464.185 403.065 459.496 402.767 453.242C402.438 446.362 402.683 442.626 403.735 438.428C404.509 435.339 406.37 430.225 407.869 427.061C409.78 423.027 412.65 419.208 417.483 414.271C422.315 409.333 426.052 406.4 430.001 404.447C433.096 402.915 437.721 401.088 440.279 400.385C442.835 399.683 448.281 399.082 452.38 399.051C456.478 399.019 461.874 399.423 464.371 399.947ZM448.54 413.942C446.758 414.376 444.253 415.292 442.973 415.979C441.693 416.665 439.218 418.737 437.475 420.581C435.731 422.425 433.67 425.494 432.893 427.398C432.116 429.303 431.481 433.157 431.481 435.962C431.481 439.731 432.086 442.327 433.799 445.904C435.372 449.19 437.395 451.694 440.094 453.698C442.282 455.323 445.687 457.068 447.662 457.577C449.637 458.087 452.169 458.504 453.288 458.504C454.407 458.504 457.241 457.922 459.584 457.211C461.928 456.5 465.48 454.489 467.477 452.741C469.476 450.994 471.9 447.981 472.866 446.046C473.833 444.111 474.831 440.466 475.086 437.945C475.393 434.901 475.079 431.919 474.15 429.059C473.38 426.692 471.558 423.277 470.101 421.471C468.644 419.664 465.66 417.267 463.47 416.144C461.28 415.022 457.754 413.889 455.634 413.627C453.514 413.367 450.322 413.508 448.54 413.942ZM457.927 430.718C458.881 431.801 459.895 433.365 460.181 434.194C460.467 435.022 460.291 436.901 459.79 438.369C459.289 439.837 458.175 441.423 457.313 441.894C456.452 442.365 454.4 442.751 452.754 442.751C450.543 442.751 449.3 442.15 447.988 440.445C447.011 439.177 446.212 436.993 446.212 435.592C446.212 434.055 447.046 432.193 448.315 430.897C449.715 429.465 451.38 428.748 453.304 428.748C455.213 428.748 456.779 429.415 457.927 430.718ZM463.057 490.736C464.952 491.724 467.785 494.025 469.353 495.85L472.204 499.168L467.131 500.839C463.625 501.994 459.412 502.533 453.493 502.584C447.591 502.635 443.396 502.18 440.003 501.122C437.294 500.278 435.078 499.144 435.078 498.601C435.078 498.059 436.626 496.111 438.517 494.273C440.41 492.432 443.778 490.334 446.011 489.604C448.398 488.822 452.03 488.412 454.839 488.609C457.464 488.791 461.162 489.749 463.057 490.736Z" fill="#661662"></path><defs><linearGradient id="paint0_linear_2101_116" x1="600" y1="-1.83433e-05" x2="-631" y2="1452" gradientUnits="userSpaceOnUse"><stop stop-color="white"></stop><stop offset="1" stop-color="white" stop-opacity="0"></stop></linearGradient></defs></svg> 