<?xml version="1.0" encoding="UTF-8"?> <svg xmlns="http://www.w3.org/2000/svg" width="295" height="218" viewBox="0 0 295 218" fill="none"> <rect width="295" height="218" fill="white"></rect> <g clip-path="url(#clip0)"> <path d="M44.6248 84.9637C41.1975 84.9637 39.2729 86.0118 38.4634 87.9535V94.3969C38.7527 95.3169 39.6728 96.0413 40.6318 96.0413H42.4443C44.8208 96.0413 45.26 96.9322 45.6319 99.0046L46.1078 101.68L46.6882 104.903L46.8361 106.068C47.7105 110.927 50.4034 112.721 55.4258 112.721H61.3996C62.3438 112.721 62.9953 112.048 62.9834 111.154C62.9805 111.061 62.9699 110.964 62.9552 110.872L61.9445 104.721L61.3994 101.68L60.1235 94.5794C59.0434 88.5529 55.934 84.9639 48.9968 84.9639H44.6248V84.9637ZM71.9935 84.9637C67.2397 84.9637 65.3858 86.9779 65.3666 90.5791C65.3604 91.4127 65.4549 92.327 65.6339 93.3186L65.8186 94.3647C66.0872 95.2988 67.0252 96.0411 67.9985 96.0411H79.0202C84.8565 96.0411 87.0978 98.8332 87.8996 103.325L88.686 107.737C88.8868 108.839 89.0287 109.873 89.0314 110.793C89.049 113.565 87.8511 115.388 83.3941 115.388H71.5294C70.5914 115.388 69.9323 116.072 69.9562 116.957C69.9562 117.047 69.9648 117.143 69.9844 117.239L70.2857 118.966C71.3667 124.989 74.7186 126.877 80.5507 126.877H112.587C115.137 126.877 116.136 125.872 116.139 124.57C116.144 123.732 115.743 122.771 115.079 121.868C114.835 121.545 110.324 115.682 110.324 115.682C110.172 115.49 109.952 115.376 109.733 115.376H102.573H102.562C101.494 115.376 100.637 115.01 100.15 114.384C99.8747 114.019 99.733 113.589 99.7273 113.123C99.7224 112.753 99.7992 112.363 99.9621 111.955C100.057 111.74 101.959 107.03 102.386 106.01L102.41 105.716V105.705L102.282 105.408C101.505 104.4 97.6453 99.37 97.4902 99.163C97.0488 98.5864 96.8843 98.1497 96.8843 97.748C96.889 97.5063 96.9525 97.2758 97.0514 97.0368C97.3054 96.3971 98.0499 96.0416 99.1183 96.0416H107.095C107.323 96.0416 107.467 95.876 107.461 95.6718C107.461 95.6285 107.45 95.5759 107.435 95.5261C104.929 89.3435 99.0691 84.9642 90.3316 84.9642H71.9935V84.9637ZM117.437 84.9637C114.883 84.9637 113.875 85.992 113.869 87.3015C113.863 88.1397 114.268 89.0947 114.94 89.9714C115.591 90.8068 119.36 95.7364 119.36 95.7364C119.499 95.9161 119.73 96.0411 119.941 96.0411H130.844C131.912 96.0411 132.783 96.3854 133.271 97.0363C133.552 97.3976 133.694 97.8284 133.698 98.2952C133.698 98.6584 133.619 99.0488 133.456 99.4505C133.373 99.6227 131.044 105.37 131.028 105.392C131.005 105.469 130.996 105.546 130.999 105.626C131.002 105.759 131.054 105.899 131.147 106.01C131.147 106.01 135.555 111.775 135.694 111.955C136.218 112.643 136.484 113.303 136.478 113.856C136.475 114.04 136.444 114.212 136.381 114.368C136.115 115.01 135.382 115.376 134.302 115.376H124.43C124.21 115.376 124.025 115.489 123.953 115.67C123.953 115.67 121.808 121.033 121.472 121.868C121.275 122.357 121.17 122.873 121.17 123.379C121.167 125.187 122.503 126.877 125.774 126.877H128.965H136.507C146.764 126.877 152.463 122.111 152.443 112.366C152.44 110.666 152.26 108.814 151.903 106.813L151.565 104.928C148.748 89.185 138.502 84.9639 128.909 84.9639H117.437V84.9637ZM186.593 84.7334C180.222 84.7334 175.465 86.44 174.863 93.2529C174.809 94.1259 174.428 94.5306 173.978 94.5306C173.453 94.5306 172.843 93.9869 172.544 92.9906C170.941 87.698 167.379 84.9639 161.371 84.9639H158.583C153.843 84.9639 151.992 86.9781 151.964 90.5793C151.958 91.4129 152.05 92.3273 152.228 93.3188C152.228 93.3188 152.298 93.6537 152.411 94.3649C152.597 95.3893 153.598 96.1579 155.044 96.1579C157.622 96.1579 158.329 96.9443 158.735 99.2756L163.376 125.069C163.63 126.029 164.57 126.798 165.569 126.798H172.564C176.633 126.798 178.824 126 178.808 122.702C178.805 122.162 178.741 121.558 178.62 120.876L175.745 104.744C175.607 103.987 175.543 103.27 175.54 102.6C175.529 98.4987 177.898 96.0413 181.22 96.0413H183.224C188.317 96.0413 190.907 98.2954 191.868 103.669L192.613 107.887C192.78 108.817 192.883 109.672 192.888 110.45C192.909 113.505 191.452 115.319 186.671 115.319H184.257C183.313 115.319 182.659 116.002 182.678 116.888C182.678 116.984 182.687 117.074 182.705 117.17L182.82 117.819C184.047 124.634 187.194 127.516 194.295 127.516H195.908C204.037 127.516 209.8 123.129 209.782 114.069C209.78 112.683 209.639 111.187 209.353 109.58L208.169 102.935C205.594 88.5886 197.173 84.7334 188.157 84.7334H186.593V84.7334Z" fill="url(#paint0_radial)"></path> <path d="M255.823 110.607C250.522 81.8373 189.156 58.5261 118.765 58.5261C109.504 58.5261 100.547 58.9278 91.9873 59.6964C102.597 59.5681 113.898 60.1767 125.65 61.5305C195.903 69.6179 242.862 97.0692 244.36 124.177C244.704 130.399 242.282 136.038 237.586 140.932C251.006 132.39 257.908 121.918 255.823 110.607Z" fill="#00AEEF"></path> <path d="M257.582 107.542C252.324 79.1534 196.917 51.4687 96.001 59.3673C103.335 58.8142 110.94 58.523 118.767 58.523C189.158 58.523 250.524 81.8374 255.822 110.608C257.908 121.921 251.004 132.39 237.585 140.932C251.096 133.777 260.075 121.001 257.582 107.542Z" fill="#0057A3"></path> <path d="M86.1561 146.843C85.4 146.843 84.6187 146.564 84.4558 145.634L84.3836 145.245L83.4915 140.255C83.258 138.933 82.6893 138.374 81.4796 138.374H80.1205C79.1791 138.374 78.8852 139.119 79.0255 139.888L79.6905 143.594C80.0419 145.565 79.2639 146.727 77.2131 146.727H77.1405C75.9915 146.727 75.0255 145.937 74.7992 144.683L74.675 143.987H75.897C76.4894 143.987 76.8469 143.639 76.7476 143.059L76.3563 140.905C76.2548 140.321 76.2634 139.326 77.4643 139.049L77.6666 139.003C78.0727 138.906 78.0332 138.374 77.5163 138.374H74.5869L74.439 137.538C74.2428 136.426 74.7831 135.78 75.8882 135.78H81.3008C84.3896 135.78 85.8593 137.445 86.319 139.998L87.257 145.245L87.3234 145.612C87.4874 146.541 86.861 146.843 86.1561 146.843ZM213.417 141.395L212.604 136.825C212.437 135.896 211.683 135.613 210.93 135.613C210.225 135.613 209.595 135.916 209.763 136.842C209.763 136.842 210.467 140.799 210.672 141.937C210.92 143.331 209.675 144.389 207.884 144.389H207.239C206.396 144.389 206.556 143.708 206.858 143.661L207.155 143.62C208.198 143.41 208.553 142.758 208.372 141.762L207.517 136.825C207.352 135.896 206.593 135.613 205.839 135.613C205.134 135.613 204.508 135.916 204.674 136.842L205.739 142.804C205.83 143.306 205.47 143.946 204.765 143.946C203.923 143.946 203.43 143.335 203.258 142.341C203.077 141.356 202.269 136.825 202.269 136.825C202.105 135.896 201.323 135.613 200.6 135.613C199.887 135.613 199.237 135.916 199.402 136.842C199.547 137.643 200.163 141.102 200.384 142.315C200.95 145.484 204.299 146.772 207.049 146.772H207.693C210.785 146.773 213.899 144.707 213.417 141.395ZM195.447 142.872C194.694 142.872 193.934 142.432 193.779 141.57L193.712 141.183L193.343 139.139C193.256 138.65 192.948 138.374 192.333 138.374H191.042L190.894 137.538C190.69 136.426 191.094 135.78 192.2 135.78H193.21C194.762 135.78 195.692 136.473 195.982 138.097L196.532 141.183L196.596 141.553C196.767 142.482 196.158 142.872 195.447 142.872ZM188.415 146.843C187.659 146.843 186.903 146.564 186.744 145.634L186.671 145.245L185.814 140.485C185.545 138.953 184.78 138.374 183.37 138.374H178.993L178.84 137.538C178.644 136.426 179.186 135.78 180.292 135.78H183.563C186.317 135.78 188.11 137.381 188.623 140.234L189.515 145.245L189.581 145.612C189.75 146.541 189.12 146.843 188.415 146.843ZM176.291 146.843C175.543 146.843 174.807 146.564 174.642 145.634L173.482 139.139C173.392 138.65 173.083 138.374 172.472 138.374H171.177L171.028 137.538C170.829 136.426 171.229 135.78 172.338 135.78H173.349C175.02 135.78 175.846 136.565 176.157 138.325L177.397 145.245L177.463 145.612C177.627 146.541 176.998 146.843 176.291 146.843ZM168.6 146.843C167.844 146.843 167.059 146.564 166.897 145.634L166.83 145.245L165.935 140.255C165.701 138.933 165.13 138.374 163.929 138.374H162.564C161.623 138.374 161.329 139.119 161.466 139.888L162.131 143.594C162.483 145.565 161.704 146.727 159.66 146.727H159.585C158.432 146.727 157.466 145.937 157.24 144.683L157.119 143.987H158.346C158.93 143.987 159.294 143.639 159.188 143.059L158.806 140.905C158.698 140.321 158.71 139.326 159.905 139.049L160.114 139.003C160.516 138.906 160.474 138.374 159.966 138.374H157.03L156.879 137.538C156.687 136.426 157.227 135.78 158.331 135.78H163.747C166.83 135.78 168.303 137.445 168.759 139.998L169.701 145.245L169.768 145.612C169.934 146.541 169.305 146.843 168.6 146.843ZM153.058 142.875C152.31 142.875 151.546 142.432 151.395 141.57L151.322 141.183L150.956 139.139C150.869 138.65 150.561 138.374 149.949 138.374H148.656L148.505 137.538C148.307 136.426 148.712 135.78 149.813 135.78H150.826C152.382 135.78 153.304 136.473 153.595 138.097L154.144 141.183L154.212 141.553C154.38 142.482 153.762 142.875 153.058 142.875ZM131.197 146.585L131.029 145.635C130.859 144.656 131.442 143.987 132.359 143.987H135.067C136.525 143.987 136.866 143.129 136.646 141.9L136.352 140.255C136.129 139.003 135.428 138.374 134.063 138.374H129.945L129.793 137.538C129.596 136.426 130.114 135.78 131.221 135.78H134.135C137.151 135.78 138.751 137.215 139.209 139.768L139.369 140.668C139.574 141.826 139.239 142.713 138.271 143.204L137.986 143.338C137.684 143.48 137.752 143.987 138.257 143.987H139.021C140.125 143.987 140.751 144.564 140.951 145.705L141.109 146.584H131.197V146.585ZM127.08 146.843C126.333 146.843 125.573 146.564 125.405 145.634L125.334 145.245L124.484 140.485C124.212 138.953 123.45 138.374 122.034 138.374H117.656L117.507 137.538C117.308 136.426 117.856 135.78 118.957 135.78H122.227C124.981 135.78 126.776 137.381 127.288 140.234L128.185 145.245L128.249 145.612C128.417 146.541 127.785 146.843 127.08 146.843ZM114.367 142.875C113.614 142.875 112.851 142.432 112.7 141.57L112.631 141.183L112.265 139.139C112.178 138.65 111.872 138.374 111.258 138.374H109.964L109.814 137.538C109.615 136.426 110.017 135.78 111.119 135.78H112.135C113.69 135.78 114.612 136.473 114.901 138.097L115.457 141.183L115.521 141.553C115.686 142.482 115.076 142.875 114.367 142.875ZM106.238 140.581L105.718 140.835C105.394 140.997 105.17 141.203 105.267 141.713L107.938 143.78C108.731 144.38 109.152 145.425 108.694 146.144L108.139 147.001L101.211 141.667C100.547 141.667 100.311 142.064 100.391 142.482L100.883 145.245L100.954 145.635C101.119 146.564 100.463 146.844 99.7589 146.844C99.0023 146.844 98.1751 146.564 98.0127 145.635L97.9429 145.245L97.7185 144.014C97.5247 142.901 97.7701 142.179 98.711 141.647L99.1765 141.37C99.5192 141.183 99.8116 141.085 99.7068 140.508L97.4704 138.796C96.4909 138.048 96.0939 137.006 96.6505 136.197L97.1144 135.501L103.76 140.555H103.905C104.465 140.555 104.732 140.182 104.659 139.768L104.208 137.262L104.15 136.937C103.985 136.011 104.644 135.614 105.348 135.614C106.104 135.614 106.904 136.011 107.06 136.892L107.117 137.215L107.33 138.421C107.507 139.373 107.192 140.115 106.238 140.581ZM93.8499 146.843C93.0962 146.843 92.3635 146.564 92.1984 145.634L91.0355 139.139C90.9485 138.65 90.6398 138.374 90.0284 138.374H88.7344L88.5821 137.538C88.3855 136.426 88.7858 135.78 89.8924 135.78H90.9031C92.5767 135.78 93.3995 136.565 93.714 138.325L94.9532 145.245L95.0137 145.612C95.1863 146.541 94.5544 146.843 93.8499 146.843Z" fill="#0057A3"></path> </g> <defs> <radialGradient id="paint0_radial" cx="0" cy="0" r="1" gradientUnits="userSpaceOnUse" gradientTransform="translate(123.889 106.193) rotate(90) scale(61.7559 62.6693)"> <stop stop-color="#00ACED"></stop> <stop offset="1" stop-color="#004975"></stop> </radialGradient> <clipPath id="clip0"> <rect width="220" height="89" fill="white" transform="translate(38 58)"></rect> </clipPath> </defs> </svg> 