<?xml version="1.0" encoding="UTF-8"?> <svg xmlns="http://www.w3.org/2000/svg" width="295" height="218" viewBox="0 0 295 218" fill="none"> <rect width="295" height="218" fill="white"></rect> <path fill-rule="evenodd" clip-rule="evenodd" d="M73.1115 60.2021C73.3528 60.4287 73.3787 60.5058 73.5512 61.5127C73.8358 63.1736 73.9819 63.2543 76.8426 63.3279C80.4729 63.4214 81.8105 64.0072 82.7209 65.9019C84.682 69.9837 82.532 76.3947 77.6067 81.1519C75.3326 83.3483 73.5824 83.2507 75.4582 81.032C79.1206 76.7002 78.7256 73.4905 74.5107 73.333C71.6182 73.2248 70.4959 71.9458 70.0577 68.258C69.6212 64.5849 71.7627 58.9356 73.1115 60.2021ZM88.6926 60.2021C88.934 60.4287 88.9599 60.5058 89.1324 61.5127C89.2681 62.3048 89.5127 62.8201 89.8767 63.0814C90.1575 63.2829 90.4892 63.2897 101.974 63.3252C115.046 63.3657 114.397 63.331 115.758 64.062C117.537 65.0178 118.259 66.6945 118.349 70.0814C118.375 71.0803 118.539 76.2725 118.713 81.6196C119.042 91.7288 119.038 92.5875 118.659 94.066C118.05 96.4382 116.112 98.1714 114.424 97.8529L114.1 97.7916L114.168 94.8338C114.205 93.2069 114.264 90.7701 114.299 89.4186C114.683 74.4065 114.716 74.8495 113.151 73.9251C112.229 73.3804 112.682 73.401 100.373 73.342L88.7669 73.2865L88.2387 73.0244C87.1518 72.4854 86.3084 71.2185 85.8443 69.4274C84.9104 65.8249 87.1064 58.7126 88.6926 60.2021ZM124.636 60.242C124.809 60.4279 124.901 60.7065 124.969 61.2549C125.07 62.0649 125.328 62.6856 125.706 63.0303C125.937 63.2408 126.128 63.2447 139.046 63.299C153.559 63.3599 152.54 63.3085 153.631 64.035C155.523 65.2951 156.027 69.7011 154.609 72.592L154.268 73.2865L153.157 73.3466C149.789 73.529 149.596 74.284 150.564 83.5031C151.336 90.8504 151.372 91.3319 151.243 92.5965C150.917 95.7939 149.433 97.648 147.09 97.7847L146.265 97.8329L146.293 88.1238L146.322 78.4146L146.661 77.6248C147.217 76.329 147.968 75.1677 148.839 74.2543C149.291 73.7807 149.661 73.3821 149.661 73.3683C149.661 73.3545 143.997 73.3305 137.074 73.3149L124.487 73.2865L123.918 72.9691C122.411 72.1277 121.466 69.6565 121.466 66.5575C121.466 63.1264 123.517 59.0409 124.636 60.242ZM161.05 60.1521C161.362 60.3579 161.405 60.4691 161.536 61.4051C161.65 62.2103 161.94 62.843 162.309 63.0898C162.505 63.2209 164.28 63.2523 174.198 63.2995C187.139 63.3611 186.338 63.3143 187.464 64.0729C189.408 65.3825 189.763 69.0385 188.238 72.0493C187.352 73.7993 187.357 73.6397 187.979 79.5898C188.182 81.5288 188.515 84.7196 188.719 86.6802C189.55 94.6547 188.495 97.7142 184.904 97.7446L184.056 97.7518V87.9229C184.056 76.277 184.056 76.2723 185.423 74.4793C185.697 74.1203 185.807 73.8759 185.784 73.678L185.752 73.3933L175.735 73.3609C168.549 73.3378 165.56 73.3629 165.157 73.4499C163.717 73.761 163.037 75.5502 163.319 78.2834C163.387 78.9431 163.609 81.0935 163.811 83.0619C164.013 85.0303 164.281 87.5784 164.406 88.7242C165.022 94.3683 163.649 97.5122 160.497 97.679L159.618 97.7255L159.65 88.0166C159.681 78.4458 159.685 78.2979 159.907 77.6133C160.376 76.1717 160.968 75.1398 161.938 74.0728C162.61 73.3334 162.615 73.3822 161.858 73.2959C159.489 73.0257 158.197 70.991 158.063 67.3181C157.923 63.5012 159.693 59.2559 161.05 60.1521ZM195.79 60.2328C195.994 60.4235 196.081 60.6562 196.168 61.2501C196.298 62.1322 196.608 62.8513 196.958 63.0837C197.167 63.2223 198.589 63.2521 207.481 63.3044C218.923 63.3716 218.483 63.3433 220.03 64.1107C224.815 66.4843 225.821 79.5922 221.691 85.7621C220.791 87.1077 220.934 87.2285 223.429 87.2285H225.318L225.48 87.638C226.808 90.9818 225.485 95.3031 222.736 96.6004L222.108 96.8971L207.668 96.9253L193.229 96.9535L193.067 96.5645C191.682 93.2221 192.779 88.8868 195.328 87.6298L196.033 87.2819L206.739 87.2253C218.359 87.1637 217.849 87.1923 218.606 86.5629C220.598 84.9079 220.397 77.1885 218.299 74.7711C217.042 73.323 217.195 73.3399 205.372 73.3399H195.598L195.049 73.0644C192.426 71.7464 191.893 64.8301 194.121 60.9989C194.624 60.1331 195.334 59.8072 195.79 60.2328ZM73.3947 99.8687C73.4831 100.005 73.5839 100.353 73.6187 100.643C73.9204 103.161 71.7296 102.928 95.0932 102.931C111.965 102.933 114.88 102.956 115.513 103.09C118.11 103.641 119.556 105.482 119.877 108.65C120.093 110.775 119.967 139.587 119.737 140.86C119.41 142.666 118.961 143.804 118.186 144.792L117.751 145.347H111.986H106.22L105.733 145.961C104.04 148.094 105.093 151.196 108.789 154.966L110.207 156.412L110.246 156.978C110.295 157.71 110.049 157.795 108.655 157.529C106.837 157.181 101.792 152.612 99.2751 149.033C98.9446 148.563 98.1622 147.544 97.5364 146.769L96.3985 145.36L85.2572 145.353L74.1158 145.347L73.6147 144.807C71.7827 142.833 71.6107 141.157 71.7398 126.544L71.8205 117.409L72.0875 116.702C72.6238 115.282 73.4938 114.213 74.7482 113.432L75.3836 113.037L74.3881 112.86C70.3234 112.137 68.7657 106.418 71.2064 101.179C71.857 99.7824 72.9234 99.1439 73.3947 99.8687ZM125.648 99.8654C125.735 99.9996 125.852 100.434 125.908 100.831C126.173 102.719 126.413 102.857 129.575 102.94C134.805 103.078 136.689 105.7 135.562 111.275C134.69 115.587 129.942 122.164 127.702 122.164H127.19L127.192 121.763C127.194 121.421 127.316 121.215 128.035 120.347C131.495 116.172 130.972 112.87 126.851 112.868C124.288 112.867 123.154 111.726 122.557 108.546C121.829 104.673 124.287 97.7716 125.648 99.8654ZM141.648 99.824C141.751 99.9386 141.874 100.344 141.932 100.759C142.053 101.623 142.389 102.356 142.805 102.661C143.101 102.877 143.228 102.881 153.405 102.933C165.094 102.994 164.121 102.914 165.183 103.901C166.769 105.374 167.073 109.308 165.811 112.028L165.433 112.842L164.298 112.889C162.509 112.964 161.752 113.47 161.317 114.883C160.98 115.98 160.972 115.873 162.056 126.117C162.466 129.99 162.514 130.664 162.453 131.669C162.243 135.107 160.668 137.24 158.319 137.27L157.451 137.281L157.423 127.933C157.396 118.695 157.398 118.576 157.619 117.841C158.083 116.295 159.025 114.735 160.186 113.592L160.917 112.873L151.182 112.844L141.446 112.816L140.874 112.496C138.222 111.016 137.643 104.574 139.817 100.722C140.387 99.7118 141.193 99.3167 141.648 99.824ZM172.599 99.8249C172.707 99.9449 172.826 100.35 172.889 100.813C173.008 101.687 173.306 102.321 173.756 102.657C174.052 102.877 174.147 102.881 182.447 102.938C191.503 103 191.125 102.975 192.296 103.599C194.279 104.656 194.789 106.093 194.925 110.999C194.973 112.762 195.064 115.743 195.127 117.623C195.566 130.84 195.575 131.245 195.449 132.204C195.046 135.272 193.625 137.15 191.529 137.383C190.553 137.492 190.617 138.578 190.894 126.617C191.187 113.986 191.222 114.366 189.687 113.459C188.779 112.923 188.959 112.934 180.558 112.873L172.609 112.816L172.003 112.516C170.08 111.564 168.971 108.182 169.526 104.963C170.185 101.144 171.624 98.7382 172.599 99.8249ZM202.927 99.8803C203.02 100.023 203.139 100.449 203.192 100.829C203.344 101.909 203.606 102.412 204.195 102.756C204.349 102.846 206.92 102.894 213.628 102.933L222.85 102.987L223.518 103.297C225.896 104.404 226.513 108.161 224.867 111.509C223.866 113.545 223.821 111.895 225.243 125.529C226.149 134.224 225.237 137.096 221.497 137.314L220.67 137.362L220.702 127.065C220.731 117.385 220.745 116.733 220.929 116.181C221.195 115.382 221.752 114.292 222.15 113.789C222.523 113.318 222.528 113.298 222.346 113.047C222.139 112.762 206.92 112.823 206.397 113.111C205.612 113.543 205.169 114.377 204.988 115.767C204.859 116.755 204.792 115.975 205.949 127.025C206.681 134.025 205.562 137.028 202.153 137.208L201.274 137.255L201.305 127.599C201.341 116.79 201.29 117.519 202.13 115.788C202.565 114.892 203.113 114.11 203.845 113.339L204.261 112.901L203.592 112.831C200.338 112.495 198.753 107.915 200.177 102.964C200.929 100.346 202.26 98.8542 202.927 99.8803ZM77.9555 113.019C76.7776 113.314 76.1981 113.813 75.7483 114.919C75.3392 115.925 75.3346 134.944 75.7435 135.357C76.0337 135.649 115.559 135.596 115.85 135.303C116.062 135.09 116.063 134.989 116.036 124.692L116.008 114.296L115.723 113.862C115.544 113.59 115.249 113.335 114.928 113.176L114.418 112.922L96.4515 112.904C82.424 112.89 78.3693 112.915 77.9555 113.019ZM128.658 140.336L128.992 140.453V143.808C128.992 145.653 129.016 147.163 129.044 147.163C129.074 147.163 129.393 146.944 129.755 146.675C133.088 144.202 136.736 145.965 137.371 150.356C138.343 157.09 133.42 161.436 129.261 157.514L128.568 156.861V157.56C128.568 158.532 128.487 158.595 127.228 158.595C126.675 158.595 126.13 158.545 126.017 158.484C125.817 158.376 125.812 158.162 125.812 149.412V140.45L126.103 140.343C126.501 140.197 128.247 140.192 128.658 140.336ZM143.07 140.335C143.519 140.493 143.529 140.584 143.492 144.145C143.474 145.805 143.474 147.163 143.491 147.163C143.508 147.163 143.771 146.976 144.074 146.748C146.529 144.899 149.647 145.36 150.762 147.736C151.239 148.751 151.274 149.128 151.325 153.801L151.374 158.249L151.13 158.422C150.784 158.666 148.65 158.671 148.306 158.428L148.071 158.262V154.388C148.071 149.976 148.028 149.659 147.339 148.964C146.453 148.071 144.919 148.45 143.835 149.829L143.513 150.239V154.203C143.513 159 143.659 158.595 141.93 158.595C141.293 158.595 140.649 158.548 140.499 158.49L140.227 158.386V149.418V140.45L140.519 140.343C140.915 140.197 142.662 140.192 143.07 140.335ZM172.169 140.419C172.329 140.553 172.344 141.321 172.344 149.414V158.262L172.108 158.428C171.834 158.622 169.791 158.667 169.329 158.49L169.057 158.386L169.084 149.439L169.111 140.492L169.376 140.352C169.739 140.161 171.922 140.213 172.169 140.419ZM225.272 140.419C225.432 140.553 225.447 141.324 225.447 149.456V158.347L225.177 158.47C224.723 158.679 222.654 158.632 222.383 158.408L222.157 158.221L222.185 149.356L222.214 140.492L222.479 140.352C222.842 140.161 225.026 140.213 225.272 140.419ZM218.472 140.859C219.343 141.277 219.276 143.477 218.38 143.906C216.417 144.845 214.504 142.999 215.586 141.211C215.915 140.666 217.633 140.456 218.472 140.859ZM162.115 145.788C168.001 146.778 167.873 157.127 161.956 158.664C157.243 159.888 153.952 157.31 153.956 152.398C153.961 147.327 156.935 144.917 162.115 145.788ZM201.492 145.791C207.376 146.898 207.208 157.114 201.28 158.664C196.6 159.888 193.292 157.295 193.285 152.398C193.278 147.371 196.426 144.837 201.492 145.791ZM189.441 145.827C191.116 146.266 191.529 146.708 191.529 148.062C191.529 149.525 191.261 149.781 190.411 149.128C188.325 147.528 186.023 148.328 185.583 150.807C184.811 155.162 187.245 157.406 190.42 155.266C191.494 154.542 191.582 154.61 191.582 156.173C191.582 159.872 184.636 159.815 182.841 156.102C180.168 150.571 184.114 144.428 189.441 145.827ZM217.919 145.879C218.951 146.029 218.875 145.521 218.875 152.306V158.262L218.639 158.428C218.366 158.622 216.323 158.667 215.861 158.49L215.589 158.386V152.307C215.589 145.469 215.521 146 216.423 145.872C217.148 145.77 217.173 145.77 217.919 145.879ZM158.915 148.485C156.535 149.631 156.753 155.479 159.2 156.139C161.64 156.798 163.177 155.021 162.984 151.764C162.813 148.861 161.063 147.451 158.915 148.485ZM198.202 148.525C195.817 149.781 196.106 155.44 198.59 156.141C200.949 156.807 202.44 155.117 202.313 151.921C202.191 148.85 200.398 147.369 198.202 148.525ZM130.688 148.716C130.085 149.07 129.906 149.231 129.4 149.87L128.992 150.387V152.313V154.238L129.766 155.018C131.857 157.126 133.91 155.993 134.056 152.649C134.199 149.374 132.649 147.564 130.688 148.716ZM178.844 154.929C179.826 155.433 179.666 158.113 178.627 158.556C176.668 159.392 175.182 157.952 175.756 155.774C176.023 154.762 177.65 154.317 178.844 154.929ZM211.596 154.929C212.522 155.404 212.419 158.029 211.455 158.514C209.618 159.439 208.159 158.268 208.43 156.086C208.586 154.823 210.223 154.225 211.596 154.929Z" fill="#20393D"></path> </svg> 