<?xml version="1.0" encoding="UTF-8"?> <svg xmlns="http://www.w3.org/2000/svg" width="295" height="218" viewBox="0 0 295 218" fill="none"> <rect width="295" height="218" fill="white"></rect> <path fill-rule="evenodd" clip-rule="evenodd" d="M97.0463 163.536L97.0927 172.901H99.9556H102.819L102.867 169.722L102.916 166.544L107.967 166.54C117.395 166.533 118.637 165.863 118.8 160.696C118.909 157.237 118.196 155.647 116.112 154.704L115.165 154.276L106.082 154.223L97 154.171L97.0463 163.536ZM120.085 163.593V173L122.993 172.951L125.901 172.901V169.722V166.543H127.602L129.304 166.544L132.521 169.767L135.738 172.991H138.916C140.664 172.991 142.094 172.931 142.094 172.858C142.094 172.786 140.718 171.347 139.036 169.662L135.978 166.597L136.949 166.497C140.861 166.093 142.728 162.818 141.746 158.081C140.991 154.445 140.142 154.191 128.719 154.188L120.085 154.186V163.593ZM144.984 155.609C142.186 160.867 142.341 166.69 145.416 171.756L146.057 172.812H159.379H172.701L173.412 171.692C176.39 167.009 176.531 160.464 173.76 155.485L173.037 154.186H159.39H145.742L144.984 155.609ZM180.758 154.471C177.528 155.34 177.108 156.475 177.199 164.096C177.305 173.048 177.298 173.043 191.301 172.951L198.905 172.901L198.953 167.663L199 162.424H196.134H193.269V165.481V168.537L188.987 168.48C183.008 168.402 183.023 168.414 183.107 163.288C183.189 158.308 182.662 158.591 191.972 158.521L198.995 158.469V156.328V154.186L190.361 154.198C183.392 154.208 181.541 154.26 180.758 154.471ZM160.748 158.237C162.165 158.473 162.671 158.626 162.671 158.817C162.671 158.961 162.5 159.996 162.292 161.117C161.839 163.547 161.59 163.225 164.29 163.694C165.516 163.907 166.579 164.136 166.653 164.202C166.769 164.307 166.173 168.114 166.016 168.271C165.94 168.346 151.715 165.845 151.607 165.737C151.562 165.692 151.673 164.767 151.853 163.682C152.237 161.378 151.948 161.528 154.969 162.073C157.373 162.506 157.051 162.738 157.492 160.259C157.953 157.673 157.938 157.711 158.423 157.823C158.644 157.874 159.69 158.06 160.748 158.237ZM111.204 158.654C112.588 158.975 113.272 160.12 112.649 161.072C112.088 161.93 111.303 162.066 106.93 162.066H102.908V160.275V158.484L106.71 158.489C108.802 158.491 110.824 158.565 111.204 158.654ZM134.323 158.685C135.815 159.061 136.371 160.177 135.552 161.152C134.878 161.953 134.184 162.064 129.837 162.066L125.901 162.067L125.957 160.276L126.014 158.484H129.77C131.954 158.484 133.86 158.569 134.323 158.685Z" fill="#AED136"></path> <path fill-rule="evenodd" clip-rule="evenodd" d="M115.338 46.2643C101.226 48.5637 96.6279 59.603 97.0232 90.2305C97.6142 136.03 110.915 149.087 154.047 146.209C183.372 144.252 189.704 141.583 191.686 130.347L191.796 129.72L186.389 126.944C183.414 125.417 180.927 124.144 180.86 124.114C180.793 124.084 180.609 124.527 180.45 125.099C179.165 129.722 176.725 130.589 163.172 131.236C117.776 133.406 111.978 127.662 111.919 80.47C111.886 53.8465 115.1 52.3145 152.276 61.2313C172.075 65.9803 174.56 68.4181 179.094 87.5441C182.141 100.397 182.703 107.05 180.782 107.532C180.532 107.596 178.379 107.515 175.999 107.354C173.619 107.193 170.262 106.979 168.54 106.88C147.282 105.651 145.736 105.407 143.37 102.902C140.708 100.085 138.973 92.6681 138.94 83.9623C138.911 76.5583 140.398 75.5862 149.089 77.3244C157.137 78.9336 158.612 79.9668 159.592 84.6786C159.806 85.7129 160.036 86.6153 160.101 86.6841C160.229 86.819 172.283 88.5144 172.384 88.4118C172.418 88.3778 172.301 87.4592 172.124 86.3703C170.395 75.7191 165.924 71.2465 153.778 68.0194C130.642 61.8719 123.225 65.613 123.236 83.425C123.248 102.785 129.134 114.083 140.995 117.513C144.453 118.513 146.659 118.694 159.772 119.06C163.561 119.165 169.9 119.375 173.859 119.526C191.995 120.216 194.793 116.403 190.71 96.5621C184.931 68.4797 179.197 60.3973 160.674 54.2256C143.63 48.5472 123.27 44.9716 115.338 46.2643Z" fill="#AED136"></path> <path fill-rule="evenodd" clip-rule="evenodd" d="M97 163.32V172.647H99.7735H102.547V169.438V166.229L108.586 166.162C117.481 166.065 118.295 165.599 118.439 160.523C118.612 154.461 118.022 154.164 105.633 154.063L97 153.992V163.32ZM120.082 163.32V172.647H122.856H125.629V169.424V166.2H127.376H129.122L132.339 169.424L135.556 172.647H138.687H141.819L138.734 169.556C135.148 165.962 135.319 166.28 136.896 166.147C140.302 165.861 141.465 164.302 141.465 160.021C141.465 154.424 140.917 154.168 128.716 154.065L120.082 153.992V163.32ZM148.845 154.156L145.669 154.209L145.189 154.966C142.207 159.677 142.275 166.42 145.357 171.528L145.924 172.468H149.302H152.68L151.761 171.741C146.769 167.791 146.359 160.224 150.876 155.384C151.575 154.635 152.118 154.04 152.084 154.062C152.05 154.084 150.592 154.126 148.845 154.156ZM167.386 155.212C171.837 159.68 171.841 166.469 167.397 170.991L165.945 172.468H169.208H172.472L173.021 171.612C175.995 166.973 176.271 161.162 173.758 156.044L172.861 154.216L169.575 154.164L166.289 154.111L167.386 155.212ZM181.724 154.226C177.652 154.743 177.107 155.909 177.195 163.914C177.292 172.753 177.122 172.643 190.716 172.646L198.634 172.647V167.543V162.439H195.86H193.087V165.484V168.528H189.319C182.844 168.528 182.607 168.317 182.736 162.654C182.84 158.107 182.558 158.248 191.7 158.174L198.634 158.118V156.07V154.022L190.805 154.044C186.5 154.057 182.413 154.139 181.724 154.226ZM110.798 158.319C112.605 158.653 113.422 160.077 112.423 161.148C111.664 161.962 110.922 162.079 106.528 162.08L102.547 162.081V160.111V158.141H106.191C108.195 158.141 110.268 158.221 110.798 158.319ZM134.696 158.544C136.044 159.275 136.285 160.323 135.318 161.249C134.564 161.972 133.867 162.072 129.521 162.077L125.629 162.081V160.094V158.108L129.879 158.172C133.474 158.226 134.216 158.284 134.696 158.544Z" fill="black"></path> </svg> 