<?xml version="1.0" encoding="UTF-8"?> <svg xmlns="http://www.w3.org/2000/svg" width="295" height="218" viewBox="0 0 295 218" fill="none"> <rect width="295" height="218" fill="white"></rect> <path fill-rule="evenodd" clip-rule="evenodd" d="M183.226 105.211C182.667 105.211 182.164 105.41 181.716 105.806C181.325 106.259 181.129 106.768 181.129 107.334C181.129 107.957 181.325 108.467 181.716 108.863C182.164 109.259 182.667 109.457 183.226 109.457C183.841 109.457 184.345 109.259 184.736 108.863C185.127 108.467 185.323 107.957 185.323 107.334C185.323 106.768 185.127 106.259 184.736 105.806C184.345 105.41 183.841 105.211 183.226 105.211ZM182.723 107.08V106.485H183.477L183.645 106.571L183.73 106.74V106.996L183.562 107.08H182.723V107.08ZM121.078 98.6733H106.988V106.4H121.078V98.6733H121.078ZM121.078 142.997V108.948H106.988V142.997H121.078ZM183.31 105.636C183.757 105.636 184.149 105.806 184.484 106.147C184.764 106.428 184.903 106.825 184.903 107.334C184.903 107.787 184.764 108.183 184.484 108.523C184.149 108.863 183.757 109.032 183.31 109.032C182.806 109.032 182.415 108.863 182.136 108.523C181.8 108.183 181.633 107.787 181.633 107.334C181.633 106.825 181.8 106.428 182.136 106.147C182.161 106.115 182.19 106.087 182.219 106.06C182.489 105.778 182.853 105.636 183.31 105.636ZM182.219 106.06V108.523H182.723V107.505H183.058L183.226 107.589L183.897 108.523H184.4L183.897 107.589L183.645 107.42C183.813 107.42 183.953 107.334 184.065 107.165L184.233 106.74L184.149 106.316L183.897 106.147L182.219 106.06ZM167.122 117.27C170.813 117.666 173.022 119.704 173.749 123.383C174.14 127.628 172.854 130.572 169.891 132.214C166.871 132.95 164.44 132.214 162.594 130.007C160.581 126.554 160.581 123.27 162.594 120.157C163.824 118.232 165.333 117.27 167.122 117.27ZM157.896 149.196H180.375V146.14H157.896V149.196ZM129.046 108.948V130.685C128.71 132.271 127.2 133.148 124.516 133.319V142.997H131.645C137.796 142.772 141.737 139.997 143.472 134.677V108.948H129.046ZM188.678 128.733C189.684 122.393 188.314 117.127 184.569 112.939C182.555 111.014 179.899 109.684 176.6 108.948H146.658V118.203H151.523C150.125 119.732 148.923 121.684 147.917 124.063C147.078 126.836 147.078 129.695 147.917 132.639C149.818 137.224 153.145 140.45 157.896 142.319C166.34 145.376 173.972 144.724 180.794 140.366C185.211 137.478 187.839 133.6 188.678 128.733ZM96 58H200V161H96V58Z" fill="#EE2A2E"></path> <path fill-rule="evenodd" clip-rule="evenodd" d="M121.078 142.997H106.988V108.948H121.078V142.997H121.078ZM121.078 98.6733V106.4H106.988V98.6733H121.078ZM182.723 107.08H183.562L183.73 106.996V106.74L183.646 106.571L183.477 106.485H182.723V107.08V107.08ZM183.226 105.211C183.841 105.211 184.345 105.41 184.736 105.806C185.127 106.259 185.323 106.768 185.323 107.334C185.323 107.957 185.127 108.467 184.736 108.863C184.345 109.259 183.841 109.457 183.226 109.457C182.668 109.457 182.164 109.259 181.716 108.863C181.325 108.467 181.129 107.957 181.129 107.334C181.129 106.768 181.325 106.259 181.716 105.806C182.164 105.41 182.668 105.211 183.226 105.211ZM183.31 105.636C182.853 105.636 182.489 105.778 182.219 106.06C182.19 106.087 182.162 106.115 182.136 106.147C181.8 106.428 181.633 106.825 181.633 107.334C181.633 107.787 181.8 108.183 182.136 108.523C182.415 108.863 182.807 109.032 183.31 109.032C183.758 109.032 184.149 108.863 184.484 108.523C184.764 108.183 184.904 107.787 184.904 107.334C184.904 106.825 184.764 106.428 184.484 106.147C184.149 105.806 183.758 105.636 183.31 105.636ZM182.219 106.06L183.897 106.147L184.149 106.316L184.233 106.74L184.065 107.165C183.953 107.334 183.813 107.42 183.646 107.42L183.897 107.59L184.4 108.523H183.897L183.226 107.59L183.058 107.505H182.723V108.523H182.219V106.06H182.219ZM167.123 117.27C165.334 117.27 163.825 118.232 162.594 120.157C160.581 123.27 160.581 126.554 162.594 130.007C164.44 132.214 166.871 132.95 169.891 132.214C172.854 130.572 174.14 127.629 173.749 123.383C173.023 119.704 170.813 117.666 167.123 117.27ZM188.678 128.733C187.839 133.6 185.211 137.478 180.794 140.366C173.973 144.724 166.34 145.376 157.897 142.319C153.145 140.45 149.818 137.224 147.917 132.639C147.078 129.695 147.078 126.836 147.917 124.063C148.923 121.684 150.125 119.732 151.523 118.203H146.659V108.948H176.601C179.899 109.684 182.556 111.014 184.569 112.939C188.314 117.127 189.684 122.393 188.678 128.733ZM129.046 108.948H143.472V134.677C141.738 139.997 137.797 142.772 131.645 142.997H124.516V133.319C127.2 133.148 128.71 132.271 129.046 130.685V108.948ZM157.897 149.196V146.14H180.375V149.196H157.897Z" fill="white"></path> </svg> 