<?xml version="1.0" encoding="UTF-8"?> <svg xmlns="http://www.w3.org/2000/svg" width="295" height="218" viewBox="0 0 295 218" fill="none"> <rect width="295" height="218" fill="white"></rect> <path fill-rule="evenodd" clip-rule="evenodd" d="M211 83V95.247C210.958 106.437 214.134 123.607 235.023 134.597C256.043 123.595 259.22 106.437 259.223 95.247V83H211Z" fill="#579742"></path> <path fill-rule="evenodd" clip-rule="evenodd" d="M232.595 110.54C232.83 110.966 234.999 127.36 235.018 127.343C243.095 120.36 253.598 113.815 252.004 90.1279C240.674 96.0929 235.042 103.848 232.586 110.522C232.586 110.522 232.586 110.532 232.596 110.54" fill="#00473A"></path> <path d="M218.093 100.017C218.108 101.584 217.098 114.9 235.018 127.349L235.238 126.434C239.133 110.874 228.038 102.134 218.092 100.017" fill="#FEFEFE"></path> <path d="M218.093 100.017C218.108 101.584 217.098 114.9 235.018 127.349L235.238 126.434C239.133 110.874 228.038 102.134 218.092 100.017" fill="#FEFEFE"></path> <path fill-rule="evenodd" clip-rule="evenodd" d="M187.702 112.384L182.022 107.157C178.318 103.757 176.192 98.7449 176.192 93.4339V84.4919H180.122V93.4419C180.122 97.6579 181.784 101.606 184.682 104.274L187.712 107.061L190.772 104.261C193.694 101.591 195.372 97.6309 195.372 93.3909V88.4479H187.716V84.5169H199.303V93.3919C199.303 98.7319 197.158 103.752 193.42 107.164L187.7 112.384H187.702ZM88.7542 110.704H84.8242V93.6319C84.8232 92.2542 84.2754 90.9332 83.3012 89.959C82.327 88.9848 81.006 88.437 79.6282 88.4359H71.0702V84.5059H79.6262C82.0458 84.5094 84.3653 85.4721 86.0762 87.183C87.7871 88.8939 88.7498 91.2134 88.7532 93.6329V110.705L88.7542 110.704ZM66.7262 84.5449V84.5419H61.2202V88.4719H63.1262V96.4369H67.0562V84.5449H66.7262ZM145.216 84.5389L143.816 94.1459C142.933 98.4379 141.642 101.511 139.868 103.538C138.975 104.569 137.868 105.392 136.624 105.95L133.135 84.5389H127.38V88.4559H129.794L132.807 106.892C132.311 106.936 131.813 106.958 131.315 106.958H126.63V110.888H131.315C143.055 110.888 146.283 101.746 147.69 94.8679V94.8129L149.186 84.5389H145.216V84.5389ZM170.98 106.662V93.6569C170.977 91.2377 170.014 88.9186 168.303 87.208C166.593 85.4973 164.273 84.5346 161.854 84.5309H153.006V88.4589H161.854C164.72 88.4589 167.05 90.7909 167.05 93.6569V106.662H152.9V110.592H175.627V106.662H170.972H170.98ZM110.676 106.662V93.6569C110.673 91.2375 109.71 88.9183 107.999 87.2076C106.288 85.4969 103.969 84.5344 101.549 84.5309H92.7022V88.4589H101.549C104.415 88.4589 106.745 90.7909 106.745 93.6569V106.662H92.6052V110.592H115.332V106.662H110.676V106.662Z" fill="#00473A"></path> <mask id="mask0" mask-type="alpha" maskUnits="userSpaceOnUse" x="35" y="84" width="24" height="27"> <path d="M35 84.54H58.387V110.685H35V84.54Z" fill="white"></path> </mask> <g mask="url(#mask0)"> <path fill-rule="evenodd" clip-rule="evenodd" d="M35.063 100.298V110.682H38.993V100.298C38.993 97.964 40.54 95.983 42.663 95.33L47.539 102.195V102.251H47.579L53.579 110.684H58.399L51.699 101.249C53.1961 100.484 54.453 99.3212 55.3312 97.8877C56.2094 96.4542 56.6748 94.8061 56.676 93.125V84.545H56.428V84.542H50.91V88.472H52.734V93.126C52.734 95.346 51.334 97.246 49.371 97.988L39.82 84.54H35L40.323 92.032C37.22 93.492 35.063 96.647 35.063 100.298Z" fill="#00473A"></path> </g> <path fill-rule="evenodd" clip-rule="evenodd" d="M43.2209 124.984C43.8789 125.587 44.2079 126.502 44.2079 127.728V132.26C44.2079 132.36 44.1759 132.445 44.1109 132.514C44.0459 132.583 43.9589 132.619 43.8489 132.619H42.6529C42.5529 132.619 42.4679 132.584 42.3989 132.514C42.3652 132.481 42.3385 132.441 42.3204 132.398C42.3024 132.354 42.2934 132.307 42.2939 132.26V127.803C42.2939 126.387 41.5809 125.68 40.1539 125.68H39.1379C39.043 126.089 38.9732 126.503 38.9289 126.921C38.8889 127.321 38.8739 127.754 38.8839 128.251L38.9589 132.259C38.9589 132.359 38.9239 132.444 38.8539 132.513C38.8209 132.547 38.7813 132.573 38.7377 132.591C38.694 132.609 38.6472 132.618 38.5999 132.618L35.9679 132.604C35.8679 132.604 35.7829 132.569 35.7139 132.499C35.68 132.466 35.6531 132.426 35.6349 132.383C35.6167 132.339 35.6075 132.292 35.6079 132.245V131.422C35.6079 131.322 35.6429 131.226 35.7129 131.162C35.7829 131.098 35.8669 131.065 35.9669 131.065L37.1489 131.079V128.297L37.1859 126.944C37.2209 126.55 37.2929 126.129 37.4029 125.68H36.5499C36.4499 125.68 36.3649 125.645 36.2959 125.576C36.2619 125.543 36.2351 125.503 36.2171 125.459C36.199 125.415 36.1901 125.367 36.1909 125.32V124.437C36.1909 124.337 36.2259 124.24 36.2959 124.177C36.3659 124.114 36.4499 124.079 36.5499 124.079H40.2439C41.5699 124.079 42.5619 124.382 43.2209 124.985V124.984ZM46.2879 132.515C46.2179 132.445 46.1829 132.361 46.1829 132.261V124.438C46.1829 124.338 46.2179 124.241 46.2879 124.178C46.3565 124.113 46.4477 124.078 46.5419 124.08H47.8079C47.9047 124.077 47.9988 124.112 48.0699 124.178C48.1031 124.212 48.1288 124.253 48.1455 124.298C48.1622 124.343 48.1695 124.391 48.1669 124.439V132.262C48.169 132.356 48.1342 132.447 48.0699 132.516C48.0363 132.551 47.9955 132.579 47.9503 132.597C47.9051 132.615 47.8566 132.623 47.8079 132.621H46.5519C46.4519 132.621 46.3679 132.586 46.2979 132.516L46.2879 132.515ZM49.9979 132.515C49.9279 132.445 49.8929 132.361 49.8929 132.261V131.381C49.8906 131.332 49.8988 131.284 49.917 131.238C49.9351 131.193 49.9627 131.152 49.9979 131.119C50.0667 131.055 50.1578 131.02 50.2519 131.022H54.2759V127.822C54.2759 126.396 53.5679 125.684 52.1519 125.684H50.4019C50.3019 125.684 50.2179 125.649 50.1479 125.579C50.0779 125.509 50.0429 125.425 50.0429 125.325V124.44C50.0429 124.34 50.0779 124.243 50.1479 124.18C50.2165 124.115 50.3077 124.08 50.4019 124.082H52.2269C53.5629 124.082 54.5699 124.385 55.2469 124.988C55.9239 125.591 56.2639 126.526 56.2639 127.792V131.022H56.8019C56.8986 131.019 56.9926 131.054 57.0639 131.119C57.1289 131.184 57.1609 131.271 57.1609 131.381V132.263C57.163 132.357 57.1282 132.448 57.0639 132.517C57.0303 132.552 56.9895 132.58 56.9443 132.598C56.8991 132.616 56.8506 132.624 56.8019 132.622H50.2519C50.1519 132.622 50.0679 132.587 49.9979 132.517V132.515ZM58.7019 132.514C58.6319 132.444 58.5969 132.36 58.5969 132.26V124.438C58.5969 124.338 58.6319 124.241 58.7019 124.178C58.7705 124.113 58.8617 124.078 58.9559 124.08H60.2119C60.3087 124.077 60.4028 124.112 60.4739 124.178C60.5071 124.212 60.5328 124.253 60.5495 124.298C60.5662 124.343 60.5735 124.391 60.5709 124.439V132.262C60.573 132.356 60.5382 132.447 60.4739 132.516C60.4403 132.551 60.3995 132.579 60.3543 132.597C60.3091 132.615 60.2606 132.623 60.2119 132.621H58.9559C58.8559 132.621 58.7719 132.586 58.7019 132.516V132.514ZM81.1379 131.02V127.803C81.1379 126.387 80.4299 125.68 79.0139 125.68H77.3679V131.02H81.1379ZM75.7229 132.516C75.6529 132.446 75.6179 132.361 75.6179 132.261V124.438C75.6179 124.338 75.6529 124.241 75.7229 124.178C75.7915 124.113 75.8827 124.078 75.9769 124.08H79.0769C80.3929 124.08 81.3729 124.375 82.0169 124.963C82.6609 125.551 82.9819 126.463 82.9819 127.73V132.247C82.9819 132.347 82.9469 132.447 82.8769 132.517C82.8069 132.587 82.7219 132.621 82.6229 132.621H75.9779C75.8779 132.621 75.7929 132.586 75.7239 132.517L75.7229 132.516Z" fill="#569742"></path> <path d="M84.982 129.015C84.912 128.945 84.877 128.861 84.877 128.761V124.438C84.877 124.338 84.912 124.241 84.982 124.178C85.0505 124.113 85.1417 124.078 85.236 124.08H86.506C86.606 124.08 86.703 124.113 86.768 124.178C86.833 124.243 86.865 124.33 86.865 124.438V128.76C86.8671 128.854 86.8322 128.945 86.768 129.014C86.7343 129.049 86.6936 129.077 86.6484 129.095C86.6032 129.113 86.5546 129.121 86.506 129.119H85.236C85.136 129.119 85.052 129.084 84.982 129.014" fill="#569742"></path> <path d="M88.856 129.015C88.786 128.945 88.751 128.861 88.751 128.761V124.438C88.751 124.338 88.786 124.241 88.856 124.178C88.9246 124.113 89.0157 124.078 89.11 124.08H90.38C90.48 124.08 90.577 124.113 90.642 124.178C90.707 124.243 90.739 124.33 90.739 124.438V128.76C90.7411 128.854 90.7063 128.945 90.642 129.014C90.6084 129.049 90.5676 129.077 90.5224 129.095C90.4772 129.113 90.4286 129.121 90.38 129.119H89.11C89.01 129.119 88.926 129.084 88.856 129.014" fill="#569742"></path> <path fill-rule="evenodd" clip-rule="evenodd" d="M99.3411 124.183C99.3748 124.216 99.4015 124.256 99.4196 124.299C99.4376 124.343 99.4466 124.39 99.4461 124.437V125.32C99.4468 125.367 99.4378 125.414 99.4198 125.458C99.4017 125.502 99.3749 125.542 99.3411 125.575C99.2711 125.645 99.1811 125.68 99.0711 125.68H98.2781C98.1481 125.85 98.0481 126.094 97.9781 126.412C97.9081 126.73 97.8731 127.086 97.8731 127.474V132.291C97.8731 132.381 97.8331 132.457 97.7531 132.523C97.6731 132.589 97.5831 132.62 97.4831 132.62H96.2881C96.1881 132.62 96.1081 132.59 96.0481 132.53C95.9881 132.47 95.9481 132.39 95.9481 132.29V127.34C95.9481 126.543 96.0621 125.99 96.2921 125.68H92.5221C92.4221 125.68 92.3371 125.645 92.2681 125.575C92.1991 125.505 92.1631 125.42 92.1631 125.32V124.437C92.1631 124.327 92.1981 124.24 92.2681 124.177C92.3367 124.112 92.4279 124.077 92.5221 124.079H99.0581C99.1581 124.079 99.2581 124.115 99.3281 124.184" fill="#569742"></path> <path d="M101.061 129.015C100.991 128.945 100.956 128.861 100.956 128.761V124.438C100.956 124.338 100.991 124.241 101.061 124.178C101.13 124.113 101.221 124.078 101.315 124.08H102.585C102.685 124.08 102.782 124.113 102.847 124.178C102.912 124.243 102.944 124.33 102.944 124.438V128.76C102.946 128.854 102.911 128.945 102.847 129.014C102.813 129.049 102.773 129.077 102.727 129.095C102.682 129.113 102.634 129.121 102.585 129.119H101.315C101.215 129.119 101.131 129.084 101.061 129.014" fill="#569742"></path> <path fill-rule="evenodd" clip-rule="evenodd" d="M104.695 132.515C104.625 132.445 104.59 132.361 104.59 132.261V131.38C104.587 131.331 104.596 131.283 104.614 131.237C104.632 131.192 104.659 131.151 104.695 131.118C104.763 131.054 104.855 131.019 104.949 131.021H108.973V127.821C108.973 126.395 108.265 125.683 106.849 125.683H105.099C104.999 125.683 104.915 125.648 104.845 125.578C104.775 125.508 104.74 125.424 104.74 125.324V124.441C104.74 124.341 104.775 124.244 104.845 124.181C104.913 124.116 105.004 124.081 105.099 124.083H106.924C108.26 124.083 109.267 124.386 109.944 124.989C110.621 125.592 110.961 126.527 110.961 127.793V131.023H111.501C111.601 131.023 111.697 131.055 111.761 131.12C111.825 131.185 111.859 131.272 111.859 131.382V132.264C111.861 132.358 111.825 132.449 111.761 132.518C111.696 132.588 111.609 132.623 111.501 132.623H104.948C104.848 132.623 104.764 132.588 104.694 132.518" fill="#569742"></path> <mask id="mask1" mask-type="alpha" maskUnits="userSpaceOnUse" x="115" y="124" width="8" height="11"> <path d="M115.913 124.079H122.613V134.474H115.913V124.079Z" fill="white"></path> </mask> <g mask="url(#mask1)"> <path fill-rule="evenodd" clip-rule="evenodd" d="M118.545 125.679H116.272C116.172 125.679 116.087 125.644 116.018 125.574C115.949 125.504 115.913 125.42 115.913 125.32V124.439C115.913 124.339 115.948 124.242 116.018 124.179C116.088 124.116 116.172 124.079 116.272 124.079H118.636C119.972 124.079 120.969 124.369 121.626 124.947C122.283 125.525 122.613 126.453 122.613 127.729V134.115C122.614 134.163 122.606 134.21 122.588 134.254C122.571 134.298 122.544 134.338 122.511 134.372C122.477 134.405 122.437 134.432 122.393 134.449C122.349 134.467 122.302 134.475 122.254 134.474H121.044C120.95 134.476 120.858 134.442 120.789 134.377C120.754 134.343 120.727 134.303 120.709 134.257C120.691 134.212 120.683 134.164 120.685 134.115V127.803C120.685 126.388 119.971 125.68 118.545 125.68" fill="#569742"></path> </g> <path fill-rule="evenodd" clip-rule="evenodd" d="M129.928 124.992C130.486 125.6 130.765 126.572 130.765 127.909C130.765 129.175 130.421 130.192 129.733 130.959C129.045 131.726 128.167 132.271 127.1 132.589L126.487 132.783C126.387 132.813 126.287 132.793 126.217 132.723C126.178 132.69 126.147 132.649 126.127 132.603C126.106 132.556 126.096 132.506 126.097 132.455V131.363C126.097 131.263 126.13 131.189 126.195 131.109C126.26 131.029 126.347 130.969 126.457 130.929L126.981 130.729C127.559 130.499 128.006 130.175 128.319 129.756C128.632 129.337 128.789 128.729 128.789 127.931C128.789 127.383 128.727 126.951 128.602 126.638C128.477 126.325 128.268 126.098 127.974 125.956C127.68 125.814 127.274 125.756 126.754 125.756H126.29L124.608 125.724C124.508 125.724 124.408 125.692 124.338 125.627C124.304 125.596 124.277 125.558 124.258 125.515C124.24 125.472 124.232 125.426 124.233 125.38V122.36C124.233 122.26 124.268 122.175 124.338 122.106C124.408 122.037 124.508 122 124.608 122H125.7C125.8 122 125.897 122.033 125.962 122.097C126.027 122.161 126.059 122.249 126.059 122.359V124.079H127.091C128.417 124.079 129.359 124.383 129.918 124.992H129.928ZM141.505 124.182C141.575 124.252 141.61 124.337 141.61 124.436V128.476C141.61 129.334 141.423 130.076 141.05 130.734C140.686 131.368 140.149 131.885 139.502 132.224C138.854 132.569 138.105 132.724 137.288 132.724H136.018C135.29 132.724 134.65 132.572 134.096 132.268C133.556 131.977 133.11 131.539 132.81 131.004C132.506 130.466 132.354 129.862 132.354 129.204V124.438C132.354 124.338 132.389 124.241 132.459 124.178C132.528 124.113 132.619 124.078 132.713 124.08H133.79C133.887 124.077 133.981 124.112 134.052 124.178C134.117 124.243 134.149 124.33 134.149 124.438L134.179 128.358C134.896 128.298 135.399 128.076 135.679 127.692C135.959 127.308 136.113 126.772 136.113 126.084V124.454C136.113 124.354 136.148 124.254 136.218 124.184C136.288 124.114 136.372 124.079 136.472 124.079H137.549C137.596 124.078 137.643 124.087 137.687 124.106C137.73 124.124 137.77 124.15 137.803 124.184C137.873 124.254 137.908 124.344 137.908 124.454V126.13C137.908 127.177 137.606 128.022 137.003 128.665C136.4 129.308 135.529 129.67 134.403 129.75C134.603 130.2 134.873 130.55 135.248 130.774C135.623 130.998 136.048 131.126 136.548 131.126H136.968C137.536 131.136 138.035 131.026 138.464 130.796C138.893 130.566 139.222 130.243 139.451 129.824C139.68 129.405 139.795 128.927 139.795 128.388V124.438C139.795 124.338 139.83 124.254 139.9 124.184C139.97 124.114 140.06 124.079 140.17 124.079H141.247C141.294 124.078 141.341 124.087 141.385 124.106C141.428 124.124 141.468 124.15 141.501 124.184L141.505 124.182ZM154.118 124.984C154.776 125.587 155.106 126.502 155.106 127.728V132.26C155.108 132.354 155.073 132.445 155.009 132.514C154.975 132.549 154.935 132.577 154.889 132.595C154.844 132.613 154.796 132.621 154.747 132.619H153.55C153.45 132.619 153.365 132.584 153.296 132.514C153.262 132.481 153.236 132.441 153.218 132.398C153.2 132.354 153.191 132.307 153.191 132.26V127.803C153.191 126.387 152.478 125.68 151.053 125.68H150.035C149.94 126.089 149.871 126.503 149.826 126.921C149.786 127.321 149.771 127.754 149.781 128.251L149.855 132.259C149.855 132.359 149.82 132.444 149.75 132.513C149.717 132.547 149.677 132.573 149.634 132.591C149.59 132.61 149.543 132.619 149.496 132.618L146.863 132.603C146.763 132.603 146.678 132.568 146.608 132.498C146.538 132.428 146.504 132.344 146.504 132.244V131.42C146.502 131.372 146.51 131.323 146.528 131.278C146.546 131.233 146.573 131.193 146.608 131.159C146.677 131.094 146.769 131.06 146.863 131.062L148.043 131.076V128.296L148.081 126.943C148.121 126.517 148.194 126.094 148.298 125.679H147.446C147.399 125.68 147.352 125.671 147.308 125.653C147.264 125.635 147.224 125.609 147.191 125.575C147.121 125.505 147.087 125.42 147.087 125.32V124.437C147.087 124.337 147.122 124.24 147.191 124.177C147.26 124.112 147.351 124.077 147.446 124.079H151.14C152.466 124.079 153.46 124.382 154.117 124.985L154.118 124.984ZM157.187 132.515C157.117 132.445 157.082 132.361 157.082 132.261V124.438C157.082 124.338 157.117 124.241 157.187 124.178C157.257 124.115 157.341 124.08 157.441 124.08H158.698C158.798 124.08 158.894 124.113 158.96 124.178C158.993 124.213 159.019 124.254 159.036 124.298C159.052 124.343 159.06 124.391 159.057 124.439V132.262C159.059 132.356 159.024 132.447 158.96 132.516C158.926 132.551 158.886 132.579 158.84 132.597C158.795 132.615 158.747 132.623 158.698 132.621H157.441C157.341 132.621 157.257 132.586 157.187 132.516V132.515ZM168.499 132.316C168.499 132.416 168.467 132.481 168.402 132.54C168.344 132.597 168.266 132.629 168.185 132.629H166.929C166.829 132.629 166.747 132.609 166.682 132.569C166.624 132.534 166.571 132.492 166.525 132.442L166.45 132.36L163.43 128.066C163.09 128.346 162.86 128.666 162.73 129.031C162.6 129.396 162.55 129.791 162.55 130.231V132.265C162.55 132.365 162.518 132.465 162.453 132.535C162.419 132.57 162.379 132.597 162.333 132.615C162.288 132.633 162.24 132.641 162.191 132.639H161.174C161.127 132.64 161.08 132.631 161.036 132.613C160.992 132.595 160.952 132.569 160.919 132.535C160.849 132.465 160.815 132.375 160.815 132.265V130.215C160.815 129.418 160.929 128.75 161.159 128.211C161.389 127.672 161.827 127.179 162.475 126.731L161.009 124.651C160.959 124.551 160.934 124.481 160.934 124.411C160.934 124.311 160.964 124.246 161.034 124.187C161.104 124.128 161.164 124.087 161.234 124.087H162.446C162.626 124.087 162.786 124.182 162.926 124.372L165.708 128.275C166.108 128.037 166.344 127.775 166.448 127.49C166.552 127.205 166.605 126.844 166.605 126.405V124.453C166.605 124.353 166.637 124.253 166.702 124.183C166.736 124.148 166.776 124.12 166.822 124.102C166.867 124.084 166.915 124.076 166.964 124.078H168.041C168.141 124.078 168.225 124.116 168.295 124.19C168.363 124.26 168.4 124.354 168.399 124.452V126.472C168.399 127.13 168.279 127.709 168.041 128.207C167.803 128.705 167.338 129.169 166.641 129.607L168.391 132.075C168.451 132.155 168.491 132.235 168.491 132.315L168.499 132.316ZM170.259 129.015C170.189 128.945 170.154 128.861 170.154 128.761V124.438C170.154 124.338 170.189 124.241 170.259 124.178C170.328 124.113 170.419 124.078 170.513 124.08H171.783C171.88 124.077 171.974 124.112 172.045 124.178C172.11 124.243 172.142 124.33 172.142 124.438V128.76C172.144 128.854 172.109 128.945 172.045 129.014C172.011 129.049 171.971 129.077 171.925 129.095C171.88 129.113 171.832 129.121 171.783 129.119H170.513C170.413 129.119 170.329 129.084 170.259 129.014V129.015ZM178.499 132.514C178.429 132.444 178.394 132.36 178.394 132.26V127.803C178.394 126.388 177.681 125.68 176.256 125.68H174.162C174.062 125.68 173.962 125.645 173.892 125.575C173.822 125.505 173.787 125.421 173.787 125.321V124.438C173.786 124.391 173.795 124.344 173.813 124.3C173.831 124.256 173.858 124.216 173.892 124.183C173.928 124.148 173.97 124.121 174.016 124.104C174.063 124.086 174.112 124.077 174.162 124.079H176.345C177.671 124.079 178.665 124.376 179.322 124.979C179.979 125.582 180.309 126.493 180.309 127.739V132.271C180.311 132.365 180.276 132.456 180.212 132.525C180.178 132.56 180.138 132.588 180.092 132.606C180.047 132.624 179.999 132.632 179.95 132.63H178.753C178.653 132.63 178.569 132.595 178.499 132.525V132.514ZM182.059 132.515C181.989 132.445 181.954 132.361 181.954 132.261V131.381C181.952 131.332 181.96 131.284 181.978 131.239C181.996 131.193 182.024 131.153 182.059 131.119C182.128 131.055 182.219 131.02 182.313 131.022H186.337V127.822C186.337 126.396 185.629 125.684 184.213 125.684H182.463C182.363 125.684 182.278 125.649 182.209 125.579C182.175 125.546 182.149 125.506 182.131 125.463C182.113 125.419 182.104 125.372 182.104 125.325V124.44C182.104 124.34 182.139 124.243 182.209 124.18C182.279 124.117 182.363 124.082 182.463 124.082H184.288C185.625 124.082 186.631 124.385 187.308 124.988C187.985 125.591 188.325 126.526 188.325 127.792V131.022H188.863C188.96 131.019 189.054 131.054 189.125 131.119C189.19 131.184 189.223 131.271 189.223 131.381V132.263C189.225 132.357 189.19 132.448 189.125 132.517C189.091 132.552 189.051 132.58 189.005 132.598C188.96 132.616 188.912 132.624 188.863 132.622H182.313C182.213 132.622 182.129 132.587 182.059 132.517" fill="#569742"></path> <path fill-rule="evenodd" clip-rule="evenodd" d="M190.804 132.515C190.734 132.445 190.699 132.361 190.699 132.261V127.565C190.699 127.465 190.734 127.368 190.804 127.303C190.874 127.238 190.958 127.206 191.058 127.206H192.255C192.355 127.206 192.451 127.238 192.517 127.303C192.583 127.368 192.614 127.455 192.614 127.565V132.261C192.616 132.355 192.581 132.446 192.517 132.515C192.483 132.55 192.442 132.578 192.397 132.596C192.352 132.614 192.304 132.622 192.255 132.62H191.058C190.958 132.62 190.874 132.585 190.804 132.515ZM196.384 132.515C196.314 132.445 196.279 132.361 196.279 132.261V127.803C196.279 126.388 195.571 125.68 194.155 125.68H191.059C190.959 125.68 190.875 125.645 190.805 125.575C190.735 125.505 190.7 125.421 190.7 125.321V124.438C190.7 124.338 190.735 124.241 190.805 124.178C190.875 124.115 190.959 124.08 191.059 124.08H194.229C196.871 124.08 198.192 125.317 198.192 127.78V132.252C198.194 132.346 198.159 132.437 198.095 132.506C198.061 132.541 198.02 132.569 197.975 132.587C197.93 132.605 197.882 132.613 197.833 132.611H196.637C196.537 132.611 196.452 132.576 196.383 132.506L196.384 132.515ZM66.5329 133.208L64.5699 131.632C63.3359 130.525 62.6299 128.902 62.6299 127.177V124.373C62.6299 124.223 62.7529 124.099 62.9039 124.099H64.1039C64.2539 124.099 64.3779 124.222 64.3779 124.373V127.177C64.3779 128.407 64.8749 129.753 65.7429 130.53L66.5509 131.255L67.3679 130.528C68.2429 129.75 68.7449 128.402 68.7449 127.164V125.667H66.8249C66.6749 125.667 66.5509 125.544 66.5509 125.393V124.363C66.5509 124.211 66.6739 124.089 66.8249 124.089H69.5029C69.7623 124.089 70.011 124.192 70.1945 124.376C70.378 124.559 70.4814 124.808 70.4819 125.067V127.164C70.4819 128.898 69.7679 130.527 68.5219 131.634L66.5449 133.207L66.5329 133.208Z" fill="#569742"></path> </svg> 