<?xml version="1.0" encoding="UTF-8"?> <svg xmlns="http://www.w3.org/2000/svg" width="295" height="218" fill="none"> <path fill="#fff" d="M0 0h295v218H0z"></path> <g clip-path="url(#a)"> <path d="M81.976 117.89c-4.704 5.58-10.733 8.495-17.49 8.495-12.272 0-21.166-8.578-21.166-20.445 0-11.868 8.766-20.487 20.397-20.487 8.338 0 13.812 4.705 16.72 8.203l6.798-5.58a29.889 29.889 0 0 0-10.457-8.16A30.687 30.687 0 0 0 63.718 77c-16.934 0-29.72 12.45-29.72 28.94-.083 7.32 2.735 14.389 7.868 19.737.47 4.122.727 11.201-2.907 13.575.042 0 10.946.458 17.446-5.33 2.649.606 5.36.914 8.082.916 9.92 0 19.67-4.705 24.673-11.909l-7.184-5.039z" fill="#132D50"></path> <path d="M64.317 90.033c-9.663 0-16.933 7.204-16.933 16.156 0 8.953 7.27 16.073 16.933 16.073 9.664 0 16.934-7.12 16.934-16.073 0-8.952-7.27-16.156-16.934-16.156zm0 24.568c-5.002 0-8.38-3.748-8.38-8.412 0-4.663 3.378-8.494 8.38-8.494 5.004 0 8.382 3.831 8.382 8.494 0 4.664-3.379 8.412-8.382 8.412zM215.733 114.601c-5.174 0-8.809-3.582-8.809-8.412 0-4.83 3.678-8.494 8.595-8.494a9.48 9.48 0 0 1 4.126 1.01 9.216 9.216 0 0 1 3.229 2.696l6.029-5.205c-2.95-3.706-7.868-6.163-13.384-6.163-9.706 0-17.104 7.12-17.104 16.156 0 9.036 7.227 16.073 17.062 16.073 5.943 0 10.69-2.082 14.41-6.954l-6.542-4.788a9.242 9.242 0 0 1-3.288 2.957 9.526 9.526 0 0 1-4.324 1.124zM142.398 82.038l-17.403 15.657h8.894v10.868c0 4.372.684 7.12 2.352 9.244 2.138 2.831 5.901 4.455 11.032 4.455 1.539 0 3.934-.208 5.088-.583l-2.138-6.912a23.07 23.07 0 0 1-2.437.167c-2.095 0-3.506-.583-4.319-1.541-.812-.958-1.069-1.957-1.069-3.873V97.695h10.477v-7.037h-10.477v-8.62zM262 97.695v-7.037h-10.476v-8.62L234.12 97.695h8.852v10.868c0 4.372.727 7.12 2.394 9.244 2.138 2.831 5.901 4.455 10.99 4.455 1.582 0 3.934-.208 5.131-.583l-2.138-6.912c-.809.099-1.622.154-2.437.167-2.096 0-3.507-.583-4.362-1.541s-1.026-1.957-1.026-3.873V97.695H262zM182.978 95.238c-.256-2.29-3.463-5.205-9.321-5.205-8.638 0-15.608 6.995-15.608 16.156a16.517 16.517 0 0 0 4.062 10.868 16.108 16.108 0 0 0 5.438 3.85 16.483 16.483 0 0 0 6.578 1.355c5.602 0 8.68-2.873 8.851-5.205v4.581h8.21v-30.98h-8.21v4.58zm-8.509 19.363h-.299a7.817 7.817 0 0 1-5.044-3.022 7.428 7.428 0 0 1-1.399-5.603 7.543 7.543 0 0 1 3.054-4.94 7.937 7.937 0 0 1 5.739-1.418 7.825 7.825 0 0 1 5.103 2.926 7.432 7.432 0 0 1 1.511 5.575 7.534 7.534 0 0 1-2.955 4.997 7.93 7.93 0 0 1-5.71 1.526v-.041zM107.036 90.033c-5.474 0-8.766 2.582-9.023 5.038v-4.413h-8.167v30.98h8.51v-19.071s.726-2.707 4.19-4.164l.598-.209a8.585 8.585 0 0 1 2.951-.5c1.967 0 3.677.625 4.789 1.708 1.112 1.083 1.924 2.748 1.924 5.83v16.406h8.51v-15.782c0-5.288-1.198-8.411-3.293-10.868a14.335 14.335 0 0 0-4.932-3.66 14.699 14.699 0 0 0-6.057-1.295z" fill="#2A62AD"></path> <path d="M99.467 130.882a.736.736 0 0 1 .257.583v7.203a.574.574 0 0 1-.175.372.605.605 0 0 1-.382.17.44.44 0 0 1-.384-.167.502.502 0 0 1-.171-.375v-6.87l-2.908 6.912a.543.543 0 0 1-.3.333.652.652 0 0 1-.47.167.88.88 0 0 1-.47-.125.758.758 0 0 1-.342-.375l-2.865-6.912v6.87a.492.492 0 0 1-.171.375.513.513 0 0 1-.385.169.527.527 0 0 1-.385-.169.504.504 0 0 1-.171-.375v-7.203a.9.9 0 0 1 .214-.583.726.726 0 0 1 .599-.209h.384a.88.88 0 0 1 .47.125.922.922 0 0 1 .3.375l2.822 6.829 2.822-6.829a.672.672 0 0 1 .3-.375.787.787 0 0 1 .47-.125h.385a.67.67 0 0 1 .304.038.638.638 0 0 1 .252.171zM104.855 137.753a2.05 2.05 0 0 0 1.454.458 3.767 3.767 0 0 0 1.625-.292l.384-.083a.393.393 0 0 1 .3.125.33.33 0 0 1 .171.291.461.461 0 0 1-.3.458l-.47.209-.428.208c-.435.089-.88.13-1.325.125a3.076 3.076 0 0 1-1.27-.166 3.004 3.004 0 0 1-1.082-.667 3.2 3.2 0 0 1-.677-1.102 3.129 3.129 0 0 1-.178-1.272 3.439 3.439 0 0 1 .727-2.207 2.77 2.77 0 0 1 1.018-.737c.393-.166.82-.242 1.248-.22.411-.017.82.057 1.198.215.377.159.713.398.983.701.53.583.806 1.345.77 2.123a.754.754 0 0 1-.171.375.517.517 0 0 1-.385.167h-4.234a1.811 1.811 0 0 0 .642 1.291zm1.197-3.956a1.736 1.736 0 0 0-.961.239c-.29.17-.52.42-.664.719a1.55 1.55 0 0 0-.214.791h3.635a1.623 1.623 0 0 0-.641-1.333 1.651 1.651 0 0 0-1.155-.416zM113.45 137.753c.416.339.955.504 1.496.458a3.68 3.68 0 0 0 1.582-.292l.385-.083a.565.565 0 0 1 .342.125.36.36 0 0 1 .128.291.44.44 0 0 1-.054.268.47.47 0 0 1-.202.19l-.47.208-.471.209a6.27 6.27 0 0 1-1.325.125c-.43.029-.862-.03-1.267-.174a3.088 3.088 0 0 1-1.085-.659c-.3-.319-.53-.694-.677-1.102a3.112 3.112 0 0 1-.178-1.272 3.433 3.433 0 0 1 .727-2.207 2.824 2.824 0 0 1 1.019-.733 2.892 2.892 0 0 1 1.247-.224c.412-.027.824.043 1.203.202.38.159.715.404.978.714.53.583.806 1.345.769 2.123a.499.499 0 0 1-.171.375.465.465 0 0 1-.385.167h-4.233c.064.487.289.94.642 1.291zm1.197-3.956a1.789 1.789 0 0 0-.957.246c-.289.17-.52.417-.668.711a2.17 2.17 0 0 0-.214.792h3.678a1.768 1.768 0 0 0-.685-1.333 1.568 1.568 0 0 0-1.154-.416zM122.942 138.294h.47l.342-.083a.476.476 0 0 1 .3.124.486.486 0 0 1 .128.375.416.416 0 0 1-.257.375c-.284.119-.588.19-.897.208h-.685a1.435 1.435 0 0 1-.598-.166 1.473 1.473 0 0 1-.542-.593 1.419 1.419 0 0 1-.142-.781v-3.748h-.898c-.129 0-.214-.083-.214-.25a.196.196 0 0 1 .041-.1.21.21 0 0 1 .087-.066l1.668-1.624.213-.084c.086-.041.129 0 .172.042a.24.24 0 0 1 .042.166v.958h1.411a.393.393 0 0 1 .342.167.41.41 0 0 1 .129.333.407.407 0 0 1-.123.338.443.443 0 0 1-.348.12h-1.411v3.664a.667.667 0 0 0 .3.625h.47zM137.182 133.089c.08.094.125.211.128.333 0 .125 0 .208-.043.25l-3.378 7.953a.494.494 0 0 1-.189.275.52.52 0 0 1-.324.1.518.518 0 0 1-.342-.167.421.421 0 0 1-.126-.146.419.419 0 0 1-.045-.187.538.538 0 0 1 .043-.25l.812-1.998-2.351-5.538a.61.61 0 0 1-.043-.292c0-.065.015-.128.045-.186a.424.424 0 0 1 .126-.147.39.39 0 0 1 .342-.167.57.57 0 0 1 .333.079c.1.06.178.149.223.255l1.924 4.622 1.924-4.581a.589.589 0 0 1 .201-.26.615.615 0 0 1 .312-.115.578.578 0 0 1 .428.167zM142.955 132.881c.425-.016.85.054 1.247.204.397.15.758.378 1.062.67.575.629.881 1.448.855 2.29a3.279 3.279 0 0 1-.855 2.332 3.16 3.16 0 0 1-2.309.874 3.049 3.049 0 0 1-2.31-.874 3.154 3.154 0 0 1-.694-1.076 3.08 3.08 0 0 1-.203-1.256c-.02-.421.05-.842.205-1.236.154-.394.39-.752.692-1.054a3.049 3.049 0 0 1 2.31-.874zm-1.412 4.871a2.31 2.31 0 0 0 1.412.5c.234-.001.465-.043.684-.125.249-.083.481-.21.684-.375a2.157 2.157 0 0 0 .641-1.707 2.276 2.276 0 0 0-.641-1.707 1.839 1.839 0 0 0-1.368-.458 1.916 1.916 0 0 0-1.138.282 1.85 1.85 0 0 0-.744.884 2.49 2.49 0 0 0-.171.999c-.017.355.041.709.171 1.041.111.25.27.476.47.666zM151.678 138.252c.727 0 1.411-.374 2.01-1.166v-3.622a.737.737 0 0 1 .171-.375.576.576 0 0 1 .427-.167.525.525 0 0 1 .385.167.535.535 0 0 1 .171.375v5.163a.736.736 0 0 1-.171.417.524.524 0 0 1-.385.166.558.558 0 0 1-.427-.166.736.736 0 0 1-.171-.417v-.458c-.25.273-.538.512-.856.708a2.795 2.795 0 0 1-1.325.375 2.721 2.721 0 0 1-1.069-.167 2.044 2.044 0 0 1-.684-.499 2.456 2.456 0 0 1-.556-1.666v-3.456a.652.652 0 0 1 .128-.375.578.578 0 0 1 .428-.167.524.524 0 0 1 .385.167.539.539 0 0 1 .171.375v3.289c-.032.384.074.767.299 1.083a1.203 1.203 0 0 0 1.069.416zM159.459 134.005a2.4 2.4 0 0 1 .822-.79 2.473 2.473 0 0 1 1.103-.334h.085a.695.695 0 0 1 .385.125.74.74 0 0 1 .171.416.737.737 0 0 1-.171.375.745.745 0 0 1-.428.125h-.042a1.914 1.914 0 0 0-1.112.291 2.444 2.444 0 0 0-.813.792v3.664a.737.737 0 0 1-.171.375.514.514 0 0 1-.384.166.56.56 0 0 1-.428-.166.657.657 0 0 1-.128-.375v-5.205a.652.652 0 0 1 .128-.375.56.56 0 0 1 .428-.166.506.506 0 0 1 .384.166.737.737 0 0 1 .171.375v.541zM171.091 137.752c.42.336.956.5 1.497.458a3.892 3.892 0 0 0 1.625-.291l.385-.083a.472.472 0 0 1 .396.256.355.355 0 0 1 .031.16.447.447 0 0 1-.054.268.47.47 0 0 1-.202.19l-.471.208-.47.208c-.421.09-.852.132-1.283.125a3.232 3.232 0 0 1-2.394-.832c-.556-.542-.813-1.333-.813-2.374a3.44 3.44 0 0 1 .684-2.207c.281-.314.63-.563 1.022-.729a2.932 2.932 0 0 1 1.245-.229 2.84 2.84 0 0 1 1.219.211c.385.159.728.4 1.004.706.497.599.755 1.353.727 2.123a.482.482 0 0 1-.171.375.428.428 0 0 1-.385.166h-4.233c.063.487.289.941.641 1.291zm1.198-3.955a1.65 1.65 0 0 0-.946.236 1.593 1.593 0 0 0-.636.721 2.146 2.146 0 0 0-.257.791h3.677a1.912 1.912 0 0 0-.641-1.332 1.73 1.73 0 0 0-1.197-.416zM183.277 138.294a.442.442 0 0 1 .129.333.696.696 0 0 1-.129.417.648.648 0 0 1-.427.166.51.51 0 0 1-.24-.053.506.506 0 0 1-.188-.155l-1.796-2.082-1.625 2.04a.595.595 0 0 1-.898.084.509.509 0 0 1-.128-.375.66.66 0 0 1 .128-.375l1.925-2.207-1.925-2.29a.329.329 0 0 1-.128-.375.456.456 0 0 1 .128-.333.573.573 0 0 1 .428-.167.536.536 0 0 1 .24.053c.075.036.139.09.188.156l1.753 2.082 1.71-2.082a.593.593 0 0 1 .66-.17c.074.028.14.072.195.128a.491.491 0 0 1 .171.333.647.647 0 0 1-.128.375l-1.967 2.248 1.924 2.249zM187.681 133.797a2.958 2.958 0 0 1 2.138-.916 2.798 2.798 0 0 1 2.053.791c.607.657.942 1.51.942 2.394 0 .884-.335 1.737-.942 2.394-.267.264-.588.47-.941.607a2.808 2.808 0 0 1-1.112.185 2.976 2.976 0 0 1-1.167-.24 2.919 2.919 0 0 1-.971-.676v3.081a.698.698 0 0 1-.128.416.783.783 0 0 1-.428.167.654.654 0 0 1-.385-.167.74.74 0 0 1-.171-.416v-7.953a.745.745 0 0 1 .171-.375.477.477 0 0 1 .385-.167.568.568 0 0 1 .428.167.49.49 0 0 1 .128.375v.333zm0 3.539c.243.277.545.498.884.649.34.151.71.228 1.083.226.414.04.829-.058 1.179-.277.349-.219.612-.547.745-.931.091-.311.134-.634.129-.958a2.299 2.299 0 0 0-.556-1.624 2.18 2.18 0 0 0-1.497-.541 2.852 2.852 0 0 0-1.079.262c-.339.158-.64.38-.888.654v2.54zM197.346 137.753c.417.339.955.504 1.497.458a3.68 3.68 0 0 0 1.582-.292l.385-.083a.385.385 0 0 1 .299.125.338.338 0 0 1 .126.123c.03.051.046.109.045.168a.446.446 0 0 1-.055.268.464.464 0 0 1-.202.19l-.513.209-.427.208a6.28 6.28 0 0 1-1.326.125c-.43.029-.861-.03-1.267-.174a3.097 3.097 0 0 1-1.085-.659 3.197 3.197 0 0 1-.676-1.102 3.13 3.13 0 0 1-.179-1.272 3.439 3.439 0 0 1 .727-2.207 2.77 2.77 0 0 1 1.018-.737c.393-.166.82-.242 1.248-.22a2.75 2.75 0 0 1 1.2.211c.378.159.714.4.981.705.53.583.806 1.345.77 2.123a.505.505 0 0 1-.044.206.512.512 0 0 1-.127.169.482.482 0 0 1-.385.167h-4.233c.063.487.288.94.641 1.291zm1.197-3.956a1.738 1.738 0 0 0-.961.239c-.289.17-.52.42-.664.719a2.16 2.16 0 0 0-.213.791h3.677a1.753 1.753 0 0 0-.193-.739 1.804 1.804 0 0 0-.491-.594 1.563 1.563 0 0 0-1.155-.416zM207.523 138.21a2.8 2.8 0 0 0 1.326-.291l.384-.125a.477.477 0 0 1 .342.125c.081.109.126.24.129.375 0 .166-.086.291-.3.416-.583.372-1.27.56-1.967.541a3.3 3.3 0 0 1-2.309-.832 2.957 2.957 0 0 1-.769-1.078 2.894 2.894 0 0 1-.214-1.296 3.004 3.004 0 0 1 .236-1.268c.169-.402.424-.764.747-1.064a3.051 3.051 0 0 1 2.309-.832c.421-.019.841.038 1.241.166l.769.375a.501.501 0 0 1 .257.416.456.456 0 0 1-.129.333.304.304 0 0 1-.256.167 1.012 1.012 0 0 1-.47-.125 2.979 2.979 0 0 0-1.326-.333 2.183 2.183 0 0 0-1.628.592c-.213.204-.38.449-.49.72-.11.271-.161.562-.148.853a2.125 2.125 0 0 0 .598 1.582 2.221 2.221 0 0 0 1.668.583zM215.049 138.294h.471l.299-.083a.385.385 0 0 1 .299.124.496.496 0 0 1 .129.375.454.454 0 0 1-.214.375 3.225 3.225 0 0 1-.941.208h-.684a1.373 1.373 0 0 1-.994-.491 1.301 1.301 0 0 1-.289-1.049v-3.748h-.855a.216.216 0 0 1-.107-.003.211.211 0 0 1-.147-.143.204.204 0 0 1-.003-.104.207.207 0 0 1 .129-.166l1.667-1.624.214-.084c.086-.041.128 0 .171.042a.247.247 0 0 1 .043.166v.958h1.411a.482.482 0 0 1 .385.167.42.42 0 0 1 .128.333.438.438 0 0 1-.128.333.613.613 0 0 1-.385.125h-1.411v3.664a.735.735 0 0 0 .299.625c.17.03.344.03.513 0zM219.24 133.297a5.08 5.08 0 0 1 2.181-.417 2.6 2.6 0 0 1 1.067.165c.34.13.647.329.899.585a2.54 2.54 0 0 1 .642 1.624v3.414a.579.579 0 0 1-.214.375.506.506 0 0 1-.385.169.525.525 0 0 1-.385-.169.496.496 0 0 1-.171-.375v-.333a2.818 2.818 0 0 1-.898.625 3.018 3.018 0 0 1-1.453.291 2.262 2.262 0 0 1-1.412-.458 1.718 1.718 0 0 1-.598-1.332 1.617 1.617 0 0 1 .161-.791c.119-.247.299-.462.523-.625a3.667 3.667 0 0 1 2.181-.541h1.496v-.125a1.304 1.304 0 0 0-.427-1.124 1.746 1.746 0 0 0-1.24-.334 6.812 6.812 0 0 0-1.668.25h-.214a.383.383 0 0 1-.256-.125.484.484 0 0 1-.129-.374.425.425 0 0 1 .3-.375zm.427 4.039c0 .625.428.958 1.283.958.392.008.777-.093 1.112-.292a3.05 3.05 0 0 0 .812-.583v-1.041h-1.368a4.095 4.095 0 0 0-1.368.208.84.84 0 0 0-.471.75zM229.758 138.294h.471l.299-.083a.385.385 0 0 1 .299.124.537.537 0 0 1 .171.375.418.418 0 0 1-.256.375c-.285.119-.589.19-.898.208h-.684a1.436 1.436 0 0 1-.599-.166 1.473 1.473 0 0 1-.542-.593 1.419 1.419 0 0 1-.142-.781v-3.748h-.898c-.143 0-.228-.083-.257-.25a.215.215 0 0 1 .041-.1.217.217 0 0 1 .087-.066l1.711-1.624.171-.084c.085-.041.128 0 .171.042l.085.166v.958h1.412a.39.39 0 0 1 .342.167.42.42 0 0 1 .128.333.407.407 0 0 1-.123.338.44.44 0 0 1-.347.12h-1.412v3.664a.652.652 0 0 0 .061.353c.053.11.135.204.239.272h.47zM235.061 131.09a.57.57 0 0 1-.214.458.558.558 0 0 1-.427.166h-.086a.653.653 0 0 1-.47-.166.737.737 0 0 1-.171-.458.564.564 0 0 1 .214-.417.516.516 0 0 1 .427-.166h.086a.558.558 0 0 1 .427.166.564.564 0 0 1 .214.417zm-1.112 1.999a.562.562 0 0 1 .428-.167c.144.01.28.07.382.169a.58.58 0 0 1 .174.372v5.205a.505.505 0 0 1-.044.206.512.512 0 0 1-.127.169.427.427 0 0 1-.385.167.562.562 0 0 1-.428-.167.66.66 0 0 1-.128-.375v-5.205a.488.488 0 0 1 .128-.374zM241.262 132.881c.426-.024.853.042 1.252.193.398.151.758.383 1.057.681.301.301.534.66.681 1.055.148.395.207.816.174 1.235.026.425-.037.85-.184 1.251a3.151 3.151 0 0 1-.671 1.081c-.299.298-.659.53-1.057.681a3.054 3.054 0 0 1-1.252.193 3.143 3.143 0 0 1-1.249-.201 3.06 3.06 0 0 1-1.06-.673 3.275 3.275 0 0 1-.855-2.332 3.153 3.153 0 0 1 .855-2.29 3.06 3.06 0 0 1 1.06-.673 3.143 3.143 0 0 1 1.249-.201zm-1.369 4.871c.188.164.405.291.642.375l.727.125c.248-.001.493-.043.727-.125a1.978 1.978 0 0 0 1.186-1.151c.119-.296.167-.614.139-.931a2.143 2.143 0 0 0-.151-.926 2.206 2.206 0 0 0-.533-.781 1.662 1.662 0 0 0-.63-.381 1.71 1.71 0 0 0-.738-.077 1.834 1.834 0 0 0-1.124.278 1.759 1.759 0 0 0-.715.888 2.54 2.54 0 0 0 0 2.04c.08.266.244.499.47.666zM250.712 133.88c-.727 0-1.411.375-2.053 1.166v3.622a.652.652 0 0 1-.128.375.568.568 0 0 1-.428.167.523.523 0 0 1-.385-.167.745.745 0 0 1-.171-.375v-5.205a.49.49 0 0 1 .171-.374.477.477 0 0 1 .385-.167.568.568 0 0 1 .428.167.498.498 0 0 1 .128.374v.542c.263-.289.565-.541.898-.75a2.657 2.657 0 0 1 1.326-.374 2.72 2.72 0 0 1 1.069.166c.265.13.499.315.684.541.39.454.589 1.034.556 1.624v3.456a.505.505 0 0 1-.044.206.512.512 0 0 1-.127.169.427.427 0 0 1-.385.167.605.605 0 0 1-.382-.17.575.575 0 0 1-.174-.372v-3.331a1.713 1.713 0 0 0-.299-1.082 1.309 1.309 0 0 0-1.069-.375zM258.665 138.252c.897 0 1.368-.291 1.368-.833a.413.413 0 0 0-.299-.416 1.474 1.474 0 0 0-.685-.25l-.898-.25-.898-.291a2.993 2.993 0 0 1-.684-.542 1.381 1.381 0 0 1-.256-.832 2.43 2.43 0 0 1 .128-.833 1.26 1.26 0 0 1 .47-.583 2.612 2.612 0 0 1 1.796-.541 5.076 5.076 0 0 1 1.796.291l.3.167a.963.963 0 0 1 .085.333c0 .083-.043.166-.171.291a.392.392 0 0 1-.257.125h-.342a4.141 4.141 0 0 0-1.282-.166 2.258 2.258 0 0 0-1.069.208.712.712 0 0 0-.385.583.499.499 0 0 0 .256.499l.727.292.898.208c.313.074.614.186.898.333.296.118.548.32.724.58.176.26.266.566.26.878.013.244-.039.488-.152.707a1.426 1.426 0 0 1-.49.542 2.615 2.615 0 0 1-1.796.541 4.366 4.366 0 0 1-2.223-.541.454.454 0 0 1-.214-.375.438.438 0 0 1 .128-.333.334.334 0 0 1 .127-.123.356.356 0 0 1 .173-.044l.384.084c.5.208 1.04.308 1.583.291z" fill="#132D50"></path> </g> <defs> <clipPath id="a"> <path fill="#fff" transform="translate(34 77)" d="M0 0h228v65H0z"></path> </clipPath> </defs> </svg> 