<?xml version="1.0" encoding="UTF-8"?> <svg xmlns="http://www.w3.org/2000/svg" width="257" height="257" viewBox="0 0 257 257" fill="none"> <path d="M168.397 159.854C152.709 180.933 122.902 185.294 101.848 169.615C80.763 153.921 76.4015 124.12 92.0897 103.041C107.778 81.9749 137.554 77.6135 158.639 93.2954C179.724 108.987 184.085 138.788 168.397 159.854V159.854ZM251.168 92.6554L237.457 60.7864L218.788 64.495C215.807 60.5604 212.544 56.789 208.998 53.2278L216.905 35.9739L189.074 15.2529L173.261 29.1214C169.182 27.4019 165.04 25.9335 160.836 24.7349L158.859 4.02652L124.407 0.000906922L117.191 21.227C113.237 21.7071 109.284 22.3879 105.393 23.2821L92.6544 5.37258L60.8074 19.1217L65.2317 41.4554C62.0626 43.7333 59.0191 46.1995 56.0697 48.8539L35.9888 39.6669L15.2491 67.4821L29.8391 84.1084C28.0193 87.9081 26.4819 91.7612 25.1327 95.6801L4.04768 97.6944L0 132.149L19.4849 138.76C19.7987 143.4 20.3946 148.028 21.2731 152.6L5.3968 163.908L19.1396 195.761L37.2751 192.159C40.1304 196.561 43.3623 200.788 46.8765 204.788L39.6599 220.574L67.4908 241.295L79.9158 230.413C85.2184 233.121 90.6779 235.374 96.2315 237.159L97.7062 252.521L132.157 256.547L136.99 242.255C143.296 241.853 149.509 240.947 155.627 239.506L163.91 251.16L195.789 237.442L192.934 223.081C198.111 219.532 203.068 215.494 207.681 210.988L220.576 216.893L241.316 189.069L231.213 177.56C233.817 171.934 235.856 166.161 237.457 160.293L252.549 158.866L256.565 124.402L240.532 118.961C239.904 113.401 238.869 107.879 237.394 102.467L251.168 92.6554" fill="#D6D6D6"></path> </svg> 