<?xml version="1.0" encoding="UTF-8"?> <svg xmlns="http://www.w3.org/2000/svg" width="448" height="448" viewBox="0 0 448 448" fill="none"> <path d="M230.955 447.734L170.913 440.72L168.364 413.92C158.686 410.8 149.168 406.88 139.908 402.16L118.26 421.146L69.7366 385.041L82.3513 357.508C76.1568 350.507 70.5753 343.148 65.5745 335.482L33.9247 341.76L9.98556 286.226L37.6671 266.533C36.1185 258.548 35.0863 250.482 34.5378 242.374L0.597168 230.853L7.63042 170.773L44.4102 167.279C46.7331 160.452 49.4431 153.719 52.5726 147.092L27.1816 118.133L63.284 69.6128L98.3539 85.641C103.451 81.0274 108.807 76.7332 114.292 72.7455L106.548 33.8009L162.105 9.85213L184.302 41.0665C191.11 39.5082 197.982 38.3081 204.918 37.4789L217.501 0.479735L277.542 7.49369L280.962 43.5992C288.286 45.6931 295.545 48.2386 302.643 51.2261L330.195 27.0548L378.719 63.1731L364.942 93.268C371.137 99.4818 376.847 106.054 382.042 112.919L414.531 106.467L438.47 161.988L414.434 179.081C416.983 188.534 418.789 198.161 419.919 207.879L447.858 217.374L440.825 277.428L414.563 279.935C411.82 290.146 408.175 300.215 403.69 310.039L421.273 330.081L385.139 378.585L362.652 368.306C354.586 376.162 345.972 383.215 336.906 389.413L341.874 414.4L286.35 438.359L271.896 418.027C261.217 420.533 250.377 422.121 239.44 422.802L230.955 447.734V447.734ZM227.728 114C192.433 114 157.556 130.106 134.876 160.601C96.7408 211.841 107.355 284.281 158.589 322.415C179.334 337.853 203.531 345.293 227.534 345.293C262.83 345.293 297.707 329.2 320.387 298.709C358.522 247.465 347.94 175.025 296.706 136.894C275.961 121.453 251.732 114 227.728 114" fill="#D6D6D6"></path> </svg> 