<?xml version="1.0" encoding="UTF-8"?> <svg xmlns="http://www.w3.org/2000/svg" width="1805" height="582" viewBox="0 0 1805 582" fill="none"> <path d="M232.054 86.6134C232.054 86.6134 227.59 79.0403 219.847 76.4268C217.034 75.4804 211.337 76.2803 210.337 79.2937C209.314 82.3072 212.058 85.9601 216.15 87.3482C223.916 89.9617 232.054 86.6134 232.054 86.6134Z" fill="#8C1782"></path> <path d="M230.866 86.7234C230.866 86.7234 239.186 87.0038 245.893 82.3089C248.323 80.6169 251.245 75.8425 249.679 73.5897C248.09 71.3368 243.72 71.6686 240.168 74.1365C233.46 78.8431 230.866 86.7234 230.866 86.7234" fill="#8C1782"></path> <path d="M236.196 111.053C236.196 111.053 243.208 112.238 248.327 108.652C250.197 107.357 252.114 103.278 250.548 101.025C248.958 98.7713 245.335 98.5983 242.624 100.478C237.505 104.066 236.196 111.053 236.196 111.053" fill="#8C1782"></path> <path d="M235.205 111.16C235.205 111.16 232.296 105.025 226.385 101.986C224.221 100.892 219.683 100.639 218.636 102.666C217.612 104.693 219.497 107.732 222.616 109.333C228.503 112.372 235.205 111.16 235.205 111.16" fill="#8C1782"></path> <path d="M235.754 211.614C233.813 212.374 232.386 212.28 232.269 212.266L232.41 210.599L232.339 211.427L232.41 210.599C232.55 210.613 236.315 210.826 239.939 206.479C243.985 201.613 246.159 193.199 246.37 181.465C246.697 165.387 243.26 143.481 236.198 116.346C227.99 84.8391 229.487 67.161 230.446 55.4668C230.703 52.4666 230.913 49.8804 230.913 47.68L232.573 47.666C232.597 49.9459 232.386 52.5719 232.129 55.6141C231.147 67.1867 229.674 84.6918 237.811 115.921C253.549 176.307 248.311 199.12 241.155 207.627C239.285 209.853 237.344 211.013 235.754 211.614Z" fill="#8C1782"></path> <path d="M278.887 179.28C310.841 233.706 311.576 297.919 286.555 351.533C227.562 347.279 171.821 315.359 139.867 260.933C107.89 206.519 107.154 142.305 132.199 88.6797C191.192 92.9458 246.933 124.866 278.887 179.28Z" fill="#E6E6E6"></path> <path d="M143.708 109.776L280.075 341.949L282.997 340.229L146.63 108.056" fill="#8C1782"></path> <path d="M173.331 155.308L128.395 147.003L127.777 150.347L172.713 158.641" fill="#8C1782"></path> <path d="M196.585 194.882L141.188 184.654L140.589 187.987L195.963 198.229" fill="#8C1782"></path> <path d="M219.818 234.468L127.25 217.375L126.624 220.71L219.216 237.814" fill="#8C1782"></path> <path d="M243.073 274.07L153.013 257.429L152.383 260.776L242.467 277.402" fill="#8C1782"></path> <path d="M266.327 313.641L216.165 304.389L215.555 307.721L265.717 316.975" fill="#8C1782"></path> <path d="M172.517 152.334L187.153 109.042L183.936 107.962L169.3 151.24" fill="#8C1782"></path> <path d="M195.756 191.922L218.601 124.427L215.381 123.348L192.559 190.828" fill="#8C1782"></path> <path d="M219.017 231.508L247.594 147.026L244.372 145.933L215.818 230.413" fill="#8C1782"></path> <path d="M242.264 271.094L271.609 184.321L268.39 183.229L239.045 270.001" fill="#8C1782"></path> <path d="M265.517 310.668L290.734 236.135L287.523 235.053L262.305 309.587" fill="#D1DBEA"></path> <path d="M160.726 262.88C202.96 294.133 224.448 343.092 222.777 392.319C176.181 408.294 123.111 402.012 80.8772 370.759C38.6438 339.506 17.1325 290.56 18.8033 241.332C65.3994 225.346 118.493 231.625 160.726 262.88Z" fill="#E6E6E6"></path> <path d="M34.5239 253.721L214.65 387.08L216.341 384.802L36.1912 251.454" fill="#8C1782"></path> <path d="M72.0383 278.936L34.9297 287.229L35.5311 289.988L72.6619 281.682" fill="#8C1782"></path> <path d="M102.764 301.669L57.0083 311.896L57.6148 314.654L103.371 304.427" fill="#8C1782"></path> <path d="M133.468 324.4L56.9758 341.495L57.61 344.254L134.102 327.162" fill="#8C1782"></path> <path d="M164.195 347.147L89.7842 363.788L90.4009 366.533L164.811 349.908" fill="#8C1782"></path> <path d="M194.92 369.879L153.493 379.145L154.092 381.906L195.542 372.64" fill="#8C1782"></path> <path d="M70.4451 276.923L67.5291 239.005L64.7241 239.216L67.6404 277.137" fill="#8C1782"></path> <path d="M101.176 299.654L96.6639 240.533L93.8352 240.746L98.3476 299.865" fill="#8C1782"></path> <path d="M131.885 322.402L126.226 248.376L123.396 248.602L129.056 322.615" fill="#8C1782"></path> <path d="M162.594 345.135L156.774 269.11L153.966 269.322L159.787 345.348" fill="#8C1782"></path> <path d="M193.325 367.866L188.331 302.561L185.5 302.772L190.518 368.094" fill="#8C1782"></path> <path d="M449.749 352.043C481.856 330.709 455.866 324.455 425.132 325.668C439.513 310.536 429.826 296.856 392.575 282.456C375.848 275.989 355.949 280.683 336.6 290.495C320.372 262.348 299.175 243.443 275.881 254.907C256.607 264.39 242.476 275.535 233.812 287.214C227.67 285.042 221.054 283.042 213.989 281.202C198.609 277.243 187.474 281.095 179.659 289.601C149.225 273.508 118.666 264.51 101.339 276.948C71.1794 298.574 67.684 316.176 88.4562 332.761C57.7972 334.828 35.0526 345.349 75.948 367.35C39.3719 364.761 13.4813 369.362 29.7846 390.254C66.136 436.83 229.842 439.256 351.106 413.281C427.978 406.63 491.568 390.616 503.078 365.949C511.566 347.801 484.602 346.563 449.749 352.043" fill="#8C1782"></path> <path d="M2.18129 430.549C-2.86615 422.802 3.40706 416.202 27.3704 412.695C53.521 408.881 78.4939 411.481 99.0442 416.214C50.5647 392.734 -5.94283 359.762 45.6613 355.948C61.741 354.748 86.4977 362.536 113.994 374.707C83.301 349.734 66.428 329.189 85.0074 325.389C102.265 321.841 137.477 342.161 174.948 369.121C153.605 346.521 141.226 326.802 150.816 317.496C158.652 309.908 175.357 318.628 194.561 334.775C193.696 320.563 199.657 312.001 213.285 313.722C226.096 315.335 236.455 331.775 243.858 351.482C256.164 320.909 288.612 302.202 321.348 311.496C359.781 322.389 328.895 395.707 311.686 430.549H2.18129" fill="#601459"></path> <path d="M74.5161 183.95L74.6761 184.124C78.1498 187.803 135.717 250.257 165.289 395.109L167.072 394.735C136.494 244.843 75.9331 182.776 75.8188 182.671L74.5161 183.95Z" fill="#601459"></path> <path d="M139.394 214.017C139.394 214.017 139.531 214.308 139.806 214.897C143.794 223.563 175.996 295.896 175.996 377.334C175.996 378.148 175.996 378.962 175.996 379.775L177.807 379.789C177.807 378.975 177.829 378.148 177.829 377.334C177.806 289.962 141.067 213.295 141.044 213.228L139.394 214.017" fill="#601459"></path> <path d="M87.2095 275.493L87.3685 275.572C88.9131 276.427 102.746 284.32 116.147 301.628C129.548 318.947 142.564 345.666 142.564 384.321C142.564 384.559 142.564 384.787 142.564 385.027H144.381C144.381 384.787 144.381 384.559 144.381 384.321C144.404 343.987 130.343 316.347 116.261 298.841C102.201 281.319 88.1407 273.908 88.0726 273.867L87.2095 275.493" fill="#601459"></path> <path d="M68.0705 171.055C55.393 178.39 47.5171 188.496 50.5014 193.641C53.4632 198.775 66.1633 197.002 78.8407 189.669C91.5182 182.323 99.3938 172.215 96.432 167.068C93.4477 161.936 80.7704 163.722 68.0705 171.055Z" fill="#8C1782"></path> <path d="M71.7664 177.403C67.7248 179.736 65.2239 182.95 66.1618 184.575C67.122 186.203 71.1412 185.642 75.1605 183.309C79.2022 180.976 81.703 177.776 80.7651 176.135C79.805 174.509 75.7857 175.069 71.7664 177.403" fill="#0C1153"></path> <path d="M137.279 208.521C132.001 211.574 128.725 215.787 129.954 217.921C131.182 220.069 136.483 219.323 141.761 216.27C147.039 213.214 150.315 209.001 149.064 206.867C147.835 204.721 142.557 205.468 137.279 208.521Z" fill="#8C1782"></path> <path d="M138.793 211.161C137.135 212.133 136.091 213.468 136.477 214.147C136.885 214.828 138.543 214.601 140.223 213.627C141.903 212.655 142.948 211.32 142.562 210.641C142.153 209.96 140.473 210.187 138.793 211.161" fill="#0C1153"></path> <path d="M83.5331 270.616C77.9901 276.204 75.342 282.55 77.5861 284.79C79.8527 287.029 86.1811 284.336 91.7242 278.751C97.2672 273.176 99.9376 266.83 97.6935 264.577C95.4269 262.337 89.0761 265.044 83.5331 270.616Z" fill="#8C1782"></path> <path d="M86.3537 273.388C84.5849 275.161 83.7341 277.188 84.4505 277.895C85.167 278.6 87.1822 277.747 88.951 275.974C90.6974 274.201 91.5481 272.188 90.8317 271.481C90.1152 270.76 88.1001 271.628 86.3537 273.388Z" fill="#0C1153"></path> <path d="M139.247 380.612C137.608 380.373 136.471 378.84 136.721 377.172C136.971 375.532 138.496 374.387 140.157 374.64C141.817 374.892 142.932 376.44 142.682 378.08C142.455 379.732 140.907 380.867 139.247 380.612ZM146.118 378.533C145.913 378.373 145.708 378.226 145.503 378.08L145.845 377.959C148.711 376.826 150.554 374.692 149.963 373.2C149.371 371.707 146.573 371.4 143.706 372.519C143.456 372.613 143.228 372.733 143.001 372.84L143.046 372.478C143.524 369.439 142.591 366.772 140.998 366.533C139.406 366.279 137.745 368.561 137.267 371.614C137.244 371.88 137.199 372.133 137.176 372.385L136.926 372.16C134.514 370.24 131.739 369.694 130.737 370.959C129.736 372.212 130.851 374.799 133.263 376.719C133.49 376.892 133.695 377.04 133.9 377.186L133.559 377.306C130.692 378.426 128.849 380.56 129.441 382.052C130.032 383.559 132.831 383.866 135.697 382.746C135.948 382.639 136.175 382.546 136.425 382.426L136.357 382.774C135.879 385.827 136.812 388.494 138.405 388.732C139.997 388.974 141.658 386.705 142.136 383.652C142.159 383.386 142.204 383.133 142.227 382.881L142.477 383.106C144.912 385.026 147.665 385.572 148.666 384.307C149.667 383.04 148.552 380.467 146.118 378.533" fill="white"></path> <path d="M1617.15 225.464C1617.15 225.464 1623.39 173.787 1663.37 173.787C1705.64 173.787 1731.51 171.972 1754.2 175.345C1773.79 178.268 1800.42 195.72 1793.35 244.265C1783.19 314.371 1752.62 435.373 1752.62 435.373H1573.29L1611.66 253.667L1617.15 225.464" fill="#C20073"></path> <path d="M1612.48 225.468C1612.48 225.468 1618.08 173.788 1653.78 173.788C1691.58 173.788 1714.68 171.975 1734.97 175.349C1752.51 178.268 1776.27 195.724 1769.99 244.269C1760.89 314.373 1733.57 435.373 1733.57 435.373H1573.28L1607.57 253.667L1612.48 225.468" fill="#E30087"></path> <path d="M1429.92 132.881L1434.56 105.866L1453.65 98.1608C1453.65 98.1608 1453.84 104.335 1449.22 108.188C1444.58 112.04 1444.58 112.04 1444.58 112.04L1439.97 128.253L1429.92 132.881" fill="#E9AB86"></path> <path d="M389.133 223.106C389.133 223.106 382.865 171.467 342.956 171.467C300.72 171.467 274.889 169.667 252.193 173.041C232.63 175.947 206.04 193.373 213.091 241.881C223.252 311.921 253.784 432.787 253.784 432.787H432.935L394.593 251.268L389.133 223.106Z" fill="#C20073"></path> <path d="M393.785 223.106C393.785 223.106 388.178 171.467 352.529 171.467C314.75 171.467 291.661 169.667 271.412 173.041C253.906 175.947 230.132 193.373 236.449 241.881C245.533 311.921 272.808 432.787 272.808 432.787H432.935L398.657 251.268L393.785 223.106" fill="#E30087"></path> <path d="M1574.21 142.91C1574.21 142.91 1606.65 144.455 1644.45 163.75C1682.25 183.042 1674.53 184.59 1683.03 199.242C1691.52 213.908 1708.49 293.389 1708.49 293.389L1640.57 298.788L1667.58 415.307L1478.54 424.561L1475.44 309.59C1475.44 309.59 1437.63 267.148 1428.39 269.467C1419.12 271.774 1420.67 154.483 1500.93 151.401C1581.15 148.309 1574.21 142.91 1574.21 142.91" fill="#601459"></path> <path d="M1425.86 152.564L1452.59 181.562L1491.5 111.536L1457.3 92.5364L1425.86 152.564Z" fill="#601459"></path> <path d="M1468.12 292.616C1468.12 292.616 1428.37 407.202 1374.38 428.04C1320.35 448.869 1405.21 258.654 1422.2 249.4C1439.19 240.135 1468.12 292.616 1468.12 292.616Z" fill="#E9AB86"></path> <path d="M1640.03 294.346C1640.03 294.346 1649.09 360.52 1661.41 392.16C1673.77 423.801 1677.2 438.628 1693.25 424.561C1707.16 412.413 1715.44 379.815 1715.44 368.239C1715.44 356.667 1703.66 293.188 1703.66 293.188L1640.03 294.346Z" fill="#E9AB86"></path> <path d="M1669.12 365.147C1669.12 365.147 1506.33 406.816 1490.13 404.507C1473.9 402.189 1437.65 388.295 1437.65 388.295C1437.65 388.295 1409.84 412.228 1405.22 416.855C1400.6 421.482 1414.5 430.736 1425.3 433.054C1436.1 435.376 1667.61 433.054 1667.61 433.054C1667.61 433.054 1712.35 433.054 1693.83 396.789C1675.3 360.52 1669.12 365.147 1669.12 365.147" fill="#E9AB86"></path> <path d="M1547.2 78.0963C1547.2 78.0963 1546.42 50.309 1544.13 38.7361C1541.82 27.1633 1531.01 21.7637 1514.82 16.3641C1498.59 10.9645 1500.91 12.496 1504.76 9.41721C1508.62 6.32277 1494.74 3.24405 1477.77 10.1909C1460.79 17.1377 1433.79 34.8838 1453.09 63.4291C1472.35 91.99 1544.89 108.189 1547.2 78.0963Z" fill="#601459"></path> <path d="M1581.56 143.293C1581.56 143.293 1568.82 142.908 1560.34 132.881C1551.83 122.854 1545.68 110.507 1547.98 102.012C1550.32 93.5209 1554.95 64.9726 1544.14 71.1464C1533.35 77.3202 1536.41 76.5477 1534.11 81.9458C1531.78 87.3471 1531.02 83.494 1528.69 77.3202C1526.38 71.1464 1518.66 60.3471 1512.51 58.7989C1506.33 57.2539 1506.33 36.4276 1510.18 31.7862C1514.06 27.1606 1493.21 36.4275 1478.55 38.7325C1463.89 41.0532 1457.71 40.2807 1451.53 53.4007C1445.35 66.5208 1446.14 80.4008 1449.98 94.2934C1453.83 108.186 1470.83 138.279 1473.13 145.229C1475.46 152.175 1473.92 153.707 1486.24 153.707C1498.61 153.707 1493.21 154.48 1492.42 163.747C1491.67 173.001 1488.58 206.96 1518.66 208.508C1548.77 210.041 1575.38 198.854 1581.56 143.293" fill="#F0BF97"></path> <path d="M1475.46 142.134C1475.46 149.854 1401.6 389.481 1376.68 425.722C1363.95 444.24 1344.65 405.668 1343.14 379.426C1341.6 353.187 1426.86 189.214 1426.86 189.214L1416.82 155.252C1416.82 155.252 1410.64 154.48 1424.54 135.961C1438.44 117.439 1442.27 117.439 1442.27 117.439L1453.85 122.852L1460.79 135.186C1460.79 135.186 1452.15 155.212 1446.93 153.708C1441.52 152.173 1449.21 146.772 1443.04 145.228C1436.86 143.681 1432.26 147.547 1432.26 147.547L1446.93 173.774C1446.93 173.774 1453.85 179.947 1459.25 169.92C1464.65 159.893 1475.46 135.961 1475.46 142.134Z" fill="#F0BF97"></path> <path d="M1446.91 153.707C1441.51 152.176 1449.2 146.775 1443.02 145.229C1436.85 143.682 1432.25 147.549 1432.25 147.549L1446.91 173.774C1446.91 173.774 1453.83 179.947 1459.26 169.922C1464.66 159.895 1472.74 138.281 1472.74 144.454C1472.74 147.735 1462.07 190.653 1444.6 244.254C1444.44 227.936 1445.12 207.295 1447.65 199.243C1452.31 184.589 1445.37 187.669 1439.97 183.042C1434.57 178.416 1422.22 149.08 1422.22 149.08L1433.79 139.056C1433.79 139.056 1438.42 139.056 1444.6 137.506C1450.77 135.96 1453.83 122.856 1453.83 122.856L1460.77 135.189C1460.77 135.189 1452.16 155.216 1446.91 153.707" fill="#E9AB86"></path> <path d="M1151.46 264.707H1314.65C1318.67 264.707 1323.13 267.973 1324.58 272.002L1379.68 423.334H1201.9L1146.82 272.002C1145.37 267.973 1147.43 264.707 1151.46 264.707Z" fill="#E3E3E3"></path> <path d="M1521.38 422.426V426.919C1521.38 430.867 1518.17 434.08 1514.22 434.08H1207.71C1203.75 434.08 1200.54 430.867 1200.54 426.919V422.426H1521.38Z" fill="#B1B6BA"></path> <path d="M1379.78 426.919V422.426H1521.38V426.919C1521.38 430.867 1518.17 434.08 1514.22 434.08H1386.95C1382.99 434.08 1379.78 430.867 1379.78 426.919Z" fill="#B1B6BA"></path> <path d="M1264.1 350.708C1267.3 357.961 1265.29 365.853 1259.63 368.349C1253.98 370.841 1246.78 366.975 1243.62 359.719C1240.42 352.481 1242.43 344.574 1248.09 342.094C1253.74 339.601 1260.93 343.455 1264.1 350.708" fill="#B1B6BA"></path> <path d="M1539.51 112.812C1539.51 112.812 1531.79 132.882 1525.61 139.055C1519.43 145.228 1494.75 151.401 1486.25 153.707C1477.78 156.028 1488.57 151.401 1508.64 157.574C1528.69 163.747 1554.94 176.865 1554.94 167.599C1554.94 158.346 1554.56 141.373 1551.46 135.187C1548.39 129.026 1539.51 112.812 1539.51 112.812Z" fill="#E9AB86"></path> <path d="M458.183 371.84C458.183 371.84 441.049 384.041 505.855 390.68C570.687 397.373 667.351 392.559 667.351 392.559L519.127 364.48C519.127 364.48 478.247 356.188 458.183 371.84" fill="#E9D6B8"></path> <path d="M615.911 391.655C646.652 395.68 657.921 411.413 669.479 417.333C681.062 423.266 692.357 431.506 692.331 431.388C687.142 418.562 677.236 416.895 672.807 412.388C668.404 407.867 669.4 409.987 680.459 410.653C686.723 411.041 696.289 422.454 703.417 428.987C709.576 434.653 713.795 435.615 713.795 435.615C713.795 435.615 707.243 424.522 698.176 415.066C687.3 403.695 673.279 393.495 669.898 391.734C663.661 388.547 643.193 385.213 628.307 385.08C611.508 384.894 593.792 388.759 615.911 391.655" fill="#E9D6B8"></path> <path d="M668.167 392.094C668.167 392.094 690.935 400.586 694.677 403.973C697.268 406.281 707.71 419.348 707.71 419.348C707.71 419.348 699.1 416.893 694.625 411.881C690.124 406.893 668.167 392.094 668.167 392.094" fill="#E9D6B8"></path> <path d="M572.116 372.014C572.116 372.014 555.342 398.361 552.149 406.348C548.957 414.334 481.861 399.962 481.861 399.962C481.861 399.962 413.626 367.922 459.513 358.428C482.672 353.642 572.116 372.014 572.116 372.014Z" fill="#8C1782"></path> <path d="M539.179 182.735C523.991 213.842 485.946 226.547 454.182 211.029C422.419 195.574 408.947 157.788 424.11 126.693C439.247 95.5736 477.292 82.8961 509.081 98.3891C540.844 113.854 554.316 151.655 539.179 182.735" fill="#590D52"></path> <path d="M444.502 190.561C425.331 229.815 377.318 245.815 337.201 226.269C297.059 206.721 280.059 159.041 299.23 119.748C318.351 80.4669 366.388 64.4544 406.506 84.0271C446.648 103.56 463.623 151.24 444.502 190.561" fill="#560C50"></path> <path d="M465.347 131.399C450.184 162.521 412.128 175.186 380.389 159.721C348.602 144.229 335.148 106.455 350.286 75.3484C365.449 44.2395 403.505 31.574 435.244 47.0417C467.056 62.5342 480.51 100.308 465.347 131.399Z" fill="#601459"></path> <path d="M530.689 111.253C519.041 135.162 490.239 145.094 466.338 133.467L465.529 107.628C441.654 95.9881 431.725 67.1755 443.372 43.2947L451.28 27.0667C462.927 3.17332 491.704 -6.77108 515.605 4.86865L526.419 10.1339C550.32 21.7888 560.249 50.6014 548.602 74.4948L530.689 111.253" fill="#601459"></path> <path d="M539.599 36.8426C537.636 40.7891 535.296 44.7079 532.628 48.521C514.707 74.1759 487.55 87.0272 467.843 80.6292C461.122 92.9495 453.068 103.027 445.392 111.174C436.608 120.442 418.134 125.775 418.134 125.775C405.549 143.642 412.672 195.096 457.649 200.416C484.681 203.588 479.168 175.094 469.705 157.322C465.3 148.976 462.255 139.829 472.675 124.776C483.095 112.043 491.199 120.15 491.199 120.15C503.935 128.254 507.736 118.468 512.014 113.774C514.33 111.348 516.243 108.574 517.803 105.416L539.751 66.9096C544.558 57.0408 544.13 45.9891 539.599 36.8426" fill="#E9D6B8"></path> <path d="M426.742 447.083C426.742 447.083 466.676 449.482 474.673 448.683C482.769 447.868 481.848 442.295 481.848 442.295C481.848 442.295 486.232 351.188 491.638 312.761C496.969 274.322 502.699 261.843 502.625 249.815C502.5 230.63 500.407 226.39 497.044 211.483C493.656 196.563 474.673 163.283 474.673 168.362C474.673 177.136 468.893 184.615 449.91 163.562C446.622 159.949 426.742 447.083 426.742 447.083" fill="#560C50"></path> <path d="M463.512 143.601C463.512 143.601 493.252 153.027 491.452 176.349C490.653 186.72 506.622 232.254 505.023 261.001C502.699 302.789 510.646 316.269 509.621 346.455C508.546 376.667 515.544 383.4 513.02 420.494C511.021 449.521 505.822 447.882 505.822 447.882C505.822 447.882 494.801 447.682 479.482 449.481C464.912 451.188 476.983 356.282 480.631 331.401C484.305 306.562 498.9 241.321 498.025 224.002C497.15 206.68 480.931 181.774 477.882 176.349C470.21 162.761 461.288 145.015 463.512 143.601" fill="#781970"></path> <path d="M442.632 450.816C442.632 450.816 453.494 352.523 459.665 306.002C465.861 259.468 449.297 169.963 450.704 158.775C452.16 147.59 459.492 143.603 459.492 143.603C459.492 143.603 434.806 121.042 420.365 124.429C408.046 127.323 393.012 132.857 373.115 140.922C359.389 146.509 366.573 303.19 365.339 311.47C360.92 341.202 346.281 375.309 336.802 398.869C329.272 417.589 323.471 445.548 323.471 445.548C323.471 445.548 398.813 447.881 442.632 450.816" fill="#781970"></path> <path d="M398.292 331.133L419.383 188.349C419.383 188.349 414.172 158.948 405.034 148.882C394.217 136.934 373.571 140.468 373.571 140.468C373.571 140.468 349.443 160.255 347.739 273.282C346.578 350.655 339.466 382.454 372.806 385.828C403.898 388.962 465.886 373.616 465.886 373.616L467.491 320.894L398.292 331.133" fill="#FEC12F"></path> <path d="M497.251 218.202C493.807 201.561 480.603 181.189 477.882 176.349C470.22 162.761 461.284 145.014 463.505 143.601C463.505 143.601 493.258 153.029 491.46 176.349C490.662 186.722 506.636 232.254 505.039 261.001C502.743 302.347 510.48 315.988 509.631 345.48C504.115 329.895 499.448 314.216 499.448 305.722C499.448 285.175 504.14 228.64 497.251 218.202" fill="#781970"></path> <path d="M541.564 365.629H589.474L595.87 280.161H535.167L541.564 365.629Z" fill="#DD1A17"></path> <path d="M534.595 277.572H596.479L593.267 270.787H537.781L534.595 277.572" fill="#ACADB0"></path> <path d="M457.112 326.493L518.625 311.307L536.17 293.746L536.991 300.933C536.991 300.933 588.91 292.148 597.683 290.547C606.482 288.946 616.05 290.547 616.05 290.547C616.05 290.547 623.233 293.746 615.255 295.347C607.251 296.934 599.274 298.532 599.274 298.532C599.274 298.532 596.093 312.107 593.682 315.306C591.296 318.507 600.069 313.708 600.069 313.708C600.069 313.708 599.274 320.893 594.477 323.294C589.706 325.693 578.521 329.681 567.337 329.681C556.153 329.681 547.355 331.279 544.969 334.481C542.583 337.667 532.194 336.866 528.193 337.667C524.217 338.467 454.726 362.426 454.726 362.426L457.112 326.493" fill="#E9D6B8"></path> <path d="M530.769 282.562H600.26V276.175H530.769V282.562Z" fill="#ACADB0"></path> <path d="M398.292 331.133L419.383 188.349C419.383 188.349 414.172 158.948 405.034 148.882C394.217 136.934 373.571 140.468 373.571 140.468C373.571 140.468 349.443 160.255 347.739 273.282C346.578 350.655 339.466 382.454 372.806 385.828C403.898 388.962 465.886 373.616 465.886 373.616L467.491 320.894L398.292 331.133" fill="#8C1782"></path> <path d="M844.386 262.386H743.098C739.095 262.386 734.633 265.653 733.172 269.68L678.08 421.014H793.945L849.037 269.68C850.498 265.653 848.415 262.386 844.386 262.386" fill="#B1B6BA"></path> <path d="M536.388 420.123V424.601C536.388 428.562 539.593 431.762 543.546 431.762H788.133C792.112 431.762 795.317 428.562 795.317 424.601V420.123H536.388" fill="#B1B6BA"></path> <path d="M677.979 424.602V420.122H536.372V424.602C536.372 428.563 539.595 431.762 543.545 431.762H670.806C674.756 431.762 677.979 428.563 677.979 424.602" fill="#B1B6BA"></path> <path d="M1804.63 433.123C1735.84 495.669 1611.25 548.64 1382.66 570.828C921.018 615.656 492.73 502.696 199.661 433.123H1804.63Z" fill="#D2D2D2"></path> <path d="M880.798 473.773C875.902 473.773 871.93 469.801 871.93 464.908V388.028C871.93 383.121 875.902 379.148 880.798 379.148H993.176C998.072 379.148 1002.04 383.121 1002.04 388.028V464.908C1002.04 469.801 998.072 473.773 993.176 473.773H880.798Z" fill="#FFBF0D"></path> <path d="M880.868 473.799C875.972 473.799 872 469.826 872 464.933V388.053C872 383.146 875.972 379.174 880.868 379.174H993.247C998.142 379.174 1002.12 383.146 1002.12 388.053V464.933C1002.12 469.826 998.142 473.799 993.247 473.799H880.868Z" fill="#E3E3E3"></path> <path d="M993.176 379.148H880.798C875.902 379.148 871.93 383.121 871.93 388.028V392.669L975.16 473.773H993.176C998.072 473.773 1002.04 469.801 1002.04 464.908V388.028C1002.04 383.121 998.072 379.148 993.176 379.148" fill="#B1B6BA"></path> <path d="M937.001 438.295L1002.04 393.041V388.028C1002.04 383.121 998.072 379.149 993.176 379.149H880.798C875.902 379.149 871.93 383.121 871.93 388.028V393.041L937.001 438.295" fill="#E3E3E3"></path> <path d="M809.83 321.35C805.012 321.35 801.104 317.455 801.104 312.643V237.122C801.104 232.308 805.012 228.402 809.83 228.402H920.213C925.03 228.402 928.912 232.308 928.912 237.122V312.643C928.912 317.455 925.03 321.35 920.213 321.35H809.83Z" fill="#FFBF0D"></path> <path d="M809.83 321.35C805.012 321.35 801.104 317.455 801.104 312.643V237.122C801.104 232.308 805.012 228.402 809.83 228.402H920.213C925.03 228.402 928.912 232.308 928.912 237.122V312.643C928.912 317.455 925.03 321.35 920.213 321.35H809.83Z" fill="#FFBF0D"></path> <path d="M920.213 228.402H809.83C805.012 228.402 801.104 232.308 801.104 237.122V241.681L902.513 321.35H920.213C925.03 321.35 928.912 317.455 928.912 312.643V237.122C928.912 232.308 925.03 228.402 920.213 228.402" fill="#F3AA06"></path> <path d="M864.994 286.494L928.912 242.041V237.122C928.912 232.307 925.03 228.401 920.213 228.401H809.83C805.012 228.401 801.104 232.307 801.104 237.122V242.041L864.994 286.494Z" fill="#FECE40"></path> <path d="M631.849 197.387C629.133 197.387 626.887 195.172 626.887 192.44V149.559C626.887 146.827 629.133 144.612 631.849 144.612H694.536C697.253 144.612 699.473 146.827 699.473 149.559V192.44C699.473 195.172 697.253 197.387 694.536 197.387H631.849Z" fill="#FFBF0D"></path> <path d="M631.849 197.387C629.133 197.387 626.887 195.172 626.887 192.44V149.559C626.887 146.827 629.133 144.612 631.849 144.612H694.536C697.253 144.612 699.473 146.827 699.473 149.559V192.44C699.473 195.172 697.253 197.387 694.536 197.387H631.849Z" fill="#FFBF0D"></path> <path d="M694.536 144.612H631.849C629.133 144.612 626.887 146.827 626.887 149.559V152.145L684.48 197.387H694.536C697.253 197.387 699.473 195.172 699.473 192.44V149.559C699.473 146.827 697.253 144.612 694.536 144.612Z" fill="#F3AA06"></path> <path d="M663.193 177.602L699.473 152.347V149.56C699.473 146.828 697.253 144.613 694.536 144.613H631.849C629.133 144.613 626.887 146.828 626.887 149.56V152.347L663.193 177.602Z" fill="#FECE40"></path> <path d="M1213.81 246.895L1134.46 171.122C1133.73 170.281 1132.91 169.508 1132.03 168.787L1131.27 168.04L1131.18 168.067C1127.43 165.281 1122.83 163.562 1117.79 163.562C1112.75 163.562 1108.18 165.281 1104.44 168.067L1104.35 168.04L1103.56 168.787C1102.71 169.508 1101.89 170.281 1101.13 171.122L1021.78 246.895C1020.02 248.655 1019.14 250.946 1019.14 253.254V342.92C1019.14 350.348 1025.17 356.361 1032.61 356.361H1203C1210.44 356.361 1216.44 350.348 1216.44 342.92V253.254C1216.44 250.946 1215.57 248.655 1213.81 246.895" fill="#F3AA06"></path> <path d="M1202.99 329.467V190.466C1202.99 183.042 1196.97 177.013 1189.56 177.013H1046.05C1038.63 177.013 1032.62 183.042 1032.62 190.466V329.467H1202.99Z" fill="white"></path> <path d="M1191.12 259.27H1044.63V188.977H1191.12V259.27" fill="#B1B6BA"></path> <path d="M1125.21 224.118L1110.58 233.252V214.985L1125.21 224.118Z" fill="white"></path> <path d="M1044.13 268.227H1114.65V264.787H1044.13" fill="#B5D1DE"></path> <path d="M1044.1 273.723H1088.74V270.282H1044.1" fill="#B5D1DE"></path> <path d="M1139.81 273.719H1149.31V270.279H1139.81" fill="#B5D1DE"></path> <path d="M1132.28 273.719H1136.83V270.28H1132.28" fill="#B5D1DE"></path> <path d="M1162.29 273.721H1171.78V270.279H1162.29" fill="#B5D1DE"></path> <path d="M1154.74 273.723H1159.28V270.282H1154.74" fill="#B5D1DE"></path> <path d="M1175.7 273.719H1180.24V270.28H1175.7" fill="#B5D1DE"></path> <path d="M1184.47 273.723H1189.02V270.28H1184.47" fill="#B5D1DE"></path> <path d="M1202.99 356.359H1032.62C1025.17 356.359 1019.15 350.348 1019.15 342.921V253.242L1202.99 356.359Z" fill="#FFBF0D"></path> <path d="M1032.61 356.361H1203C1210.44 356.361 1216.44 350.348 1216.44 342.92V253.239L1032.61 356.361Z" fill="#FECE40"></path> <path d="M910.569 270.307L897.382 261.268L884.168 270.307V242.374H897.382H910.569V270.307Z" fill="url(#paint0_linear_106_7243)"></path> <path d="M917.284 231.785C917.284 242.773 908.361 251.693 897.352 251.693C886.369 251.693 877.446 242.773 877.446 231.785C877.446 220.773 886.369 211.866 897.352 211.866C908.361 211.866 917.284 220.773 917.284 231.785Z" fill="url(#paint1_linear_106_7243)"></path> <path d="M897.372 219.892L901.182 224.532L907.157 224.598L905.896 230.452L909.569 235.186L904.197 237.853L902.799 243.666L897.372 241.131L891.945 243.666L890.547 237.853L885.175 235.186L888.848 230.452L887.587 224.598L893.59 224.532L897.372 219.892" fill="white"></path> <path d="M1015.13 432.882C1013.04 432.882 1011.37 434.615 1011.37 436.747C1011.37 438.894 1013.04 440.627 1015.13 440.613C1017.23 440.627 1018.9 438.894 1018.9 436.747C1018.9 434.615 1017.23 432.882 1015.13 432.882ZM1015.73 455.732L997.405 436.895L1015.73 417.774H1058.01V436.747V455.732H1015.73Z" fill="#FDBF14"></path> <path d="M1036.75 426.827L1033.72 433.135L1026.94 434.135L1031.83 439.056L1030.67 445.988L1036.75 442.709L1042.82 445.988L1041.66 439.056L1046.58 434.135L1039.8 433.135L1036.75 426.827" fill="white"></path> <path d="M784.472 133.961C781.354 133.961 778.832 131.439 778.832 128.332V79.5066C778.832 76.3858 781.354 73.867 784.472 73.867H855.834C858.952 73.867 861.473 76.3858 861.473 79.5066V128.332C861.473 131.439 858.952 133.961 855.834 133.961H784.472Z" fill="#FFBF0D"></path> <path d="M784.472 133.961C781.354 133.961 778.832 131.439 778.832 128.332V79.5066C778.832 76.3858 781.354 73.867 784.472 73.867H855.834C858.952 73.867 861.473 76.3858 861.473 79.5066V128.332C861.473 131.439 858.952 133.961 855.834 133.961H784.472Z" fill="#E3E3E3"></path> <path d="M855.834 73.867H784.472C781.354 73.867 778.832 76.3858 778.832 79.5066V82.4537L844.392 133.961H855.834C858.952 133.961 861.473 131.439 861.473 128.332V79.5066C861.473 76.3858 858.952 73.867 855.834 73.867" fill="#B1B6BA"></path> <path d="M820.153 111.428L861.473 82.693V79.5072C861.473 76.3865 858.952 73.8676 855.834 73.8676H784.472C781.354 73.8676 778.832 76.3865 778.832 79.5072V82.693L820.153 111.428Z" fill="#E3E3E3"></path> <defs> <linearGradient id="paint0_linear_106_7243" x1="5602.61" y1="-421.867" x2="5602.61" y2="-394.01" gradientUnits="userSpaceOnUse"> <stop stop-color="#E04037"></stop> <stop offset="1" stop-color="#F95830"></stop> </linearGradient> <linearGradient id="paint1_linear_106_7243" x1="5616.38" y1="-522.092" x2="5616.38" y2="-462.771" gradientUnits="userSpaceOnUse"> <stop stop-color="#E04037"></stop> <stop offset="1" stop-color="#F95830"></stop> </linearGradient> </defs> </svg> 