<?xml version="1.0" encoding="UTF-8"?> <svg xmlns="http://www.w3.org/2000/svg" width="295" height="218" viewBox="0 0 295 218" fill="none"> <path d="M295 0H0V218H295V0Z" fill="white"></path> <path d="M201.952 116.371C202.464 124.404 208.519 129.055 216.452 129.055C222.167 129.055 230.355 127.364 230.355 119.838C230.355 112.482 222.849 111.383 215.343 109.86C207.753 108.338 200.247 106.393 200.247 97.5149C200.246 88.8896 208.69 86.3525 216.111 86.3525C225.407 86.3525 232.317 90.3267 232.317 100.22H229.075C228.99 92.3561 223.446 89.1431 216.111 89.1431C210.14 89.1431 203.488 91.3414 203.488 97.5143C203.488 104.448 210.994 105.547 218.073 107.07C226.773 108.676 233.596 110.705 233.596 119.838C233.596 129.224 224.128 131.845 216.452 131.845C206.473 131.845 198.967 126.518 198.711 116.371H201.952V116.371Z" fill="#003399"></path> <path d="M183.274 97.0079H183.53C185.236 91.342 192.4 86.7761 200.332 87.1143V90.3273C196.921 89.9049 192.144 90.7502 188.221 94.5555C184.98 97.8537 183.615 100.56 183.274 107.07V130.831H180.033V87.3679H183.274V97.0079Z" fill="#003399"></path> <path d="M173.04 130.629H169.799V122.205H169.628C167.581 127.364 161.696 131.845 153.338 131.845C145.064 131.845 138.667 128.717 138.667 119.584C138.667 109.437 147.538 107.323 154.787 106.731C169.287 105.717 169.884 104.786 169.884 97.6831C169.884 95.7384 167.667 89.1431 157.687 89.1431C149.841 89.1431 144.638 93.2014 144.212 100.727H140.97C141.396 91.1725 147.367 86.3525 157.687 86.3525C165.364 86.3525 173.04 88.7202 173.04 97.6831V130.629ZM169.799 106.14C167.24 109.014 160.245 108.677 153.935 109.522C146.258 110.368 141.908 113.074 141.908 119.584C141.908 124.827 145.747 129.055 153.423 129.055C168.178 129.055 169.799 116.541 169.799 114.258V106.14Z" fill="#003399"></path> <path d="M101.055 109.521C100.885 119.753 106.344 129.055 117.175 129.055C125.449 129.055 131.334 124.151 132.869 116.117H136.11C134.404 126.264 127.581 131.845 117.175 131.845C104.381 131.845 97.6435 121.867 97.8144 109.86C97.6435 97.9372 103.955 86.3525 117.175 86.3525C130.908 86.3525 137.049 97.0914 136.451 109.521H101.055ZM133.21 106.731C133.04 97.5996 127.24 89.1437 117.175 89.1437C107.453 89.1437 101.738 98.1067 101.055 106.731H133.21Z" fill="#003399"></path> <path d="M63.6139 116.371C64.126 124.404 70.1821 129.055 78.1138 129.055C83.8282 129.055 92.0168 127.364 92.0168 119.838C92.0168 112.482 84.5111 111.383 77.0055 109.86C69.4144 108.338 61.9087 106.393 61.9087 97.5143C61.9087 88.8896 70.3518 86.3525 77.7727 86.3525C87.0696 86.3525 93.9784 90.3267 93.9784 100.22H90.7376C90.6515 92.3561 85.108 89.1431 77.7732 89.1431C71.8025 89.1431 65.1501 91.3414 65.1501 97.5143C65.1501 104.448 72.6557 105.547 79.7348 107.07C88.4343 108.676 95.2576 110.705 95.2576 119.838C95.2576 129.224 85.7898 131.845 78.1132 131.845C68.134 131.845 60.6283 126.518 60.3726 116.371H63.6139V116.371Z" fill="#003399"></path> </svg> 